SplineFontDB: 3.0
FontName: Nithyananda-2.04
FullName: Nithyananda-2.04
FamilyName: Nithyananda-2.04
Weight: Book
Copyright: Nithyananda Font Copyright (c) 2015 SIL OFL by Mohammed Asif Ali Rizvan, <fast.rizwaan@gmail.com>.
Version: 2.004 2012
ItalicAngle: 0
UnderlinePosition: -123
UnderlineWidth: 20
Ascent: 1638
Descent: 410
sfntRevision: 0x00020106
LayerCount: 2
Layer: 0 1 "Back"  1
Layer: 1 1 "Fore"  0
XUID: [1021 527 842388927 3456533]
FSType: 0
OS2Version: 3
OS2_WeightWidthSlopeOnly: 0
OS2_UseTypoMetrics: 1
CreationTime: 1338147379
ModificationTime: 1422054233
PfmFamily: 17
TTFWeight: 400
TTFWidth: 5
LineGap: 0
VLineGap: 0
Panose: 2 0 4 0 0 0 0 0 0 0
OS2TypoAscent: 2150
OS2TypoAOffset: 0
OS2TypoDescent: -1043
OS2TypoDOffset: 0
OS2TypoLinegap: 0
OS2WinAscent: 2344
OS2WinAOffset: 0
OS2WinDescent: 1048
OS2WinDOffset: 0
HheadAscent: 2150
HheadAOffset: 0
HheadDescent: -1043
HheadDOffset: 0
OS2SubXSize: 1434
OS2SubYSize: 1331
OS2SubXOff: 0
OS2SubYOff: 293
OS2SupXSize: 1434
OS2SupYSize: 1331
OS2SupXOff: 0
OS2SupYOff: 928
OS2StrikeYSize: 102
OS2StrikeYPos: 530
OS2Vendor: 'FONT'
OS2CodePages: 00000001.00000000
OS2UnicodeRanges: 00008003.00000000.00000000.00000000
Lookup: 4 0 0 "'nukt' Nukta Forms in Devanagari lookup 0"  {"'nukt' Nukta Forms in Devanagari lookup 0 subtable"  } ['nukt' ('deva' <'dflt' > ) ]
Lookup: 4 0 0 "'akhn' Akhand in Devanagari lookup 1"  {"'akhn' Akhand in Devanagari lookup 1 subtable"  } ['akhn' ('deva' <'dflt' > ) ]
Lookup: 4 0 0 "'rphf' Reph Form in Devanagari lookup 2"  {"'rphf' Reph Form in Devanagari lookup 2 subtable"  } ['rphf' ('deva' <'dflt' > ) ]
Lookup: 4 0 0 "'half' Half Forms in Devanagari lookup 3"  {"'half' Half Forms in Devanagari lookup 3 subtable"  } ['half' ('deva' <'dflt' > ) ]
Lookup: 4 0 0 "'vatu' Vattu Variants in Devanagari lookup 4"  {"'vatu' Vattu Variants in Devanagari lookup 4 subtable"  } ['vatu' ('deva' <'dflt' > ) ]

StartChar: .notdef
Encoding: 65536 -1 0
Width: 1024
GlyphClass: 2
Flags: W
LayerCount: 2
Fore
SplineSet
128 0 m 1,0,-1
 128 2150 l 1,1,-1
 896 2150 l 1,2,-1
 896 0 l 1,3,-1
 128 0 l 1,0,-1
256 128 m 1,4,-1
 768 128 l 1,5,-1
 768 2022 l 1,6,-1
 256 2022 l 1,7,-1
 256 128 l 1,4,-1
EndSplineSet
Validated: 1
EndChar

StartChar: exclam
Encoding: 33 33 4
Width: 957
GlyphClass: 2
Flags: W
LayerCount: 2
Fore
SplineSet
878 1723 m 1,0,-1
 865 479 l 1,1,-1
 717 564 l 1,2,-1
 682 1833 l 1,3,-1
 878 1723 l 1,0,-1
960 167 m 1,4,-1
 791 0 l 1,5,-1
 622 167 l 1,6,-1
 791 333 l 1,7,-1
 960 167 l 1,4,-1
EndSplineSet
Validated: 1
EndChar

StartChar: quotedbl
Encoding: 34 34 5
Width: 973
GlyphClass: 2
Flags: W
LayerCount: 2
Fore
SplineSet
806 1600 m 2,0,-1
 725 1128 l 1,1,-1
 676 1128 l 1,2,-1
 594 1600 l 2,3,4
 587 1642 587 1642 621.5 1675 c 128,-1,5
 656 1708 656 1708 702 1708 c 0,6,7
 744 1708 744 1708 775.5 1679.5 c 128,-1,8
 807 1651 807 1651 807 1614 c 0,9,10
 807 1607 807 1607 806 1600 c 2,0,-1
378 1600 m 2,11,-1
 300 1128 l 1,12,-1
 245 1130 l 1,13,-1
 161 1600 l 1,14,15
 153 1639 153 1639 188.5 1673.5 c 128,-1,16
 224 1708 224 1708 271 1708 c 0,17,18
 316 1708 316 1708 350.5 1673.5 c 128,-1,19
 385 1639 385 1639 378 1600 c 2,11,-1
EndSplineSet
Validated: 33
EndChar

StartChar: numbersign
Encoding: 35 35 6
Width: 1192
GlyphClass: 2
Flags: W
LayerCount: 2
Fore
SplineSet
1186 1028 m 1,0,-1
 937 1028 l 1,1,-1
 889 722 l 1,2,-1
 1124 722 l 1,3,-1
 1124 582 l 1,4,-1
 869 582 l 1,5,-1
 791 65 l 1,6,-1
 644 65 l 1,7,-1
 718 582 l 1,8,-1
 411 582 l 1,9,-1
 330 65 l 1,10,-1
 179 65 l 1,11,-1
 258 582 l 1,12,-1
 3 582 l 1,13,-1
 3 722 l 1,14,-1
 280 722 l 1,15,-1
 330 1028 l 1,16,-1
 68 1028 l 1,17,-1
 68 1176 l 1,18,-1
 350 1176 l 1,19,-1
 425 1657 l 1,20,-1
 572 1657 l 1,21,-1
 499 1176 l 1,22,-1
 804 1176 l 1,23,-1
 879 1657 l 1,24,-1
 1025 1657 l 1,25,-1
 957 1176 l 1,26,-1
 1186 1176 l 1,27,-1
 1186 1028 l 1,0,-1
784 1028 m 1,28,-1
 481 1028 l 1,29,-1
 431 722 l 1,30,-1
 738 722 l 1,31,-1
 784 1028 l 1,28,-1
EndSplineSet
Validated: 1
EndChar

StartChar: dollar
Encoding: 36 36 7
Width: 1192
GlyphClass: 2
Flags: W
LayerCount: 2
Fore
SplineSet
1094 493 m 0,0,1
 1094 302 1094 302 959 186 c 0,2,3
 836 80 836 80 637 62 c 1,4,-1
 637 -141 l 1,5,-1
 542 -141 l 1,6,-1
 542 62 l 1,7,8
 310 67 310 67 101 189 c 1,9,-1
 101 506 l 1,10,-1
 138 503 l 1,11,12
 205 154 205 154 542 144 c 1,13,-1
 542 806 l 1,14,15
 346 918 346 918 263 997 c 0,16,17
 121 1130 121 1130 121 1287 c 0,18,19
 121 1456 121 1456 250 1559 c 0,20,21
 366 1651 366 1651 542 1660 c 1,22,-1
 542 1810 l 1,23,-1
 637 1810 l 1,24,-1
 637 1660 l 1,25,26
 852 1649 852 1649 1016 1529 c 1,27,-1
 1020 1261 l 1,28,-1
 977 1261 l 1,29,30
 953 1398 953 1398 861 1485 c 128,-1,31
 769 1572 769 1572 637 1584 c 1,32,-1
 637 1006 l 1,33,34
 868 882 868 882 945 812 c 0,35,36
 1094 679 1094 679 1094 493 c 0,0,1
539 1058 m 1,37,-1
 539 1584 l 1,38,39
 466 1578 466 1578 393 1514 c 0,40,41
 307 1439 307 1439 307 1343 c 0,42,43
 307 1248 307 1248 384 1175 c 1,44,45
 461 1116 461 1116 539 1058 c 1,37,-1
899 431 m 0,46,47
 899 614 899 614 637 755 c 1,48,-1
 637 144 l 1,49,50
 755 162 755 162 827 238 c 128,-1,51
 899 314 899 314 899 431 c 0,46,47
EndSplineSet
Validated: 1
EndChar

StartChar: percent
Encoding: 37 37 8
Width: 1507
GlyphClass: 2
Flags: W
LayerCount: 2
Fore
SplineSet
1505 459 m 0,0,1
 1505 238 1505 238 1399 120 c 1,2,3
 1319 35 1319 35 1224 35 c 0,4,5
 1128 35 1128 35 1070 101 c 1,6,7
 981 196 981 196 980 399 c 1,8,9
 980 609 980 609 1078 720 c 1,10,11
 1158 808 1158 808 1270 809 c 1,12,13
 1505 809 1505 809 1505 459 c 0,0,1
1308 1445 m 1,14,-1
 482 35 l 1,15,-1
 364 35 l 1,16,-1
 1190 1445 l 1,17,-1
 1308 1445 l 1,14,-1
694 1095 m 0,18,19
 694 874 694 874 588 757 c 1,20,21
 508 672 508 672 413 671 c 0,22,23
 318 671 318 671 258 736 c 0,24,25
 169 832 169 832 169 1035 c 0,26,27
 169 1245 169 1245 266 1357 c 1,28,29
 346 1445 346 1445 459 1445 c 0,30,31
 694 1445 694 1445 694 1095 c 0,18,19
1390 321 m 0,32,33
 1390 665 1390 665 1187 665 c 0,34,35
 1095 665 1095 665 1095 507 c 0,36,37
 1095 176 1095 176 1294 178 c 0,38,39
 1390 178 1390 178 1390 321 c 0,32,33
580 958 m 0,40,41
 580 1302 580 1302 375 1302 c 0,42,43
 283 1302 283 1302 284 1144 c 1,44,45
 284 813 284 813 482 815 c 0,46,47
 580 815 580 815 580 958 c 0,40,41
EndSplineSet
Validated: 33
EndChar

StartChar: ampersand
Encoding: 38 38 9
Width: 1855
GlyphClass: 2
Flags: W
LayerCount: 2
Fore
SplineSet
1796 310 m 1,0,1
 1704 160 1704 160 1634 101 c 1,2,3
 1550 33 1550 33 1434 33 c 0,4,5
 1232 33 1232 33 1025 245 c 1,6,7
 803 33 803 33 522 33 c 0,8,9
 320 33 320 33 209 131 c 128,-1,10
 98 229 98 229 98 411 c 256,11,12
 98 593 98 593 260 760 c 0,13,14
 378 883 378 883 556 974 c 1,15,16
 481 1174 481 1174 481 1304 c 0,17,18
 481 1467 481 1467 584.5 1577.5 c 128,-1,19
 688 1688 688 1688 849 1688 c 0,20,21
 987 1688 987 1688 1078 1615 c 1,22,23
 1176 1534 1176 1534 1176 1398 c 0,24,25
 1176 1153 1176 1153 810 983 c 1,26,27
 984 672 984 672 1118 499 c 1,28,29
 1330 759 1330 759 1330 924 c 0,30,31
 1330 1031 1330 1031 1179 1038 c 1,32,-1
 1179 1091 l 1,33,-1
 1702 1091 l 1,34,-1
 1702 1038 l 1,35,36
 1597 1025 1597 1025 1541 978 c 0,37,38
 1498 943 1498 943 1444 843 c 0,39,40
 1422 804 1422 804 1186 421 c 1,41,42
 1375 212 1375 212 1539 212 c 0,43,44
 1659 212 1659 212 1754 340 c 1,45,-1
 1796 310 l 1,0,1
1042 1408 m 0,46,47
 1042 1486 1042 1486 988.5 1545 c 128,-1,48
 935 1604 935 1604 856 1604 c 0,49,50
 676 1604 676 1604 676 1382 c 0,51,52
 676 1265 676 1265 768 1075 c 1,53,54
 879 1125 879 1125 953 1206 c 0,55,56
 1042 1302 1042 1302 1042 1408 c 0,46,47
954 317 m 1,57,58
 788 522 788 522 597 879 c 1,59,60
 463 798 463 798 402 718 c 1,61,62
 323 618 323 618 323 481 c 0,63,64
 323 362 323 362 417.5 264 c 128,-1,65
 512 166 512 166 630 166 c 0,66,67
 695 166 695 166 790 211 c 0,68,69
 881 254 881 254 954 317 c 1,57,58
EndSplineSet
Validated: 1
EndChar

StartChar: quotesingle
Encoding: 39 39 10
Width: 614
GlyphClass: 2
Flags: W
LayerCount: 2
Fore
SplineSet
498 1600 m 2,0,-1
 420 1128 l 1,1,-1
 365 1130 l 1,2,-1
 281 1600 l 1,3,4
 273 1639 273 1639 308.5 1673.5 c 128,-1,5
 344 1708 344 1708 391 1708 c 0,6,7
 436 1708 436 1708 470.5 1673.5 c 128,-1,8
 505 1639 505 1639 498 1600 c 2,0,-1
EndSplineSet
Validated: 33
EndChar

StartChar: parenleft
Encoding: 40 40 11
Width: 1272
GlyphClass: 2
Flags: W
LayerCount: 2
Fore
SplineSet
903 -232 m 1,0,-1
 843 -295 l 1,1,2
 241 146 241 146 241 760 c 0,3,4
 241 1373 241 1373 843 1814 c 1,5,-1
 903 1751 l 1,6,7
 430 1379 430 1379 430 760 c 0,8,9
 430 140 430 140 903 -232 c 1,0,-1
EndSplineSet
Validated: 1
EndChar

StartChar: parenright
Encoding: 41 41 12
Width: 1272
GlyphClass: 2
Flags: W
LayerCount: 2
Fore
SplineSet
1015 760 m 256,0,1
 1015 147 1015 147 413 -295 c 1,2,-1
 353 -232 l 1,3,4
 826 140 826 140 826 760 c 0,5,6
 826 1379 826 1379 353 1751 c 1,7,-1
 413 1814 l 1,8,9
 1015 1373 1015 1373 1015 760 c 256,0,1
EndSplineSet
Validated: 1
EndChar

StartChar: asterisk
Encoding: 42 42 13
Width: 1272
GlyphClass: 2
Flags: W
LayerCount: 2
Fore
SplineSet
1273 1288 m 1,0,-1
 1144 1179 l 1,1,-1
 872 1368 l 1,2,-1
 911 969 l 1,3,-1
 742 1021 l 1,4,-1
 785 1365 l 1,5,-1
 462 1130 l 1,6,-1
 427 1296 l 1,7,-1
 739 1434 l 1,8,-1
 353 1576 l 1,9,-1
 496 1700 l 1,10,-1
 774 1497 l 1,11,-1
 722 1904 l 1,12,-1
 897 1830 l 1,13,-1
 860 1502 l 1,14,-1
 1182 1751 l 1,15,-1
 1207 1576 l 1,16,-1
 897 1442 l 1,17,-1
 1273 1288 l 1,0,-1
EndSplineSet
Validated: 1
EndChar

StartChar: plus
Encoding: 43 43 14
Width: 1272
GlyphClass: 2
Flags: W
LayerCount: 2
Fore
SplineSet
1103 689 m 1,0,-1
 689 689 l 1,1,-1
 689 263 l 1,2,-1
 585 263 l 1,3,-1
 585 689 l 1,4,-1
 169 689 l 1,5,-1
 169 791 l 1,6,-1
 585 791 l 1,7,-1
 585 1215 l 1,8,-1
 689 1215 l 1,9,-1
 689 791 l 1,10,-1
 1103 791 l 1,11,-1
 1103 689 l 1,0,-1
EndSplineSet
Validated: 1
EndChar

StartChar: comma
Encoding: 44 44 15
Width: 635
GlyphClass: 2
Flags: W
LayerCount: 2
Fore
SplineSet
454 95 m 0,0,1
 454 -8 454 -8 148 -364 c 1,2,-1
 115 -279 l 1,3,4
 287 -95 287 -95 287 -6 c 0,5,6
 287 29 287 29 178 178 c 1,7,-1
 315 333 l 1,8,9
 454 207 454 207 454 95 c 0,0,1
EndSplineSet
Validated: 1
EndChar

StartChar: hyphen
Encoding: 45 45 16
Width: 1272
GlyphClass: 2
Flags: W
LayerCount: 2
Fore
SplineSet
1113 689 m 1,0,-1
 178 689 l 1,1,-1
 178 791 l 1,2,-1
 1113 791 l 1,3,-1
 1113 689 l 1,0,-1
EndSplineSet
Validated: 1
EndChar

StartChar: period
Encoding: 46 46 17
Width: 635
GlyphClass: 2
Flags: W
LayerCount: 2
Fore
SplineSet
473 167 m 1,0,-1
 304 0 l 1,1,-1
 134 167 l 1,2,-1
 304 333 l 1,3,-1
 473 167 l 1,0,-1
EndSplineSet
Validated: 1
EndChar

StartChar: slash
Encoding: 47 47 18
Width: 744
GlyphClass: 2
Flags: W
LayerCount: 2
Fore
SplineSet
722 1480 m 1,0,-1
 153 0 l 1,1,-1
 52 41 l 1,2,-1
 622 1519 l 1,3,-1
 722 1480 l 1,0,-1
EndSplineSet
Validated: 1
EndChar

StartChar: zero
Encoding: 48 48 19
Width: 1117
GlyphClass: 2
Flags: W
LayerCount: 2
Fore
SplineSet
1061 832 m 0,0,1
 1061 465 1061 465 922 250 c 128,-1,2
 783 35 783 35 547 35 c 0,3,4
 367 35 367 35 241 200 c 1,5,6
 98 384 98 384 98 703 c 0,7,8
 98 1075 98 1075 244 1310 c 0,9,10
 384 1537 384 1537 599 1537 c 0,11,12
 802 1537 802 1537 920 1382 c 1,13,14
 1061 1201 1061 1201 1061 832 c 0,0,1
906 682 m 0,15,16
 906 1015 906 1015 791 1193 c 1,17,18
 693 1348 693 1348 542 1348 c 0,19,20
 252 1348 252 1348 252 860 c 0,21,22
 252 547 252 547 364 378 c 1,23,24
 468 223 468 223 631 224 c 0,25,26
 757 224 757 224 831.5 341 c 128,-1,27
 906 458 906 458 906 682 c 0,15,16
EndSplineSet
Validated: 33
EndChar

StartChar: one
Encoding: 49 49 20
Width: 1117
GlyphClass: 2
Flags: W
LayerCount: 2
Fore
SplineSet
802 28 m 1,0,-1
 631 -11 l 1,1,2
 637 161 637 161 637 676 c 0,3,4
 637 1226 637 1226 629 1324 c 1,5,-1
 241 1121 l 1,6,-1
 195 1228 l 1,7,-1
 692 1497 l 1,8,-1
 802 1411 l 1,9,-1
 802 28 l 1,0,-1
EndSplineSet
Validated: 1
EndChar

StartChar: two
Encoding: 50 50 21
Width: 1117
GlyphClass: 2
Flags: W
LayerCount: 2
Fore
SplineSet
1007 197 m 1,0,-1
 966 28 l 1,1,-1
 88 17 l 1,2,-1
 109 129 l 1,3,4
 519 533 519 533 651 725 c 1,5,6
 771 895 771 895 771 1043 c 0,7,8
 771 1175 771 1175 668 1256 c 0,9,10
 580 1324 580 1324 465 1324 c 0,11,12
 322 1324 322 1324 169 1163 c 1,13,-1
 123 1190 l 1,14,-1
 206 1393 l 1,15,16
 323 1497 323 1497 556 1497 c 0,17,18
 693 1497 693 1497 820 1387 c 0,19,20
 960 1267 960 1267 960 1103 c 0,21,22
 960 925 960 925 815.5 713 c 128,-1,23
 671 501 671 501 342 192 c 1,24,-1
 1007 197 l 1,0,-1
EndSplineSet
Validated: 1
EndChar

StartChar: three
Encoding: 51 51 22
Width: 1117
GlyphClass: 2
Flags: W
LayerCount: 2
Fore
SplineSet
1037 517 m 0,0,1
 1037 330 1037 330 854 167 c 1,2,3
 665 -6 665 -6 433 -6 c 0,4,5
 361 -6 361 -6 252 28 c 0,6,7
 132 66 132 66 83 112 c 1,8,-1
 167 315 l 1,9,10
 350 167 350 167 559 167 c 0,11,12
 671 167 671 167 777 251.5 c 128,-1,13
 883 336 883 336 883 438 c 0,14,15
 883 539 883 539 797 616.5 c 128,-1,16
 711 694 711 694 574 722 c 1,17,18
 489 676 489 676 386 676 c 0,19,20
 337 676 337 676 339 720 c 1,21,22
 339 757 339 757 396 878 c 1,23,24
 580 889 580 889 577 889 c 2,25,-1
 605 889 l 1,26,27
 619 886 619 886 624 886 c 1,28,29
 756 1018 756 1018 757 1110 c 0,30,31
 757 1198 757 1198 676.5 1261 c 128,-1,32
 596 1324 596 1324 493 1324 c 0,33,34
 315 1324 315 1324 195 1215 c 1,35,-1
 158 1233 l 1,36,-1
 235 1425 l 1,37,38
 402 1497 402 1497 525 1497 c 0,39,40
 694 1497 694 1497 802.5 1413.5 c 128,-1,41
 911 1330 911 1330 911 1176 c 0,42,43
 911 1023 911 1023 742 862 c 1,44,45
 879 819 879 819 958 726.5 c 128,-1,46
 1037 634 1037 634 1037 517 c 0,0,1
EndSplineSet
Validated: 33
EndChar

StartChar: four
Encoding: 52 52 23
Width: 1117
GlyphClass: 2
Flags: W
LayerCount: 2
Fore
SplineSet
1081 545 m 1,0,-1
 1040 386 l 1,1,-1
 878 386 l 1,2,-1
 881 20 l 1,3,-1
 711 -41 l 1,4,-1
 708 386 l 1,5,-1
 35 381 l 1,6,-1
 77 613 l 1,7,-1
 673 1422 l 1,8,-1
 886 1497 l 1,9,-1
 878 545 l 1,10,-1
 1081 545 l 1,0,-1
706 1288 m 1,11,-1
 158 545 l 1,12,-1
 703 545 l 1,13,-1
 706 1288 l 1,11,-1
EndSplineSet
Validated: 1
EndChar

StartChar: five
Encoding: 53 53 24
Width: 1117
GlyphClass: 2
Flags: W
LayerCount: 2
Fore
SplineSet
1023 564 m 0,0,1
 1023 381 1023 381 840 208 c 128,-1,2
 657 35 657 35 456 35 c 0,3,4
 371 35 371 35 258.5 68 c 128,-1,5
 146 101 146 101 98 143 c 1,6,-1
 169 323 l 1,7,8
 367 206 367 206 522 206 c 0,9,10
 659 206 659 206 764 290.5 c 128,-1,11
 869 375 869 375 869 476 c 0,12,13
 869 752 869 752 197 805 c 1,14,-1
 298 1497 l 1,15,-1
 958 1497 l 1,16,-1
 911 1324 l 1,17,-1
 393 1324 l 1,18,-1
 342 977 l 1,19,20
 720 925 720 925 883 818 c 1,21,22
 1023 720 1023 720 1023 564 c 0,0,1
EndSplineSet
Validated: 1
EndChar

StartChar: six
Encoding: 54 54 25
Width: 1117
GlyphClass: 2
Flags: W
LayerCount: 2
Fore
SplineSet
1040 507 m 0,0,1
 1040 312 1040 312 885.5 145 c 128,-1,2
 731 -22 731 -22 533 -22 c 0,3,4
 356 -22 356 -22 221 123 c 1,5,6
 78 281 78 281 77 507 c 1,7,8
 77 734 77 734 238 1023 c 1,9,10
 370 1253 370 1253 545 1434 c 1,11,-1
 832 1499 l 1,12,-1
 843 1439 l 1,13,14
 622 1313 622 1313 465.5 1120 c 128,-1,15
 309 927 309 927 273 739 c 1,16,-1
 279 734 l 1,17,18
 456 920 456 920 654 920 c 0,19,20
 802 920 802 920 921 796.5 c 128,-1,21
 1040 673 1040 673 1040 507 c 0,0,1
886 413 m 0,22,23
 886 553 886 553 784 651 c 128,-1,24
 682 749 682 749 539 749 c 0,25,26
 470 749 470 749 387 704 c 128,-1,27
 304 659 304 659 249 585 c 1,28,29
 258 379 258 379 361.5 263.5 c 128,-1,30
 465 148 465 148 634 148 c 1,31,32
 886 150 886 150 886 413 c 0,22,23
EndSplineSet
Validated: 1
EndChar

StartChar: seven
Encoding: 55 55 26
Width: 1117
GlyphClass: 2
Flags: W
LayerCount: 2
Fore
SplineSet
1053 1497 m 1,0,-1
 1026 1406 l 1,1,-1
 441 83 l 1,2,-1
 244 17 l 1,3,-1
 197 35 l 1,4,5
 321 256 321 256 547 694 c 0,6,7
 811 1208 811 1208 848 1324 c 1,8,-1
 71 1324 l 1,9,-1
 123 1497 l 1,10,-1
 1053 1497 l 1,0,-1
EndSplineSet
Validated: 1
EndChar

StartChar: eight
Encoding: 56 56 27
Width: 1117
GlyphClass: 2
Flags: W
LayerCount: 2
Fore
SplineSet
1023 416 m 0,0,1
 1023 267 1023 267 889 137 c 1,2,3
 743 -3 743 -3 547 -3 c 0,4,5
 361 -3 361 -3 228 110.5 c 128,-1,6
 95 224 95 224 95 393 c 0,7,8
 95 505 95 505 172 606.5 c 128,-1,9
 249 708 249 708 391 763 c 1,10,11
 115 900 115 900 115 1107 c 0,12,13
 115 1247 115 1247 248 1373 c 128,-1,14
 381 1499 381 1499 542 1499 c 0,15,16
 725 1499 725 1499 848.5 1397.5 c 128,-1,17
 972 1296 972 1296 972 1124 c 0,18,19
 972 909 972 909 745 791 c 1,20,21
 1023 665 1023 665 1023 416 c 0,0,1
818 1072 m 256,22,23
 818 1198 818 1198 703 1291 c 1,24,25
 599 1373 599 1373 490 1373 c 0,26,27
 392 1373 392 1373 331 1317 c 128,-1,28
 270 1261 270 1261 270 1163 c 0,29,30
 270 1002 270 1002 673 820 c 1,31,32
 818 946 818 946 818 1072 c 256,22,23
851 364 m 0,33,34
 851 561 851 561 470 717 c 1,35,36
 267 643 267 643 266 441 c 0,37,38
 266 332 266 332 374 227.5 c 128,-1,39
 482 123 482 123 588 123 c 0,40,41
 851 123 851 123 851 364 c 0,33,34
EndSplineSet
Validated: 1
EndChar

StartChar: nine
Encoding: 57 57 28
Width: 1117
GlyphClass: 2
Flags: W
LayerCount: 2
Fore
SplineSet
1040 963 m 0,0,1
 1040 734 1040 734 881 447 c 1,2,3
 749 214 749 214 574 41 c 1,4,-1
 287 -25 l 1,5,-1
 276 28 l 1,6,7
 497 154 497 154 653 349.5 c 128,-1,8
 809 545 809 545 846 731 c 1,9,-1
 840 736 l 1,10,11
 662 550 662 550 465 550 c 0,12,13
 316 550 316 550 196.5 673.5 c 128,-1,14
 77 797 77 797 77 963 c 0,15,16
 77 1158 77 1158 231.5 1326 c 128,-1,17
 386 1494 386 1494 585 1494 c 0,18,19
 763 1494 763 1494 897 1348 c 1,20,21
 1040 1190 1040 1190 1040 963 c 0,0,1
869 886 m 1,22,23
 861 1092 861 1092 757.5 1207 c 128,-1,24
 654 1322 654 1322 484 1322 c 0,25,26
 232 1322 232 1322 232 1058 c 0,27,28
 232 918 232 918 333.5 820 c 128,-1,29
 435 722 435 722 580 722 c 0,30,31
 648 722 648 722 731.5 767 c 128,-1,32
 815 812 815 812 869 886 c 1,22,23
EndSplineSet
Validated: 1
EndChar

StartChar: colon
Encoding: 58 58 29
Width: 663
GlyphClass: 2
Flags: W
LayerCount: 2
Fore
SplineSet
474 1025 m 256,0,1
 474 964 474 964 432 925 c 128,-1,2
 390 886 390 886 330 886 c 256,3,4
 270 886 270 886 229.5 926 c 128,-1,5
 189 966 189 966 189 1025 c 256,6,7
 189 1084 189 1084 228.5 1125 c 128,-1,8
 268 1166 268 1166 330 1166 c 0,9,10
 389 1166 389 1166 431.5 1126 c 128,-1,11
 474 1086 474 1086 474 1025 c 256,0,1
474 173 m 256,12,13
 474 111 474 111 432 72 c 128,-1,14
 390 33 390 33 330 33 c 256,15,16
 270 33 270 33 229.5 74.5 c 128,-1,17
 189 116 189 116 189 173 c 0,18,19
 189 232 189 232 228.5 274.5 c 128,-1,20
 268 317 268 317 330 317 c 0,21,22
 389 317 389 317 431.5 276 c 128,-1,23
 474 235 474 235 474 173 c 256,12,13
EndSplineSet
Validated: 1
EndChar

StartChar: semicolon
Encoding: 59 59 30
Width: 635
GlyphClass: 2
Flags: W
LayerCount: 2
Fore
SplineSet
654 854 m 1,0,-1
 484 689 l 1,1,-1
 315 854 l 1,2,-1
 484 1021 l 1,3,-1
 654 854 l 1,0,-1
622 95 m 0,4,5
 622 -8 622 -8 318 -364 c 1,6,-1
 284 -279 l 1,7,8
 456 -95 456 -95 456 -6 c 0,9,10
 456 29 456 29 347 178 c 1,11,-1
 484 333 l 1,12,13
 622 207 622 207 622 95 c 0,4,5
EndSplineSet
Validated: 1
EndChar

StartChar: less
Encoding: 60 60 31
Width: 900
GlyphClass: 2
Flags: W
LayerCount: 2
Fore
SplineSet
708 35 m 1,0,-1
 -3 577 l 1,1,-1
 -3 799 l 1,2,-1
 697 1327 l 1,3,-1
 697 1103 l 1,4,-1
 155 679 l 1,5,-1
 708 246 l 1,6,-1
 708 35 l 1,0,-1
EndSplineSet
Validated: 1
EndChar

StartChar: equal
Encoding: 61 61 32
Width: 1272
GlyphClass: 2
Flags: W
LayerCount: 2
Fore
SplineSet
1113 843 m 1,0,-1
 178 843 l 1,1,-1
 178 946 l 1,2,-1
 1113 946 l 1,3,-1
 1113 843 l 1,0,-1
1113 533 m 1,4,-1
 178 533 l 1,5,-1
 178 637 l 1,6,-1
 1113 637 l 1,7,-1
 1113 533 l 1,4,-1
EndSplineSet
Validated: 1
EndChar

StartChar: greater
Encoding: 62 62 33
Width: 900
GlyphClass: 2
Flags: W
LayerCount: 2
Fore
SplineSet
900 542 m 1,0,-1
 189 0 l 1,1,-1
 189 213 l 1,2,-1
 742 645 l 1,3,-1
 189 1070 l 1,4,-1
 189 1294 l 1,5,-1
 900 766 l 1,6,-1
 900 542 l 1,0,-1
EndSplineSet
Validated: 1
EndChar

StartChar: question
Encoding: 63 63 34
Width: 1234
GlyphClass: 2
Flags: W
LayerCount: 2
Fore
SplineSet
1234 1327 m 0,0,1
 1234 1172 1234 1172 1136 1037 c 1,2,3
 906 725 906 725 692 473 c 1,4,-1
 561 582 l 1,5,6
 836 886 836 886 1021 1155 c 0,7,8
 1104 1275 1104 1275 1105 1399 c 1,9,10
 1105 1525 1105 1525 1022 1604 c 128,-1,11
 939 1683 939 1683 813 1686 c 1,12,13
 675 1688 675 1688 514 1582 c 1,14,-1
 400 1723 l 1,15,16
 575 1847 575 1847 799 1847 c 0,17,18
 951 1847 951 1847 1088 1697 c 0,19,20
 1234 1537 1234 1537 1234 1327 c 0,0,1
892 167 m 1,21,-1
 723 0 l 1,22,-1
 555 167 l 1,23,-1
 723 333 l 1,24,-1
 892 167 l 1,21,-1
EndSplineSet
Validated: 33
EndChar

StartChar: at
Encoding: 64 64 35
Width: 2198
GlyphClass: 2
Flags: W
LayerCount: 2
Fore
SplineSet
1947 705 m 0,0,1
 1921 549 1921 549 1761 327 c 0,2,3
 1646 166 1646 166 1459 166 c 0,4,5
 1430 166 1430 166 1398 169 c 1,6,7
 1345 176 1345 176 1339 177 c 0,8,9
 1307 187 1307 187 1261 222 c 0,10,11
 1210 262 1210 262 1173 350 c 1,12,13
 1132 299 1132 299 1099 271 c 0,14,15
 1034 214 1034 214 960 189 c 0,16,17
 881 163 881 163 829 163 c 0,18,19
 790 163 790 163 748 173 c 0,20,21
 649 197 649 197 594 295 c 0,22,23
 544 383 544 383 544 504 c 0,24,25
 544 538 544 538 549 572 c 0,26,27
 580 804 580 804 708 975 c 1,28,29
 828 1133 828 1133 990 1186 c 0,30,31
 1042 1203 1042 1203 1100 1203 c 0,32,33
 1164 1203 1164 1203 1202 1182 c 1,34,35
 1265 1159 1265 1159 1327 1058 c 1,36,-1
 1355 1166 l 1,37,-1
 1564 1169 l 1,38,-1
 1368 415 l 2,39,40
 1358 375 1358 375 1358 362 c 0,41,42
 1358 320 1358 320 1398 300 c 0,43,44
 1442 278 1442 278 1488 278 c 0,45,46
 1572 278 1572 278 1640 343 c 0,47,48
 1773 470 1773 470 1833 676 c 0,49,50
 1868 799 1868 799 1868 892 c 0,51,52
 1868 984 1868 984 1839 1068 c 0,53,54
 1774 1256 1774 1256 1632 1396 c 0,55,56
 1478 1547 1478 1547 1290 1581 c 0,57,58
 1173 1603 1173 1603 1016 1571 c 0,59,60
 706 1509 706 1509 497 1297 c 0,61,62
 301 1097 301 1097 262 836 c 1,63,64
 234 659 234 659 234 594 c 0,65,66
 234 461 234 461 284 304 c 0,67,68
 362 60 362 60 558 -71 c 128,-1,69
 754 -202 754 -202 1042 -202 c 0,70,71
 1224 -202 1224 -202 1362 -160 c 0,72,73
 1451 -132 1451 -132 1620 -46 c 1,74,-1
 1669 -144 l 1,75,-1
 1378 -262 l 1,76,-1
 1136 -304 l 1,77,-1
 964 -304 l 2,78,79
 724 -304 724 -304 475 -148 c 0,80,81
 220 12 220 12 98 252 c 0,82,83
 -3 451 -3 451 -3 679 c 0,84,85
 -3 767 -3 767 16 839 c 0,86,87
 42 935 42 935 123 1078 c 0,88,89
 229 1264 229 1264 353 1368 c 0,90,91
 626 1599 626 1599 934 1665 c 1,92,93
 1124 1707 1124 1707 1287 1675 c 1,94,95
 1393 1656 1393 1656 1464 1629 c 0,96,97
 1606 1575 1606 1575 1705 1480 c 0,98,99
 1874 1317 1874 1317 1937 1108 c 0,100,101
 1960 1030 1960 1030 1960 891 c 0,102,103
 1960 788 1960 788 1947 705 c 0,0,1
1270 905 m 1,104,105
 1264 1040 1264 1040 1173 1088 c 1,106,107
 1158 1094 1158 1094 1140 1094 c 0,108,109
 1034 1094 1034 1094 913 943 c 1,110,111
 778 769 778 769 778 552 c 2,112,-1
 778 428 l 2,113,114
 778 276 778 276 903 276 c 0,115,116
 961 276 961 276 1032 327 c 1,117,118
 1100 374 1100 374 1128 428 c 1,119,120
 1165 485 1165 485 1214 624 c 0,121,122
 1276 798 1276 798 1270 905 c 1,104,105
EndSplineSet
Validated: 33
EndChar

StartChar: braceleft
Encoding: 123 123 36
Width: 1146
GlyphClass: 2
Flags: W
LayerCount: 2
Fore
SplineSet
778 -307 m 1,0,-1
 774 -327 l 1,1,2
 586 -327 586 -327 516 -254 c 0,3,4
 441 -177 441 -177 441 30 c 2,5,-1
 441 411 l 2,6,7
 441 538 441 538 408 588 c 1,8,9
 370 649 370 649 249 683 c 1,10,11
 364 719 364 719 406 785 c 0,12,13
 441 840 441 840 441 954 c 2,14,-1
 441 1372 l 2,15,16
 441 1563 441 1563 527 1638 c 0,17,18
 601 1703 601 1703 774 1705 c 1,19,-1
 778 1685 l 1,20,21
 689 1656 689 1656 652 1584 c 0,22,23
 620 1521 620 1521 620 1405 c 2,24,-1
 620 990 l 2,25,26
 620 857 620 857 588 795 c 0,27,28
 549 720 549 720 438 686 c 1,29,30
 557 645 557 645 594 559 c 0,31,32
 620 499 620 499 620 360 c 2,33,-1
 620 -33 l 2,34,35
 620 -260 620 -260 778 -307 c 1,0,-1
EndSplineSet
Validated: 1
EndChar

StartChar: bar
Encoding: 124 124 37
Width: 477
GlyphClass: 2
Flags: W
LayerCount: 2
Fore
SplineSet
320 65 m 1,0,-1
 161 65 l 1,1,-1
 161 1705 l 1,2,-1
 320 1705 l 1,3,-1
 320 65 l 1,0,-1
EndSplineSet
Validated: 1
EndChar

StartChar: braceright
Encoding: 125 125 38
Width: 1146
GlyphClass: 2
Flags: W
LayerCount: 2
Fore
SplineSet
895 683 m 1,0,1
 774 649 774 649 737 587 c 1,2,3
 705 537 705 537 705 411 c 2,4,-1
 705 30 l 2,5,6
 705 -177 705 -177 631 -254 c 0,7,8
 560 -327 560 -327 373 -327 c 1,9,-1
 370 -307 l 1,10,11
 526 -260 526 -260 526 -33 c 2,12,-1
 526 360 l 2,13,14
 526 499 526 499 553 560 c 0,15,16
 592 645 592 645 712 686 c 1,17,18
 598 720 598 720 559 795 c 0,19,20
 526 857 526 857 526 990 c 2,21,-1
 526 1405 l 2,22,23
 526 1521 526 1521 494 1584 c 0,24,25
 458 1656 458 1656 370 1685 c 1,26,-1
 373 1705 l 1,27,28
 546 1703 546 1703 619 1638 c 1,29,30
 705 1563 705 1563 705 1372 c 2,31,-1
 705 954 l 2,32,33
 705 840 705 840 740 785 c 0,34,35
 781 719 781 719 895 683 c 1,0,1
EndSplineSet
Validated: 1
EndChar

StartChar: asciitilde
Encoding: 126 126 39
Width: 1293
GlyphClass: 2
Flags: W
LayerCount: 2
Fore
SplineSet
1247 806 m 1,0,1
 1100 539 1100 539 912 539 c 0,2,3
 818 539 818 539 640 622 c 128,-1,4
 462 705 462 705 378 705 c 0,5,6
 296 705 296 705 230 635 c 0,7,8
 190 593 190 593 128 483 c 1,9,-1
 40 591 l 1,10,11
 113 717 113 717 175 777 c 0,12,13
 268 866 268 866 382 866 c 0,14,15
 471 866 471 866 663 782 c 128,-1,16
 855 698 855 698 912 698 c 0,17,18
 1054 698 1054 698 1166 912 c 1,19,-1
 1247 806 l 1,0,1
EndSplineSet
Validated: 1
EndChar

StartChar: currency
Encoding: 164 164 40
Width: 1754
GlyphClass: 2
Flags: W
LayerCount: 2
Fore
SplineSet
1588 141 m 1,0,-1
 1476 35 l 1,1,-1
 1277 235 l 1,2,3
 1093 99 1093 99 906 99 c 0,4,5
 803 99 803 99 694 132 c 0,6,7
 569 169 569 169 498 233 c 1,8,-1
 296 35 l 1,9,-1
 188 141 l 1,10,-1
 388 343 l 1,11,12
 255 506 255 506 255 732 c 0,13,14
 255 946 255 946 389 1121 c 1,15,-1
 188 1318 l 1,16,-1
 296 1427 l 1,17,-1
 499 1230 l 1,18,19
 668 1363 668 1363 892 1363 c 0,20,21
 1111 1363 1111 1363 1278 1230 c 1,22,-1
 1477 1427 l 1,23,-1
 1588 1318 l 1,24,-1
 1387 1121 l 1,25,26
 1522 940 1522 940 1522 735 c 0,27,28
 1522 524 1522 524 1386 344 c 1,29,-1
 1588 141 l 1,0,-1
1368 731 m 256,30,31
 1368 928 1368 928 1226.5 1068 c 128,-1,32
 1085 1208 1085 1208 889 1208 c 0,33,34
 689 1208 689 1208 549.5 1068.5 c 128,-1,35
 410 929 410 929 410 728 c 0,36,37
 410 531 410 531 550.5 392 c 128,-1,38
 691 253 691 253 888 253 c 256,39,40
 1085 253 1085 253 1226.5 393.5 c 128,-1,41
 1368 534 1368 534 1368 731 c 256,30,31
EndSplineSet
Validated: 1
EndChar

StartChar: section
Encoding: 167 167 41
Width: 1592
GlyphClass: 2
Flags: W
LayerCount: 2
Fore
SplineSet
1274 409 m 0,0,1
 1274 146 1274 146 1006 -25 c 1,2,3
 1151 -188 1151 -188 1151 -390 c 0,4,5
 1151 -543 1151 -543 1067 -641 c 0,6,7
 967 -758 967 -758 769 -758 c 0,8,9
 617 -758 617 -758 515.5 -660.5 c 128,-1,10
 414 -563 414 -563 414 -416 c 1,11,-1
 572 -414 l 1,12,13
 572 -490 572 -490 635 -556.5 c 128,-1,14
 698 -623 698 -623 767 -623 c 0,15,16
 875 -623 875 -623 941 -547 c 0,17,18
 1000 -479 1000 -479 1000 -390 c 0,19,20
 1000 -218 1000 -218 828 -81 c 1,21,22
 668 36 668 36 507 154 c 1,23,24
 335 314 335 314 335 544 c 0,25,26
 335 726 335 726 611 992 c 1,27,28
 520 1092 520 1092 485 1163 c 1,29,30
 438 1255 438 1255 438 1375 c 0,31,32
 438 1528 438 1528 546 1639 c 0,33,34
 669 1765 669 1765 873 1765 c 0,35,36
 1007 1765 1007 1765 1103 1681 c 0,37,38
 1207 1591 1207 1591 1207 1446 c 0,39,40
 1207 1385 1207 1385 1187 1319 c 1,41,-1
 1042 1316 l 1,42,43
 1060 1375 1060 1375 1060 1427 c 0,44,45
 1060 1620 1060 1620 837 1620 c 0,46,47
 740 1620 740 1620 664 1548 c 0,48,49
 581 1469 581 1469 581 1349 c 0,50,51
 581 1210 581 1210 761 1049 c 1,52,53
 927 908 927 908 1094 766 c 1,54,55
 1274 589 1274 589 1274 409 c 0,0,1
1125 418 m 0,56,57
 1125 584 1125 584 720 896 c 1,58,59
 628 836 628 836 551 710 c 1,60,61
 475 588 475 588 475 508 c 0,62,63
 475 365 475 365 623 238 c 0,64,65
 664 203 664 203 873 71 c 1,66,67
 1125 176 1125 176 1125 418 c 0,56,57
EndSplineSet
Validated: 1
EndChar

StartChar: uni00AD
Encoding: 173 173 42
Width: 919
GlyphClass: 2
Flags: W
LayerCount: 2
Fore
SplineSet
772 413 m 1,0,-1
 148 413 l 1,1,-1
 148 523 l 1,2,-1
 772 523 l 1,3,-1
 772 413 l 1,0,-1
EndSplineSet
Validated: 1
EndChar

StartChar: degree
Encoding: 176 176 43
Width: 780
GlyphClass: 2
Flags: W
LayerCount: 2
Fore
SplineSet
709 1061 m 0,0,1
 709 927 709 927 615 833.5 c 128,-1,2
 521 740 521 740 387 740 c 0,3,4
 254 740 254 740 160.5 833.5 c 128,-1,5
 67 927 67 927 67 1061 c 0,6,7
 67 1196 67 1196 160 1289 c 128,-1,8
 253 1382 253 1382 387 1382 c 0,9,10
 522 1382 522 1382 615.5 1289 c 128,-1,11
 709 1196 709 1196 709 1061 c 0,0,1
620 1062 m 0,12,13
 620 1160 620 1160 552.5 1227.5 c 128,-1,14
 485 1295 485 1295 387 1295 c 256,15,16
 289 1295 289 1295 221.5 1227.5 c 128,-1,17
 154 1160 154 1160 154 1062 c 0,18,19
 154 965 154 965 222 897 c 128,-1,20
 290 829 290 829 387 829 c 256,21,22
 484 829 484 829 552 897 c 128,-1,23
 620 965 620 965 620 1062 c 0,12,13
EndSplineSet
Validated: 1
EndChar

StartChar: paragraph
Encoding: 182 182 44
Width: 1088
GlyphClass: 2
Flags: W
LayerCount: 2
Fore
SplineSet
1039 1106 m 1,0,-1
 901 1106 l 1,1,-1
 901 -714 l 1,2,-1
 825 -714 l 1,3,-1
 825 1106 l 1,4,-1
 630 1106 l 1,5,-1
 630 -714 l 1,6,-1
 554 -714 l 1,7,-1
 554 375 l 1,8,9
 344 375 344 375 211 463 c 0,10,11
 53 568 53 568 53 772 c 0,12,13
 53 964 53 964 202 1070 c 0,14,15
 332 1163 332 1163 523 1163 c 2,16,-1
 1039 1163 l 1,17,-1
 1039 1106 l 1,0,-1
EndSplineSet
Validated: 1
EndChar

StartChar: periodcentered
Encoding: 183 183 45
Width: 601
GlyphClass: 2
Flags: W
LayerCount: 2
Fore
SplineSet
421 1050 m 0,0,1
 421 1002 421 1002 387 968 c 128,-1,2
 353 934 353 934 305 934 c 256,3,4
 257 934 257 934 223 968 c 128,-1,5
 189 1002 189 1002 189 1050 c 256,6,7
 189 1098 189 1098 223 1132 c 128,-1,8
 257 1166 257 1166 305 1166 c 0,9,10
 354 1166 354 1166 387.5 1132.5 c 128,-1,11
 421 1099 421 1099 421 1050 c 0,0,1
EndSplineSet
Validated: 1
EndChar

StartChar: multiply
Encoding: 215 215 46
Width: 1243
GlyphClass: 2
Flags: W
LayerCount: 2
Fore
SplineSet
1084 342 m 1,0,-1
 1014 272 l 1,1,-1
 622 664 l 1,2,-1
 230 272 l 1,3,-1
 160 342 l 1,4,-1
 552 734 l 1,5,-1
 160 1126 l 1,6,-1
 230 1198 l 1,7,-1
 622 806 l 1,8,-1
 1014 1198 l 1,9,-1
 1084 1126 l 1,10,-1
 692 734 l 1,11,-1
 1084 342 l 1,0,-1
EndSplineSet
Validated: 1
EndChar

StartChar: sign.adho.cb
Encoding: 2304 2304 47
Width: 0
GlyphClass: 2
Flags: W
LayerCount: 2
Fore
SplineSet
-238 1672 m 1,0,-1
 -419 1856 l 1,1,-1
 -238 2039 l 1,2,-1
 -57 1856 l 1,3,-1
 -238 1672 l 1,0,-1
95 1893 m 1,4,5
 43 2000 43 2000 -52 2068.5 c 128,-1,6
 -147 2137 -147 2137 -232 2137 c 0,7,8
 -452 2137 -452 2137 -613 1877 c 1,9,-1
 -703 1945 l 1,10,11
 -613 2112 -613 2112 -464 2216 c 128,-1,12
 -315 2320 -315 2320 -169 2320 c 0,13,14
 102 2320 102 2320 263 2025 c 1,15,-1
 95 1893 l 1,4,5
EndSplineSet
Validated: 1
EndChar

StartChar: s.candrabindu
Encoding: 2305 2305 48
Width: 0
GlyphClass: 4
Flags: W
AnchorPoint: "Anchor-0" -314 1731 mark 0
LayerCount: 2
Fore
SplineSet
-57 2136 m 1,0,-1
 -238 1953 l 1,1,-1
 -419 2136 l 1,2,-1
 -238 2320 l 1,3,-1
 -57 2136 l 1,0,-1
263 1967 m 1,4,5
 102 1672 102 1672 -169 1672 c 0,6,7
 -315 1672 -315 1672 -464 1776 c 128,-1,8
 -613 1880 -613 1880 -703 2047 c 1,9,-1
 -613 2115 l 1,10,11
 -452 1855 -452 1855 -232 1855 c 0,12,13
 -147 1855 -147 1855 -52 1923.5 c 128,-1,14
 43 1992 43 1992 95 2099 c 1,15,-1
 263 1967 l 1,4,5
EndSplineSet
Validated: 1
Ligature2: "'psts' Post Base Substitutions in Devanagari lookup 10 subtable" vs.chandrae s.anusvara
EndChar

StartChar: s.anusvara
Encoding: 2306 2306 49
Width: 0
GlyphClass: 4
Flags: W
AnchorPoint: "Anchor-0" -387 1731 mark 0
LayerCount: 2
Fore
SplineSet
-238 1672 m 1,0,-1
 -419 1856 l 1,1,-1
 -238 2039 l 1,2,-1
 -57 1856 l 1,3,-1
 -238 1672 l 1,0,-1
EndSplineSet
Validated: 1
EndChar

StartChar: s.visarga
Encoding: 2307 2307 50
Width: 602
GlyphClass: 2
Flags: W
LayerCount: 2
Fore
SplineSet
517 1054 m 1,0,-1
 302 841 l 1,1,-1
 85 1058 l 1,2,-1
 300 1273 l 1,3,-1
 517 1054 l 1,0,-1
517 298 m 1,4,-1
 302 83 l 1,5,-1
 85 300 l 1,6,-1
 300 515 l 1,7,-1
 517 298 l 1,4,-1
EndSplineSet
Validated: 1
EndChar

StartChar: l.short.a
Encoding: 2308 2308 51
Width: 1748
GlyphClass: 2
Flags: W
LayerCount: 2
Fore
SplineSet
1553 1448 m 1,0,-1
 1490 1448 l 1,1,-1
 1490 1590 l 2,2,3
 1490 1613 1490 1613 1468 1643 c 0,4,5
 1429 1698 1429 1698 1341 1714 c 1,6,7
 1231 1721 1231 1721 1122 1727 c 1,8,9
 982 1736 982 1736 923 1792 c 0,10,11
 853 1857 853 1857 854 2008 c 1,12,-1
 854 2144 l 1,13,-1
 928 2144 l 1,14,-1
 928 2038 l 1,15,16
 937 1886 937 1886 1077 1886 c 0,17,18
 1246 1886 1246 1886 1327 1862 c 0,19,20
 1381 1846 1381 1846 1444 1797.5 c 128,-1,21
 1507 1749 1507 1749 1536 1665 c 0,22,23
 1553 1616 1553 1616 1553 1587 c 2,24,-1
 1553 1448 l 1,0,-1
1835 1336 m 1,25,-1
 1617 1336 l 1,26,-1
 1617 0 l 1,27,-1
 1439 101 l 1,28,-1
 1450 662 l 1,29,30
 1376 630 1376 630 1264 631 c 1,31,32
 1149 631 1149 631 1035 714 c 1,33,-1
 1029 708 l 1,34,35
 1072 643 1072 643 1072 561 c 0,36,37
 1072 403 1072 403 963 310.5 c 128,-1,38
 854 218 854 218 685 218 c 0,39,40
 343 218 343 218 88 769 c 1,41,-1
 167 815 l 1,42,43
 361 379 361 379 640 378 c 0,44,45
 763 378 763 378 840 462.5 c 128,-1,46
 917 547 917 547 917 659 c 0,47,48
 917 823 917 823 766 869 c 1,49,50
 545 784 545 784 519 783 c 0,51,52
 500 783 500 783 445.5 844.5 c 128,-1,53
 391 906 391 906 391 923 c 0,54,55
 391 972 391 972 438 972 c 0,56,57
 461 972 461 972 553 985 c 128,-1,58
 645 998 645 998 665 998 c 0,59,60
 706 998 706 998 757 1056 c 1,61,62
 823 1127 823 1127 823 1215 c 0,63,64
 823 1393 823 1393 651 1393 c 0,65,66
 568 1393 568 1393 447 1328.5 c 128,-1,67
 326 1264 326 1264 330 1264 c 1,68,69
 308 1264 308 1264 287 1299 c 0,70,71
 255 1354 255 1354 230 1420 c 1,72,73
 424 1520 424 1520 547 1519 c 1,74,75
 696 1519 696 1519 848 1376 c 0,76,77
 977 1256 977 1256 977 1130 c 0,78,79
 977 1070 977 1070 938.5 1009.5 c 128,-1,80
 900 949 900 949 843 923 c 1,81,82
 1035 774 1035 774 1204 774 c 0,83,84
 1253 774 1253 774 1337.5 808.5 c 128,-1,85
 1422 843 1422 843 1445 875 c 1,86,-1
 1445 1336 l 1,87,-1
 1098 1336 l 1,88,-1
 1011 1497 l 1,89,-1
 1748 1497 l 1,90,-1
 1835 1336 l 1,25,-1
EndSplineSet
Validated: 37
EndChar

StartChar: l.a
Encoding: 2309 2309 52
Width: 1748
GlyphClass: 2
Flags: W
LayerCount: 2
Fore
SplineSet
1835 1336 m 1,0,-1
 1617 1336 l 1,1,-1
 1617 0 l 1,2,-1
 1439 101 l 1,3,-1
 1450 662 l 1,4,5
 1376 630 1376 630 1264 631 c 1,6,7
 1149 631 1149 631 1035 714 c 1,8,-1
 1029 708 l 1,9,10
 1072 643 1072 643 1072 561 c 0,11,12
 1072 403 1072 403 963 310.5 c 128,-1,13
 854 218 854 218 685 218 c 0,14,15
 343 218 343 218 88 769 c 1,16,-1
 167 815 l 1,17,18
 361 379 361 379 640 378 c 0,19,20
 763 378 763 378 840 462.5 c 128,-1,21
 917 547 917 547 917 659 c 0,22,23
 917 823 917 823 766 869 c 1,24,25
 545 784 545 784 519 783 c 0,26,27
 500 783 500 783 445.5 844.5 c 128,-1,28
 391 906 391 906 391 923 c 0,29,30
 391 972 391 972 438 972 c 0,31,32
 461 972 461 972 553 985 c 128,-1,33
 645 998 645 998 665 998 c 0,34,35
 706 998 706 998 757 1056 c 1,36,37
 823 1127 823 1127 823 1215 c 0,38,39
 823 1393 823 1393 651 1393 c 0,40,41
 568 1393 568 1393 447 1328.5 c 128,-1,42
 326 1264 326 1264 330 1264 c 1,43,44
 308 1264 308 1264 287 1299 c 0,45,46
 255 1354 255 1354 230 1420 c 1,47,48
 424 1520 424 1520 547 1519 c 1,49,50
 696 1519 696 1519 848 1376 c 0,51,52
 977 1256 977 1256 977 1130 c 0,53,54
 977 1070 977 1070 938.5 1009.5 c 128,-1,55
 900 949 900 949 843 923 c 1,56,57
 1035 774 1035 774 1204 774 c 0,58,59
 1253 774 1253 774 1337.5 808.5 c 128,-1,60
 1422 843 1422 843 1445 875 c 1,61,-1
 1445 1336 l 1,62,-1
 1098 1336 l 1,63,-1
 1011 1497 l 1,64,-1
 1748 1497 l 1,65,-1
 1835 1336 l 1,0,-1
EndSplineSet
Validated: 33
EndChar

StartChar: l.aa
Encoding: 2310 2310 53
Width: 2308
GlyphClass: 2
Flags: W
LayerCount: 2
Fore
SplineSet
2395 1336 m 1,0,-1
 2176 1336 l 1,1,-1
 2176 0 l 1,2,-1
 2001 101 l 1,3,-1
 2007 1336 l 1,4,-1
 1835 1336 l 1,5,-1
 1748 1497 l 1,6,-1
 2308 1497 l 1,7,-1
 2395 1336 l 1,0,-1
1835 1336 m 1,8,-1
 1617 1336 l 1,9,-1
 1617 0 l 1,10,-1
 1439 101 l 1,11,-1
 1450 662 l 1,12,13
 1376 630 1376 630 1264 631 c 1,14,15
 1149 631 1149 631 1035 714 c 1,16,-1
 1029 708 l 1,17,18
 1072 643 1072 643 1072 561 c 0,19,20
 1072 403 1072 403 963 310.5 c 128,-1,21
 854 218 854 218 685 218 c 0,22,23
 343 218 343 218 88 769 c 1,24,-1
 167 815 l 1,25,26
 361 379 361 379 640 378 c 0,27,28
 763 378 763 378 840 462.5 c 128,-1,29
 917 547 917 547 917 659 c 0,30,31
 917 823 917 823 766 869 c 1,32,33
 545 784 545 784 519 783 c 0,34,35
 500 783 500 783 445.5 844.5 c 128,-1,36
 391 906 391 906 391 923 c 0,37,38
 391 972 391 972 438 972 c 0,39,40
 461 972 461 972 553 985 c 128,-1,41
 645 998 645 998 665 998 c 0,42,43
 706 998 706 998 757 1056 c 1,44,45
 823 1127 823 1127 823 1215 c 0,46,47
 823 1393 823 1393 651 1393 c 0,48,49
 568 1393 568 1393 447 1328.5 c 128,-1,50
 326 1264 326 1264 330 1264 c 1,51,52
 308 1264 308 1264 287 1299 c 0,53,54
 255 1354 255 1354 230 1420 c 1,55,56
 424 1520 424 1520 547 1519 c 1,57,58
 696 1519 696 1519 848 1376 c 0,59,60
 977 1256 977 1256 977 1130 c 0,61,62
 977 1070 977 1070 938.5 1009.5 c 128,-1,63
 900 949 900 949 843 923 c 1,64,65
 1035 774 1035 774 1204 774 c 0,66,67
 1253 774 1253 774 1337.5 808.5 c 128,-1,68
 1422 843 1422 843 1445 875 c 1,69,-1
 1445 1336 l 1,70,-1
 1098 1336 l 1,71,-1
 1011 1497 l 1,72,-1
 1748 1497 l 1,73,-1
 1835 1336 l 1,8,-1
EndSplineSet
Validated: 37
EndChar

StartChar: l.i
Encoding: 2311 2311 54
Width: 996
GlyphClass: 2
Flags: W
LayerCount: 2
Fore
SplineSet
1083 1336 m 1,0,-1
 848 1336 l 1,1,-1
 848 1040 l 2,2,3
 848 1002 848 1002 793 1004 c 1,4,-1
 426 1004 l 2,5,6
 303 1004 303 1004 303 920 c 0,7,8
 303 846 303 846 345.5 783 c 128,-1,9
 388 720 388 720 449 720 c 0,10,11
 489 720 489 720 575 748.5 c 128,-1,12
 661 777 661 777 699 777 c 0,13,14
 785 777 785 777 867 654 c 1,15,16
 941 545 941 545 943 473 c 1,17,18
 943 210 943 210 570 129 c 1,19,-1
 905 -221 l 1,20,-1
 822 -295 l 1,21,22
 541 69 541 69 464 101 c 1,23,24
 330 120 330 120 289 142 c 128,-1,25
 248 164 248 164 219.5 225.5 c 128,-1,26
 191 287 191 287 191 347 c 0,27,28
 191 370 191 370 221 400 c 128,-1,29
 251 430 251 430 300 430 c 0,30,31
 338 430 338 430 401 370 c 1,32,33
 456 315 456 315 478 273 c 1,34,35
 579 267 579 267 684 326 c 1,36,37
 813 400 813 400 814 525 c 0,38,39
 814 634 814 634 733 634 c 0,40,41
 705 634 705 634 617.5 605.5 c 128,-1,42
 530 577 530 577 486 577 c 0,43,44
 372 577 372 577 268 736 c 0,45,46
 173 882 173 882 174 1007 c 1,47,48
 174 1147 174 1147 338 1147 c 2,49,-1
 694 1147 l 1,50,-1
 694 1336 l 1,51,-1
 0 1336 l 1,52,-1
 -87 1497 l 1,53,-1
 996 1497 l 1,54,-1
 1083 1336 l 1,0,-1
EndSplineSet
Validated: 33
EndChar

StartChar: l.ii
Encoding: 2312 2312 55
Width: 996
GlyphClass: 2
Flags: W
LayerCount: 2
Fore
SplineSet
1083 1336 m 1,0,-1
 847 1336 l 1,1,-1
 847 1040 l 2,2,3
 847 1002 847 1002 792 1004 c 1,4,-1
 425 1004 l 2,5,6
 302 1004 302 1004 302 920 c 0,7,8
 302 846 302 846 344.5 783 c 128,-1,9
 387 720 387 720 448 720 c 0,10,11
 488 720 488 720 574 748.5 c 128,-1,12
 660 777 660 777 698 777 c 0,13,14
 784 777 784 777 866 654 c 1,15,16
 940 545 940 545 942 473 c 1,17,18
 942 210 942 210 569 129 c 1,19,-1
 904 -221 l 1,20,-1
 821 -295 l 1,21,22
 540 69 540 69 463 101 c 1,23,24
 329 120 329 120 288 142 c 128,-1,25
 247 164 247 164 218.5 225.5 c 128,-1,26
 190 287 190 287 190 347 c 0,27,28
 190 370 190 370 220 400 c 128,-1,29
 250 430 250 430 299 430 c 0,30,31
 337 430 337 430 400 370 c 1,32,33
 455 315 455 315 477 273 c 1,34,35
 578 267 578 267 683 326 c 1,36,37
 812 400 812 400 813 525 c 0,38,39
 813 634 813 634 732 634 c 0,40,41
 704 634 704 634 616.5 605.5 c 128,-1,42
 529 577 529 577 485 577 c 0,43,44
 371 577 371 577 267 736 c 0,45,46
 172 882 172 882 173 1007 c 1,47,48
 173 1147 173 1147 337 1147 c 2,49,-1
 693 1147 l 1,50,-1
 693 1336 l 1,51,-1
 0 1336 l 1,52,-1
 -87 1497 l 1,53,-1
 643 1497 l 1,54,55
 641 1502 641 1502 638 1506 c 0,56,57
 607 1565 607 1565 572 1637.5 c 128,-1,58
 537 1710 537 1710 514.5 1782.5 c 128,-1,59
 492 1855 492 1855 494 1913 c 1,60,61
 494 2009 494 2009 565 2083 c 128,-1,62
 636 2157 636 2157 728 2157 c 0,63,64
 763 2157 763 2157 795.5 2144.5 c 128,-1,65
 828 2132 828 2132 862 2103.5 c 128,-1,66
 896 2075 896 2075 925.5 2020.5 c 128,-1,67
 955 1966 955 1966 976 1886 c 1,68,-1
 920 1870 l 1,69,70
 883 1948 883 1948 847.5 1980.5 c 128,-1,71
 812 2013 812 2013 765 2013 c 0,72,73
 706 2013 706 2013 663.5 1957 c 128,-1,74
 621 1901 621 1901 621 1827 c 0,75,76
 621 1784 621 1784 634 1730 c 0,77,78
 645 1686 645 1686 674 1612 c 1,79,80
 698 1548 698 1548 713 1512 c 0,81,82
 716 1505 716 1505 719 1497 c 1,83,-1
 996 1497 l 1,84,-1
 1083 1336 l 1,0,-1
EndSplineSet
Validated: 33
EndChar

StartChar: l.u
Encoding: 2313 2313 56
Width: 1316
GlyphClass: 2
Flags: W
LayerCount: 2
Fore
SplineSet
1403 1336 m 1,0,-1
 942 1336 l 1,1,2
 1088 1117 1088 1117 1089 1001 c 0,3,4
 1089 960 1089 960 1037 911 c 1,5,6
 974 854 974 854 873 832 c 1,7,-1
 873 826 l 1,8,9
 1207 683 1207 683 1207 444 c 0,10,11
 1207 280 1207 280 1081 183 c 0,12,13
 977 104 977 104 843 104 c 0,14,15
 640 104 640 104 452 287 c 0,16,17
 294 442 294 442 197 673 c 1,18,-1
 295 720 l 1,19,20
 427 454 427 454 534 350 c 128,-1,21
 641 246 641 246 785 246 c 0,22,23
 892 246 892 246 963 324 c 128,-1,24
 1034 402 1034 402 1034 498 c 0,25,26
 1034 693 1034 693 725 771 c 1,27,28
 637 743 637 743 553 742 c 0,29,30
 515 742 515 742 501 760 c 0,31,32
 413 872 413 872 411 909 c 1,33,34
 411 955 411 955 472 955 c 0,35,36
 586 955 586 955 690 927 c 1,37,38
 934 959 934 959 934 1100 c 0,39,40
 934 1224 934 1224 791 1336 c 1,41,-1
 0 1336 l 1,42,-1
 -87 1497 l 1,43,-1
 1316 1497 l 1,44,-1
 1403 1336 l 1,0,-1
EndSplineSet
Validated: 1
EndChar

StartChar: l.uu
Encoding: 2314 2314 57
Width: 1727
GlyphClass: 2
Flags: W
LayerCount: 2
Fore
SplineSet
1814 1336 m 1,0,-1
 917 1336 l 1,1,2
 1063 1114 1063 1114 1064 998 c 0,3,4
 1064 958 1064 958 1012 909 c 0,5,6
 949 851 949 851 848 829 c 1,7,-1
 848 823 l 1,8,9
 928 801 928 801 1023 728 c 1,10,11
 1172 851 1172 851 1259 892 c 1,12,13
 1324 924 1324 924 1401 923 c 0,14,15
 1478 923 1478 923 1565 832 c 1,16,17
 1674 714 1674 714 1674 528 c 0,18,19
 1674 322 1674 322 1529 132 c 1,20,-1
 1368 203 l 1,21,22
 1442 307 1442 307 1501 442 c 128,-1,23
 1560 577 1560 577 1560 637 c 0,24,25
 1560 703 1560 703 1518.5 741.5 c 128,-1,26
 1477 780 1477 780 1422 780 c 0,27,28
 1371 780 1371 780 1277.5 726.5 c 128,-1,29
 1184 673 1184 673 1130 622 c 1,30,31
 1182 567 1182 567 1182 444 c 0,32,33
 1182 280 1182 280 1056 183 c 0,34,35
 952 104 952 104 818 104 c 0,36,37
 615 104 615 104 427 287 c 0,38,39
 269 442 269 442 172 673 c 1,40,-1
 270 720 l 1,41,42
 402 454 402 454 509 350 c 128,-1,43
 616 246 616 246 760 246 c 0,44,45
 867 246 867 246 938 324 c 128,-1,46
 1009 402 1009 402 1009 498 c 0,47,48
 1009 693 1009 693 700 771 c 1,49,50
 612 743 612 743 528 742 c 0,51,52
 490 742 490 742 476 760 c 0,53,54
 388 872 388 872 386 909 c 1,55,56
 386 955 386 955 447 955 c 0,57,58
 561 955 561 955 665 927 c 1,59,60
 909 959 909 959 909 1100 c 0,61,62
 909 1224 909 1224 766 1336 c 1,63,-1
 0 1336 l 1,64,-1
 -87 1497 l 1,65,-1
 1727 1497 l 1,66,-1
 1814 1336 l 1,0,-1
EndSplineSet
Validated: 33
EndChar

StartChar: l.vr
Encoding: 2315 2315 58
Width: 1946
GlyphClass: 2
Flags: W
LayerCount: 2
Fore
SplineSet
2030 11 m 1,0,1
 1882 -92 1882 -92 1737 -92 c 256,2,3
 1592 -92 1592 -92 1450 11 c 1,4,5
 1292 123 1292 123 1294 266 c 1,6,7
 1294 395 1294 395 1574 522 c 1,8,9
 1639 550 1639 550 1639 574 c 0,10,11
 1639 615 1639 615 1565 757 c 1,12,13
 1530 732 1530 732 1456 700 c 0,14,15
 1371 662 1371 662 1327 662 c 0,16,17
 1259 662 1259 662 1121 717 c 1,18,-1
 1121 0 l 1,19,-1
 944 101 l 1,20,-1
 955 599 l 1,21,-1
 410 218 l 1,22,-1
 276 336 l 1,23,-1
 923 769 l 1,24,25
 682 935 682 935 580 935 c 0,26,27
 494 935 494 935 293 886 c 1,28,-1
 172 1043 l 1,29,30
 451 1095 451 1095 525 1095 c 0,31,32
 645 1095 645 1095 736 1023 c 1,33,34
 794 980 794 980 949 854 c 1,35,-1
 949 1336 l 1,36,-1
 0 1336 l 1,37,-1
 -87 1497 l 1,38,-1
 1946 1497 l 1,39,-1
 2033 1336 l 1,40,-1
 1121 1336 l 1,41,-1
 1121 809 l 1,42,43
 1173 790 1173 790 1239 788 c 1,44,45
 1343 788 1343 788 1502 920 c 1,46,47
 1453 1032 1453 1032 1453 1064 c 0,48,49
 1453 1086 1453 1086 1475 1105 c 128,-1,50
 1497 1124 1497 1124 1519 1124 c 0,51,52
 1607 1124 1607 1124 1792 1004 c 1,53,54
 1833 979 1833 979 1833 944 c 0,55,56
 1833 911 1833 911 1686 820 c 1,57,58
 1828 554 1828 554 1830 507 c 1,59,60
 1830 452 1830 452 1620 361 c 0,61,62
 1513 315 1513 315 1480.5 282 c 128,-1,63
 1448 249 1448 249 1448 181 c 0,64,65
 1448 120 1448 120 1499.5 77.5 c 128,-1,66
 1551 35 1551 35 1634 35 c 0,67,68
 1779 35 1779 35 1893 140 c 1,69,-1
 2030 11 l 1,0,1
EndSplineSet
Validated: 33
EndChar

StartChar: l.vl
Encoding: 2316 2316 59
Width: 1707
GlyphClass: 2
Flags: W
LayerCount: 2
Fore
SplineSet
1794 1336 m 1,0,-1
 1250 1336 l 1,1,-1
 1250 1070 l 1,2,3
 1388 1037 1388 1037 1486.5 938.5 c 128,-1,4
 1585 840 1585 840 1585 728 c 0,5,6
 1585 575 1585 575 1453 465 c 1,7,8
 1172 224 1172 224 1173 115 c 1,9,10
 1173 -6 1173 -6 1294 -6 c 0,11,12
 1452 -6 1452 -6 1595 197 c 1,13,-1
 1724 83 l 1,14,15
 1586 -92 1586 -92 1388 -92 c 0,16,17
 1229 -92 1229 -92 1110 -3 c 1,18,19
 1001 77 1001 77 1001 161 c 0,20,21
 1001 218 1001 218 1044 275.5 c 128,-1,22
 1087 333 1087 333 1236 473 c 1,23,24
 1334 561 1334 561 1365 616 c 1,25,26
 1414 693 1414 693 1414 797 c 0,27,28
 1414 969 1414 969 1250 969 c 0,29,30
 1168 969 1168 969 1084 881 c 1,31,32
 996 783 996 783 857 533 c 1,33,-1
 711 613 l 1,34,35
 739 690 739 690 800 780 c 1,36,37
 762 846 762 846 697 897.5 c 128,-1,38
 632 949 632 949 580 949 c 0,39,40
 494 949 494 949 427 889 c 1,41,42
 345 818 345 818 347 692 c 0,43,44
 350 445 350 445 657 155 c 1,45,-1
 562 74 l 1,46,47
 422 227 422 227 310 416 c 1,48,49
 175 637 175 637 175 766 c 0,50,51
 175 886 175 886 252 987 c 1,52,53
 340 1110 340 1110 490 1110 c 0,54,55
 616 1110 616 1110 688 1037 c 0,56,57
 767 958 767 958 851 860 c 1,58,59
 955 1021 955 1021 1078 1058 c 1,60,-1
 1078 1336 l 1,61,-1
 0 1336 l 1,62,-1
 -87 1497 l 1,63,-1
 1707 1497 l 1,64,-1
 1794 1336 l 1,0,-1
EndSplineSet
Validated: 33
EndChar

StartChar: l.chandra
Encoding: 2317 2317 60
Width: 1245
GlyphClass: 2
Flags: W
LayerCount: 2
Fore
SplineSet
1301 1924 m 1,0,1
 1258 1809 1258 1809 1144 1727.5 c 128,-1,2
 1030 1646 1030 1646 915 1646 c 0,3,4
 769 1646 769 1646 636 1754 c 1,5,6
 524 1847 524 1847 459 1984 c 1,7,-1
 527 2019 l 1,8,9
 680 1789 680 1789 852 1789 c 0,10,11
 958 1789 958 1789 1049 1880 c 1,12,13
 1115 1949 1115 1949 1153 2044 c 1,14,-1
 1301 1924 l 1,0,1
1382 -158 m 0,15,16
 1382 -210 1382 -210 1288 -342 c 1,17,-1
 1141 -213 l 1,18,19
 1193 -150 1193 -150 1193 -118 c 0,20,21
 1193 -80 1193 -80 1119 -35 c 2,22,-1
 356 433 l 2,23,24
 268 487 268 487 266 622 c 1,25,-1
 266 1336 l 1,26,-1
 0 1336 l 1,27,-1
 -87 1497 l 1,28,-1
 1245 1497 l 1,29,-1
 1332 1336 l 1,30,-1
 1070 1336 l 1,31,-1
 1070 599 l 2,32,33
 1070 482 1070 482 966 482 c 0,34,35
 849 482 849 482 755 507 c 1,36,-1
 657 651 l 1,37,38
 837 643 837 643 818 643 c 1,39,40
 898 643 898 643 898 697 c 2,41,-1
 898 1336 l 1,42,-1
 438 1336 l 1,43,-1
 438 602 l 2,44,45
 438 517 438 517 476 493 c 2,46,-1
 1231 17 l 2,47,48
 1382 -78 1382 -78 1382 -158 c 0,15,16
EndSplineSet
Validated: 33
EndChar

StartChar: l.short.e
Encoding: 2318 2318 61
Width: 1245
GlyphClass: 2
Flags: W
LayerCount: 2
Fore
SplineSet
1382 -158 m 0,0,1
 1382 -210 1382 -210 1288 -342 c 1,2,-1
 1141 -213 l 1,3,4
 1193 -150 1193 -150 1193 -118 c 0,5,6
 1193 -80 1193 -80 1119 -35 c 2,7,-1
 356 433 l 2,8,9
 268 487 268 487 266 622 c 1,10,-1
 266 1336 l 1,11,-1
 0 1336 l 1,12,-1
 -87 1497 l 1,13,-1
 943 1497 l 1,14,-1
 943 1581 l 2,15,16
 943 1604 943 1604 921 1634 c 0,17,18
 882 1689 882 1689 794 1705 c 1,19,20
 684 1712 684 1712 575 1718 c 1,21,22
 435 1727 435 1727 376 1783 c 0,23,24
 306 1848 306 1848 307 1999 c 1,25,-1
 307 2135 l 1,26,-1
 381 2135 l 1,27,-1
 381 2029 l 1,28,29
 390 1877 390 1877 530 1877 c 0,30,31
 699 1877 699 1877 780 1853 c 0,32,33
 834 1837 834 1837 897 1788.5 c 128,-1,34
 960 1740 960 1740 989 1656 c 0,35,36
 1006 1607 1006 1607 1006 1578 c 2,37,-1
 1006 1497 l 1,38,-1
 1245 1497 l 1,39,-1
 1332 1336 l 1,40,-1
 1070 1336 l 1,41,-1
 1070 599 l 2,42,43
 1070 482 1070 482 966 482 c 0,44,45
 849 482 849 482 755 507 c 1,46,-1
 657 651 l 1,47,48
 837 643 837 643 818 643 c 1,49,50
 898 643 898 643 898 697 c 2,51,-1
 898 1336 l 1,52,-1
 438 1336 l 1,53,-1
 438 602 l 2,54,55
 438 517 438 517 476 493 c 2,56,-1
 1231 17 l 2,57,58
 1382 -78 1382 -78 1382 -158 c 0,0,1
EndSplineSet
Validated: 33
EndChar

StartChar: l.e
Encoding: 2319 2319 62
Width: 1245
GlyphClass: 2
Flags: W
LayerCount: 2
Fore
SplineSet
1382 -158 m 0,0,1
 1382 -210 1382 -210 1288 -342 c 1,2,-1
 1141 -213 l 1,3,4
 1193 -150 1193 -150 1193 -118 c 0,5,6
 1193 -80 1193 -80 1119 -35 c 2,7,-1
 356 433 l 2,8,9
 268 487 268 487 266 622 c 1,10,-1
 266 1336 l 1,11,-1
 0 1336 l 1,12,-1
 -87 1497 l 1,13,-1
 1245 1497 l 1,14,-1
 1332 1336 l 1,15,-1
 1070 1336 l 1,16,-1
 1070 599 l 2,17,18
 1070 482 1070 482 966 482 c 0,19,20
 849 482 849 482 755 507 c 1,21,-1
 657 651 l 1,22,23
 837 643 837 643 818 643 c 1,24,25
 898 643 898 643 898 697 c 2,26,-1
 898 1336 l 1,27,-1
 438 1336 l 1,28,-1
 438 602 l 2,29,30
 438 517 438 517 476 493 c 2,31,-1
 1231 17 l 2,32,33
 1382 -78 1382 -78 1382 -158 c 0,0,1
EndSplineSet
Validated: 33
EndChar

StartChar: l.ai
Encoding: 2320 2320 63
Width: 1245
GlyphClass: 2
Flags: W
LayerCount: 2
Fore
SplineSet
1382 -158 m 0,0,1
 1382 -210 1382 -210 1288 -342 c 1,2,-1
 1141 -213 l 1,3,4
 1193 -150 1193 -150 1193 -118 c 0,5,6
 1193 -80 1193 -80 1119 -35 c 2,7,-1
 356 433 l 2,8,9
 268 487 268 487 266 622 c 1,10,-1
 266 1336 l 1,11,-1
 0 1336 l 1,12,-1
 -87 1497 l 1,13,-1
 817 1497 l 1,14,15
 673 1732 673 1732 580 1827 c 1,16,17
 494 1912 494 1912 423 1912 c 0,18,19
 417 1912 417 1912 279 1872 c 1,20,21
 262 1889 262 1889 208.5 1989.5 c 128,-1,22
 155 2090 155 2090 155 2107 c 0,23,24
 155 2148 155 2148 297 2148 c 0,25,26
 434 2148 434 2148 580 1981 c 1,27,28
 731 1810 731 1810 902 1497 c 1,29,-1
 1245 1497 l 1,30,-1
 1332 1336 l 1,31,-1
 1070 1336 l 1,32,-1
 1070 599 l 2,33,34
 1070 482 1070 482 966 482 c 0,35,36
 849 482 849 482 755 507 c 1,37,-1
 657 651 l 1,38,39
 837 643 837 643 818 643 c 1,40,41
 898 643 898 643 898 697 c 2,42,-1
 898 1336 l 1,43,-1
 438 1336 l 1,44,-1
 438 602 l 2,45,46
 438 517 438 517 476 493 c 2,47,-1
 1231 17 l 2,48,49
 1382 -78 1382 -78 1382 -158 c 0,0,1
EndSplineSet
Validated: 33
EndChar

StartChar: l.chandrao
Encoding: 2321 2321 64
Width: 2308
GlyphClass: 2
Flags: W
LayerCount: 2
Fore
SplineSet
2365 1924 m 1,0,1
 2322 1809 2322 1809 2208 1727.5 c 128,-1,2
 2094 1646 2094 1646 1979 1646 c 0,3,4
 1833 1646 1833 1646 1700 1754 c 1,5,6
 1588 1847 1588 1847 1523 1984 c 1,7,-1
 1591 2019 l 1,8,9
 1744 1789 1744 1789 1916 1789 c 0,10,11
 2022 1789 2022 1789 2113 1880 c 1,12,13
 2179 1949 2179 1949 2217 2044 c 1,14,-1
 2365 1924 l 1,0,1
1616 1335 m 1,15,-1
 1616 0 l 1,16,-1
 1440 100 l 1,17,-1
 1450 664 l 1,18,19
 1374 631 1374 631 1264 631 c 0,20,21
 1223 631 1223 631 1154 653.5 c 128,-1,22
 1085 676 1085 676 1034 713 c 1,23,-1
 1028 709 l 1,24,25
 1046 678 1046 678 1058.5 636 c 128,-1,26
 1071 594 1071 594 1071 561 c 0,27,28
 1071 459 1071 459 1020 379 c 128,-1,29
 969 299 969 299 882 259 c 128,-1,30
 795 219 795 219 684 217 c 1,31,32
 512 217 512 217 361.5 359.5 c 128,-1,33
 211 502 211 502 88 768 c 1,34,-1
 166 815 l 1,35,36
 268 586 268 586 379.5 482.5 c 128,-1,37
 491 379 491 379 639 379 c 0,38,39
 719 379 719 379 784.5 420 c 128,-1,40
 850 461 850 461 882.5 524.5 c 128,-1,41
 915 588 915 588 915 659 c 0,42,43
 915 737 915 737 872 792.5 c 128,-1,44
 829 848 829 848 764 868 c 1,45,46
 752 864 752 864 718 850 c 128,-1,47
 684 836 684 836 659.5 826.5 c 128,-1,48
 635 817 635 817 604 806 c 128,-1,49
 573 795 573 795 550.5 788.5 c 128,-1,50
 528 782 528 782 518 782 c 0,51,52
 498 782 498 782 443.5 843.5 c 128,-1,53
 389 905 389 905 389 924 c 0,54,55
 389 973 389 973 438 971 c 1,56,57
 463 971 463 971 554 984 c 128,-1,58
 645 997 645 997 666 997 c 0,59,60
 680 997 680 997 705.5 1013.5 c 128,-1,61
 731 1030 731 1030 757.5 1056.5 c 128,-1,62
 784 1083 784 1083 802.5 1125 c 128,-1,63
 821 1167 821 1167 821 1217 c 0,64,65
 821 1299 821 1299 773 1346 c 128,-1,66
 725 1393 725 1393 649 1393 c 0,67,68
 604 1393 604 1393 545.5 1372.5 c 128,-1,69
 487 1352 487 1352 445 1328.5 c 128,-1,70
 403 1305 403 1305 369.5 1285.5 c 128,-1,71
 336 1266 336 1266 330 1266 c 0,72,73
 305 1266 305 1266 285 1298 c 1,74,75
 256 1353 256 1353 227 1419 c 1,76,77
 424 1519 424 1519 547 1520 c 0,78,79
 600 1520 600 1520 688 1481 c 128,-1,80
 776 1442 776 1442 848 1376 c 1,81,82
 922 1306 922 1306 949.5 1250 c 128,-1,83
 977 1194 977 1194 977 1130 c 0,84,85
 977 1069 977 1069 938 1009.5 c 128,-1,86
 899 950 899 950 842 924 c 1,87,88
 946 844 946 844 1030 809 c 0,89,90
 1116 774 1116 774 1202 774 c 0,91,92
 1251 774 1251 774 1335 809 c 128,-1,93
 1419 844 1419 844 1444 874 c 1,94,-1
 1444 1335 l 1,95,-1
 1098 1335 l 1,96,-1
 1012 1497 l 1,97,-1
 2308 1497 l 1,98,-1
 2395 1335 l 1,99,-1
 2175 1335 l 1,100,-1
 2175 0 l 1,101,-1
 2001 100 l 1,102,-1
 2005 1335 l 1,103,-1
 1616 1335 l 1,15,-1
EndSplineSet
Validated: 33
EndChar

StartChar: l.short.o
Encoding: 2322 2322 65
Width: 2308
GlyphClass: 2
Flags: W
LayerCount: 2
Fore
SplineSet
1616 1335 m 1,0,-1
 1616 0 l 1,1,-1
 1440 100 l 1,2,-1
 1450 664 l 1,3,4
 1374 631 1374 631 1264 631 c 0,5,6
 1223 631 1223 631 1154 653.5 c 128,-1,7
 1085 676 1085 676 1034 713 c 1,8,-1
 1028 709 l 1,9,10
 1046 678 1046 678 1058.5 636 c 128,-1,11
 1071 594 1071 594 1071 561 c 0,12,13
 1071 459 1071 459 1020 379 c 128,-1,14
 969 299 969 299 882 259 c 128,-1,15
 795 219 795 219 684 217 c 1,16,17
 512 217 512 217 361.5 359.5 c 128,-1,18
 211 502 211 502 88 768 c 1,19,-1
 166 815 l 1,20,21
 268 586 268 586 379.5 482.5 c 128,-1,22
 491 379 491 379 639 379 c 0,23,24
 719 379 719 379 784.5 420 c 128,-1,25
 850 461 850 461 882.5 524.5 c 128,-1,26
 915 588 915 588 915 659 c 0,27,28
 915 737 915 737 872 792.5 c 128,-1,29
 829 848 829 848 764 868 c 1,30,31
 752 864 752 864 718 850 c 128,-1,32
 684 836 684 836 659.5 826.5 c 128,-1,33
 635 817 635 817 604 806 c 128,-1,34
 573 795 573 795 550.5 788.5 c 128,-1,35
 528 782 528 782 518 782 c 0,36,37
 498 782 498 782 443.5 843.5 c 128,-1,38
 389 905 389 905 389 924 c 0,39,40
 389 973 389 973 438 971 c 1,41,42
 463 971 463 971 554 984 c 128,-1,43
 645 997 645 997 666 997 c 0,44,45
 680 997 680 997 705.5 1013.5 c 128,-1,46
 731 1030 731 1030 757.5 1056.5 c 128,-1,47
 784 1083 784 1083 802.5 1125 c 128,-1,48
 821 1167 821 1167 821 1217 c 0,49,50
 821 1299 821 1299 773 1346 c 128,-1,51
 725 1393 725 1393 649 1393 c 0,52,53
 604 1393 604 1393 545.5 1372.5 c 128,-1,54
 487 1352 487 1352 445 1328.5 c 128,-1,55
 403 1305 403 1305 369.5 1285.5 c 128,-1,56
 336 1266 336 1266 330 1266 c 0,57,58
 305 1266 305 1266 285 1298 c 1,59,60
 256 1353 256 1353 227 1419 c 1,61,62
 424 1519 424 1519 547 1520 c 0,63,64
 600 1520 600 1520 688 1481 c 128,-1,65
 776 1442 776 1442 848 1376 c 1,66,67
 922 1306 922 1306 949.5 1250 c 128,-1,68
 977 1194 977 1194 977 1130 c 0,69,70
 977 1069 977 1069 938 1009.5 c 128,-1,71
 899 950 899 950 842 924 c 1,72,73
 946 844 946 844 1030 809 c 0,74,75
 1116 774 1116 774 1202 774 c 0,76,77
 1251 774 1251 774 1335 809 c 128,-1,78
 1419 844 1419 844 1444 874 c 1,79,-1
 1444 1335 l 1,80,-1
 1098 1335 l 1,81,-1
 1012 1497 l 1,82,-1
 2055 1497 l 1,83,-1
 2055 1611 l 2,84,85
 2055 1634 2055 1634 2033 1664 c 0,86,87
 1994 1719 1994 1719 1906 1735 c 1,88,89
 1796 1742 1796 1742 1687 1748 c 1,90,91
 1547 1757 1547 1757 1488 1813 c 0,92,93
 1418 1878 1418 1878 1419 2029 c 1,94,-1
 1419 2165 l 1,95,-1
 1493 2165 l 1,96,-1
 1493 2059 l 1,97,98
 1502 1907 1502 1907 1642 1907 c 0,99,100
 1811 1907 1811 1907 1892 1883 c 0,101,102
 1946 1867 1946 1867 2009 1818.5 c 128,-1,103
 2072 1770 2072 1770 2101 1686 c 0,104,105
 2118 1637 2118 1637 2118 1608 c 2,106,-1
 2118 1497 l 1,107,-1
 2308 1497 l 1,108,-1
 2395 1335 l 1,109,-1
 2175 1335 l 1,110,-1
 2175 0 l 1,111,-1
 2001 100 l 1,112,-1
 2005 1335 l 1,113,-1
 1616 1335 l 1,0,-1
EndSplineSet
Validated: 33
EndChar

StartChar: l.o
Encoding: 2323 2323 66
Width: 2308
GlyphClass: 2
Flags: W
LayerCount: 2
Fore
SplineSet
1616 1335 m 1,0,-1
 1616 0 l 1,1,-1
 1440 100 l 1,2,-1
 1450 664 l 1,3,4
 1374 631 1374 631 1264 631 c 0,5,6
 1223 631 1223 631 1154 653.5 c 128,-1,7
 1085 676 1085 676 1034 713 c 1,8,-1
 1028 709 l 1,9,10
 1046 678 1046 678 1058.5 636 c 128,-1,11
 1071 594 1071 594 1071 561 c 0,12,13
 1071 459 1071 459 1020 379 c 128,-1,14
 969 299 969 299 882 259 c 128,-1,15
 795 219 795 219 684 217 c 1,16,17
 512 217 512 217 361.5 359.5 c 128,-1,18
 211 502 211 502 88 768 c 1,19,-1
 166 815 l 1,20,21
 268 586 268 586 379.5 482.5 c 128,-1,22
 491 379 491 379 639 379 c 0,23,24
 719 379 719 379 784.5 420 c 128,-1,25
 850 461 850 461 882.5 524.5 c 128,-1,26
 915 588 915 588 915 659 c 0,27,28
 915 737 915 737 872 792.5 c 128,-1,29
 829 848 829 848 764 868 c 1,30,31
 752 864 752 864 718 850 c 128,-1,32
 684 836 684 836 659.5 826.5 c 128,-1,33
 635 817 635 817 604 806 c 128,-1,34
 573 795 573 795 550.5 788.5 c 128,-1,35
 528 782 528 782 518 782 c 0,36,37
 498 782 498 782 443.5 843.5 c 128,-1,38
 389 905 389 905 389 924 c 0,39,40
 389 973 389 973 438 971 c 1,41,42
 463 971 463 971 554 984 c 128,-1,43
 645 997 645 997 666 997 c 0,44,45
 680 997 680 997 705.5 1013.5 c 128,-1,46
 731 1030 731 1030 757.5 1056.5 c 128,-1,47
 784 1083 784 1083 802.5 1125 c 128,-1,48
 821 1167 821 1167 821 1217 c 0,49,50
 821 1299 821 1299 773 1346 c 128,-1,51
 725 1393 725 1393 649 1393 c 0,52,53
 604 1393 604 1393 545.5 1372.5 c 128,-1,54
 487 1352 487 1352 445 1328.5 c 128,-1,55
 403 1305 403 1305 369.5 1285.5 c 128,-1,56
 336 1266 336 1266 330 1266 c 0,57,58
 305 1266 305 1266 285 1298 c 1,59,60
 256 1353 256 1353 227 1419 c 1,61,62
 424 1519 424 1519 547 1520 c 0,63,64
 600 1520 600 1520 688 1481 c 128,-1,65
 776 1442 776 1442 848 1376 c 1,66,67
 922 1306 922 1306 949.5 1250 c 128,-1,68
 977 1194 977 1194 977 1130 c 0,69,70
 977 1069 977 1069 938 1009.5 c 128,-1,71
 899 950 899 950 842 924 c 1,72,73
 946 844 946 844 1030 809 c 0,74,75
 1116 774 1116 774 1202 774 c 0,76,77
 1251 774 1251 774 1335 809 c 128,-1,78
 1419 844 1419 844 1444 874 c 1,79,-1
 1444 1335 l 1,80,-1
 1098 1335 l 1,81,-1
 1012 1497 l 1,82,-1
 2025 1497 l 1,83,84
 1881 1732 1881 1732 1788 1827 c 1,85,86
 1702 1912 1702 1912 1631 1912 c 0,87,88
 1625 1912 1625 1912 1487 1872 c 1,89,90
 1470 1889 1470 1889 1416.5 1989.5 c 128,-1,91
 1363 2090 1363 2090 1363 2107 c 0,92,93
 1363 2148 1363 2148 1505 2148 c 0,94,95
 1642 2148 1642 2148 1788 1981 c 1,96,97
 1939 1810 1939 1810 2110 1497 c 1,98,-1
 2308 1497 l 1,99,-1
 2395 1335 l 1,100,-1
 2175 1335 l 1,101,-1
 2175 0 l 1,102,-1
 2001 100 l 1,103,-1
 2005 1335 l 1,104,-1
 1616 1335 l 1,0,-1
EndSplineSet
Validated: 33
EndChar

StartChar: l.au
Encoding: 2324 2324 67
Width: 2308
GlyphClass: 2
Flags: W
LayerCount: 2
Fore
SplineSet
1616 1335 m 1,0,-1
 1616 0 l 1,1,-1
 1440 100 l 1,2,-1
 1450 664 l 1,3,4
 1374 631 1374 631 1264 631 c 0,5,6
 1223 631 1223 631 1154 653.5 c 128,-1,7
 1085 676 1085 676 1034 713 c 1,8,-1
 1028 709 l 1,9,10
 1046 678 1046 678 1058.5 636 c 128,-1,11
 1071 594 1071 594 1071 561 c 0,12,13
 1071 459 1071 459 1020 379 c 128,-1,14
 969 299 969 299 882 259 c 128,-1,15
 795 219 795 219 684 217 c 1,16,17
 512 217 512 217 361.5 359.5 c 128,-1,18
 211 502 211 502 88 768 c 1,19,-1
 166 815 l 1,20,21
 268 586 268 586 379.5 482.5 c 128,-1,22
 491 379 491 379 639 379 c 0,23,24
 719 379 719 379 784.5 420 c 128,-1,25
 850 461 850 461 882.5 524.5 c 128,-1,26
 915 588 915 588 915 659 c 0,27,28
 915 737 915 737 872 792.5 c 128,-1,29
 829 848 829 848 764 868 c 1,30,31
 752 864 752 864 718 850 c 128,-1,32
 684 836 684 836 659.5 826.5 c 128,-1,33
 635 817 635 817 604 806 c 128,-1,34
 573 795 573 795 550.5 788.5 c 128,-1,35
 528 782 528 782 518 782 c 0,36,37
 498 782 498 782 443.5 843.5 c 128,-1,38
 389 905 389 905 389 924 c 0,39,40
 389 973 389 973 438 971 c 1,41,42
 463 971 463 971 554 984 c 128,-1,43
 645 997 645 997 666 997 c 0,44,45
 680 997 680 997 705.5 1013.5 c 128,-1,46
 731 1030 731 1030 757.5 1056.5 c 128,-1,47
 784 1083 784 1083 802.5 1125 c 128,-1,48
 821 1167 821 1167 821 1217 c 0,49,50
 821 1299 821 1299 773 1346 c 128,-1,51
 725 1393 725 1393 649 1393 c 0,52,53
 604 1393 604 1393 545.5 1372.5 c 128,-1,54
 487 1352 487 1352 445 1328.5 c 128,-1,55
 403 1305 403 1305 369.5 1285.5 c 128,-1,56
 336 1266 336 1266 330 1266 c 0,57,58
 305 1266 305 1266 285 1298 c 1,59,60
 256 1353 256 1353 227 1419 c 1,61,62
 424 1519 424 1519 547 1520 c 0,63,64
 600 1520 600 1520 688 1481 c 128,-1,65
 776 1442 776 1442 848 1376 c 1,66,67
 922 1306 922 1306 949.5 1250 c 128,-1,68
 977 1194 977 1194 977 1130 c 0,69,70
 977 1069 977 1069 938 1009.5 c 128,-1,71
 899 950 899 950 842 924 c 1,72,73
 946 844 946 844 1030 809 c 0,74,75
 1116 774 1116 774 1202 774 c 0,76,77
 1251 774 1251 774 1335 809 c 128,-1,78
 1419 844 1419 844 1444 874 c 1,79,-1
 1444 1335 l 1,80,-1
 1098 1335 l 1,81,-1
 1012 1497 l 1,82,-1
 1901 1497 l 1,83,84
 1800 1574 1800 1574 1638 1680 c 1,85,86
 1556 1735 1556 1735 1526 1735 c 0,87,88
 1477 1735 1477 1735 1400 1691 c 1,89,90
 1372 1743 1372 1743 1329 1847 c 1,91,92
 1291 1942 1291 1942 1291 1956 c 0,93,94
 1291 1988 1291 1988 1337 1987 c 1,95,96
 1435 1987 1435 1987 1570 1877 c 0,97,98
 1788 1700 1788 1700 1790 1700 c 1,99,100
 1908 1597 1908 1597 1997 1497 c 1,101,-1
 2065 1497 l 1,102,103
 2043 1558 2043 1558 2022 1617 c 1,104,105
 1962 1775 1962 1775 1925 1835 c 0,106,107
 1851 1953 1851 1953 1696 1953 c 1,108,109
 1668 2106 1668 2106 1664 2178 c 0,110,111
 1661 2222 1661 2222 1699 2222 c 0,112,113
 1802 2222 1802 2222 1910 2068 c 0,114,115
 1982 1966 1982 1966 2130 1497 c 1,116,-1
 2308 1497 l 1,117,-1
 2395 1335 l 1,118,-1
 2175 1335 l 1,119,-1
 2175 0 l 1,120,-1
 2001 100 l 1,121,-1
 2005 1335 l 1,122,-1
 1616 1335 l 1,0,-1
EndSplineSet
Validated: 33
EndChar

StartChar: l.ka
Encoding: 2325 2325 68
Width: 1776
GlyphClass: 2
Flags: W
AnchorPoint: "Anchor-0" 884 1731 basechar 0
LayerCount: 2
Fore
SplineSet
1863 1336 m 1,0,-1
 1061 1336 l 1,1,-1
 1061 843 l 1,2,3
 1222 972 1222 972 1330 972 c 0,4,5
 1433 972 1433 972 1529 872 c 1,6,7
 1646 743 1646 743 1646 528 c 0,8,9
 1646 375 1646 375 1494 140 c 1,10,-1
 1348 273 l 1,11,12
 1517 503 1517 503 1516 671 c 0,13,14
 1516 734 1516 734 1474.5 773 c 128,-1,15
 1433 812 1433 812 1373 812 c 0,16,17
 1261 812 1261 812 1061 640 c 1,18,-1
 1061 0 l 1,19,-1
 883 101 l 1,20,-1
 894 525 l 1,21,22
 694 399 694 399 579 399 c 0,23,24
 413 399 413 399 291 521 c 128,-1,25
 169 643 169 643 169 809 c 0,26,27
 169 897 169 897 229 980 c 1,28,29
 318 1098 318 1098 501 1098 c 0,30,31
 659 1098 659 1098 730.5 1036 c 128,-1,32
 802 974 802 974 883 862 c 1,33,-1
 889 862 l 1,34,-1
 889 1336 l 1,35,-1
 0 1336 l 1,36,-1
 -87 1497 l 1,37,-1
 1776 1497 l 1,38,-1
 1863 1336 l 1,0,-1
892 734 m 1,39,40
 809 846 809 846 732.5 892 c 128,-1,41
 656 938 656 938 536 938 c 0,42,43
 444 938 444 938 375 883 c 1,44,45
 298 818 298 818 298 714 c 0,46,47
 298 637 298 637 351 589.5 c 128,-1,48
 404 542 404 542 484 542 c 0,49,50
 640 542 640 542 892 734 c 1,39,40
EndSplineSet
Validated: 33
EndChar

StartChar: l.kh
Encoding: 2326 2326 69
Width: 1826
GlyphClass: 2
Flags: W
LayerCount: 2
Fore
SplineSet
1913 1336 m 1,0,-1
 1694 1336 l 1,1,-1
 1694 0 l 1,2,-1
 1522 101 l 1,3,-1
 1528 258 l 1,4,5
 1238 45 1238 45 996 46 c 1,6,7
 688 46 688 46 373 444 c 0,8,9
 278 564 278 564 219 692 c 0,10,11
 178 780 178 780 178 805 c 0,12,13
 178 825 178 825 201 853 c 128,-1,14
 224 881 224 881 238 881 c 0,15,16
 266 881 266 881 408 823 c 1,17,18
 451 889 451 889 450 1067 c 0,19,20
 450 1210 450 1210 439 1336 c 1,21,-1
 0 1336 l 1,22,-1
 -87 1497 l 1,23,-1
 1826 1497 l 1,24,-1
 1913 1336 l 1,0,-1
1522 444 m 1,25,-1
 1522 580 l 1,26,27
 1333 454 1333 454 1213 454 c 0,28,29
 1046 454 1046 454 924.5 575.5 c 128,-1,30
 803 697 803 697 803 862 c 0,31,32
 803 951 803 951 863 1035 c 1,33,34
 951 1152 951 1152 1136 1152 c 0,35,36
 1281 1152 1281 1152 1368 1089 c 1,37,38
 1428 1043 1428 1043 1517 917 c 1,39,-1
 1522 917 l 1,40,-1
 1522 1336 l 1,41,-1
 608 1336 l 1,42,43
 621 885 621 885 622 877 c 1,44,45
 621 686 621 686 422 539 c 1,46,47
 517 396 517 396 646 304 c 1,48,49
 798 189 798 189 952 189 c 0,50,51
 1101 189 1101 189 1270 279 c 1,52,53
 1353 321 1353 321 1522 444 c 1,25,-1
1525 785 m 1,54,55
 1442 900 1442 900 1366.5 946.5 c 128,-1,56
 1291 993 1291 993 1169 993 c 0,57,58
 1077 993 1077 993 1010 938 c 1,59,60
 933 872 933 872 933 769 c 0,61,62
 933 692 933 692 985.5 644 c 128,-1,63
 1038 596 1038 596 1119 596 c 0,64,65
 1270 596 1270 596 1525 785 c 1,54,55
EndSplineSet
Validated: 33
EndChar

StartChar: l.ga
Encoding: 2327 2327 70
Width: 1267
GlyphClass: 2
Flags: W
LayerCount: 2
Fore
SplineSet
1354 1336 m 1,0,-1
 1135 1336 l 1,1,-1
 1135 0 l 1,2,-1
 960 101 l 1,3,-1
 966 1336 l 1,4,-1
 542 1336 l 1,5,-1
 542 610 l 2,6,7
 542 564 542 564 513 532.5 c 128,-1,8
 484 501 484 501 444 501 c 0,9,10
 409 501 409 501 276 643 c 1,11,12
 172 752 172 752 172 809 c 0,13,14
 172 832 172 832 189 852 c 128,-1,15
 206 872 206 872 221 872 c 2,16,-1
 353 872 l 2,17,18
 370 872 370 872 370 900 c 2,19,-1
 370 1336 l 1,20,-1
 0 1336 l 1,21,-1
 -87 1497 l 1,22,-1
 1267 1497 l 1,23,-1
 1354 1336 l 1,0,-1
EndSplineSet
Validated: 1
EndChar

StartChar: l.gha
Encoding: 2328 2328 71
Width: 1368
GlyphClass: 2
Flags: W
LayerCount: 2
Fore
SplineSet
1455 1336 m 1,0,-1
 1236 1336 l 1,1,-1
 1236 0 l 1,2,-1
 1061 101 l 1,3,-1
 1063 563 l 1,4,5
 882 400 882 400 668 402 c 1,6,7
 528 402 528 402 390 509 c 128,-1,8
 252 616 252 616 252 755 c 0,9,10
 252 892 252 892 422 987 c 1,11,12
 175 1135 175 1135 175 1273 c 2,13,-1
 175 1336 l 1,14,-1
 0 1336 l 1,15,-1
 -87 1497 l 1,16,-1
 1368 1497 l 1,17,-1
 1455 1336 l 1,0,-1
1067 1336 m 1,18,-1
 416 1336 l 1,19,20
 364 1289 364 1289 364 1201 c 0,21,22
 364 1106 364 1106 510 1015 c 1,23,24
 713 1023 713 1023 800 958 c 1,25,26
 851 823 851 823 851 820 c 0,27,28
 851 798 851 798 821 797 c 0,29,30
 804 797 804 797 714.5 820 c 128,-1,31
 625 843 625 843 605 843 c 0,32,33
 408 843 408 843 408 685 c 0,34,35
 408 610 408 610 453.5 557 c 128,-1,36
 499 504 499 504 571 504 c 0,37,38
 765 504 765 504 1064 768 c 1,39,-1
 1067 1336 l 1,18,-1
EndSplineSet
Validated: 33
EndChar

StartChar: l.nga
Encoding: 2329 2329 72
Width: 1749
GlyphClass: 2
Flags: W
LayerCount: 2
Fore
SplineSet
1612 848 m 1,0,-1
 1442 682 l 1,1,-1
 1273 848 l 1,2,-1
 1442 1015 l 1,3,-1
 1612 848 l 1,0,-1
1836 1336 m 1,4,-1
 1155 1336 l 1,5,-1
 1155 1032 l 2,6,7
 1155 972 1155 972 1098 972 c 2,8,-1
 714 972 l 2,9,10
 574 972 574 972 574 846 c 0,11,12
 574 742 574 742 611 708 c 1,13,14
 636 683 636 683 700 682 c 0,15,16
 728 682 728 682 869 706.5 c 128,-1,17
 1010 731 1010 731 1035 731 c 0,18,19
 1123 731 1123 731 1196 659 c 0,20,21
 1344 511 1344 511 1344 391 c 0,22,23
 1344 245 1344 245 1233 151 c 128,-1,24
 1122 57 1122 57 961 57 c 0,25,26
 755 57 755 57 536 218 c 1,27,28
 339 361 339 361 172 599 c 1,29,-1
 252 659 l 1,30,31
 433 399 433 399 591 301 c 0,32,33
 723 218 723 218 906 218 c 0,34,35
 1046 218 1046 218 1136 298 c 0,36,37
 1215 367 1215 367 1215 456 c 0,38,39
 1215 571 1215 571 1136 571 c 0,40,41
 1095 571 1095 571 946 546.5 c 128,-1,42
 797 522 797 522 772 522 c 0,43,44
 679 522 679 522 616 571 c 0,45,46
 570 606 570 606 504 697 c 1,47,48
 419 818 419 818 419 917 c 0,49,50
 419 1000 419 1000 479 1066.5 c 128,-1,51
 539 1133 539 1133 634 1133 c 2,52,-1
 983 1133 l 1,53,-1
 983 1336 l 1,54,-1
 0 1336 l 1,55,-1
 -87 1497 l 1,56,-1
 1749 1497 l 1,57,-1
 1836 1336 l 1,4,-1
EndSplineSet
Validated: 1
EndChar

StartChar: l.ca
Encoding: 2330 2330 73
Width: 1546
GlyphClass: 2
Flags: W
LayerCount: 2
Fore
SplineSet
1633 1336 m 1,0,-1
 1414 1336 l 1,1,-1
 1414 0 l 1,2,-1
 1236 101 l 1,3,-1
 1247 507 l 1,4,5
 1095 361 1095 361 911 361 c 0,6,7
 708 361 708 361 582 476 c 1,8,9
 470 580 470 580 470 711 c 0,10,11
 470 806 470 806 536 886 c 1,12,-1
 258 886 l 1,13,-1
 172 1047 l 1,14,-1
 1100 1047 l 1,15,-1
 1187 895 l 1,16,17
 1170 895 1170 895 1116 897 c 1,18,-1
 1026 897 l 2,19,20
 797 897 797 897 739 865 c 0,21,22
 693 840 693 840 658.5 777 c 128,-1,23
 624 714 624 714 624 645 c 0,24,25
 624 465 624 465 802 465 c 0,26,27
 945 465 945 465 1242 725 c 1,28,-1
 1242 1336 l 1,29,-1
 0 1336 l 1,30,-1
 -87 1497 l 1,31,-1
 1546 1497 l 1,32,-1
 1633 1336 l 1,0,-1
EndSplineSet
Validated: 1
EndChar

StartChar: l.cha
Encoding: 2331 2331 74
Width: 1562
GlyphClass: 2
Flags: W
LayerCount: 2
Fore
SplineSet
1649 1336 m 1,0,-1
 1310 1336 l 1,1,-1
 1310 1116 l 1,2,3
 1502 981 1502 981 1502 731 c 0,4,5
 1502 498 1502 498 1333 309 c 0,6,7
 1098 46 1098 46 797 46 c 0,8,9
 638 46 638 46 490 143 c 1,10,11
 318 252 318 252 318 405 c 0,12,13
 318 493 318 493 419 580 c 1,14,15
 172 738 172 738 172 860 c 0,16,17
 172 983 172 983 266 1056 c 1,18,19
 351 1119 351 1119 482 1119 c 0,20,21
 640 1119 640 1119 673 1074 c 128,-1,22
 706 1029 706 1029 745 927 c 1,23,24
 657 959 657 959 564 958 c 1,25,26
 326 958 326 958 326 802 c 0,27,28
 326 742 326 742 386.5 700.5 c 128,-1,29
 447 659 447 659 511 659 c 0,30,31
 517 659 517 659 566.5 672 c 128,-1,32
 616 685 616 685 662 685 c 0,33,34
 739 685 739 685 788 665 c 1,35,36
 860 539 860 539 860 522 c 256,37,38
 860 505 860 505 846 504 c 1,39,40
 848 504 848 504 800 514.5 c 128,-1,41
 752 525 752 525 706 525 c 0,42,43
 620 525 620 525 546.5 459 c 128,-1,44
 473 393 473 393 473 309 c 0,45,46
 473 238 473 238 547 200 c 1,47,48
 608 172 608 172 685 172 c 0,49,50
 816 172 816 172 983 246 c 0,51,52
 1175 332 1175 332 1247 456 c 1,53,54
 1144 531 1144 531 1040 605 c 1,55,56
 876 739 876 739 878 892 c 1,57,58
 878 995 878 995 941 1070 c 1,59,60
 1009 1155 1009 1155 1138 1173 c 1,61,-1
 1138 1336 l 1,62,-1
 0 1336 l 1,63,-1
 -87 1497 l 1,64,-1
 1562 1497 l 1,65,-1
 1649 1336 l 1,0,-1
1373 809 m 0,66,67
 1373 910 1373 910 1323 983 c 128,-1,68
 1273 1056 1273 1056 1201 1056 c 0,69,70
 1135 1056 1135 1056 1092.5 994 c 128,-1,71
 1050 932 1050 932 1050 848 c 0,72,73
 1050 643 1050 643 1294 533 c 1,74,75
 1373 657 1373 657 1373 809 c 0,66,67
EndSplineSet
Validated: 33
EndChar

StartChar: l.ja
Encoding: 2332 2332 75
Width: 1543
GlyphClass: 2
Flags: W
LayerCount: 2
Fore
SplineSet
1630 1336 m 1,0,-1
 1411 1336 l 1,1,-1
 1411 0 l 1,2,-1
 1233 101 l 1,3,-1
 1239 906 l 1,4,-1
 831 906 l 1,5,6
 943 794 943 794 987 728 c 1,7,8
 1041 640 1041 640 1040 545 c 1,9,10
 1040 435 1040 435 949 367 c 1,11,12
 872 307 872 307 780 307 c 0,13,14
 579 307 579 307 416 514 c 1,15,16
 309 645 309 645 169 946 c 1,17,-1
 263 987 l 1,18,19
 340 801 340 801 451 651 c 1,20,21
 502 580 502 580 582 529.5 c 128,-1,22
 662 479 662 479 722 479 c 0,23,24
 875 479 875 479 875 640 c 0,25,26
 875 818 875 818 547 1007 c 1,27,-1
 571 1067 l 1,28,-1
 1239 1067 l 1,29,-1
 1239 1336 l 1,30,-1
 0 1336 l 1,31,-1
 -87 1497 l 1,32,-1
 1543 1497 l 1,33,-1
 1630 1336 l 1,0,-1
EndSplineSet
Validated: 33
EndChar

StartChar: l.jha
Encoding: 2333 2333 76
Width: 1524
GlyphClass: 2
Flags: W
LayerCount: 2
Fore
SplineSet
1223 1335 m 1,0,-1
 850 1335 l 1,1,-1
 850 1040 l 2,2,3
 850 1003 850 1003 795 1004 c 1,4,-1
 428 1004 l 2,5,6
 305 1004 305 1004 305 922 c 0,7,8
 305 846 305 846 348 783.5 c 128,-1,9
 391 721 391 721 450 721 c 0,10,11
 491 721 491 721 577 748.5 c 128,-1,12
 663 776 663 776 700 778 c 1,13,14
 725 778 725 778 757.5 767 c 128,-1,15
 790 756 790 756 803 739 c 1,16,17
 885 739 885 739 995.5 787.5 c 128,-1,18
 1106 836 1106 836 1221 922 c 1,19,-1
 1223 1335 l 1,0,-1
1524 1497 m 1,20,-1
 1611 1335 l 1,21,-1
 1393 1335 l 1,22,-1
 1393 0 l 1,23,-1
 1216 100 l 1,24,-1
 1221 731 l 1,25,26
 1100 637 1100 637 967 637 c 0,27,28
 904 637 904 637 876 651 c 1,29,-1
 870 647 l 1,30,31
 890 620 890 620 897.5 608 c 128,-1,32
 905 596 905 596 919.5 570.5 c 128,-1,33
 934 545 934 545 939 522.5 c 128,-1,34
 944 500 944 500 944 473 c 0,35,36
 944 412 944 412 923.5 360.5 c 128,-1,37
 903 309 903 309 868 273.5 c 128,-1,38
 833 238 833 238 783 208 c 128,-1,39
 733 178 733 178 682 160.5 c 128,-1,40
 631 143 631 143 571 129 c 1,41,-1
 907 -221 l 1,42,-1
 823 -295 l 1,43,44
 714 -154 714 -154 606 -33 c 128,-1,45
 498 88 498 88 467 100 c 1,46,47
 420 106 420 106 360.5 120.5 c 128,-1,48
 301 135 301 135 287 143 c 1,49,50
 250 161 250 161 221 224 c 128,-1,51
 192 287 192 287 192 348 c 0,52,53
 192 368 192 368 223 399 c 128,-1,54
 254 430 254 430 303 430 c 0,55,56
 340 430 340 430 398.5 372.5 c 128,-1,57
 457 315 457 315 479 272 c 1,58,59
 512 272 512 272 553 280.5 c 128,-1,60
 594 289 594 289 641 308.5 c 128,-1,61
 688 328 688 328 727 356.5 c 128,-1,62
 766 385 766 385 790.5 428 c 128,-1,63
 815 471 815 471 815 524 c 0,64,65
 815 585 815 585 793.5 609 c 128,-1,66
 772 633 772 633 735 635 c 1,67,68
 704 635 704 635 617 606.5 c 128,-1,69
 530 578 530 578 487 578 c 0,70,71
 428 578 428 578 371.5 623 c 128,-1,72
 315 668 315 668 268 739 c 1,73,74
 225 807 225 807 200.5 881.5 c 128,-1,75
 176 956 176 956 176 1008 c 0,76,77
 176 1084 176 1084 215 1115.5 c 128,-1,78
 254 1147 254 1147 340 1147 c 2,79,-1
 696 1147 l 1,80,-1
 696 1335 l 1,81,-1
 0 1335 l 1,82,-1
 -87 1497 l 1,83,-1
 1524 1497 l 1,20,-1
EndSplineSet
Validated: 33
EndChar

StartChar: l.nya
Encoding: 2334 2334 77
Width: 1630
GlyphClass: 2
Flags: W
LayerCount: 2
Fore
SplineSet
1329 1336 m 1,0,-1
 0 1336 l 1,1,-1
 -87 1497 l 1,2,-1
 1630 1497 l 1,3,-1
 1717 1336 l 1,4,-1
 1498 1336 l 1,5,-1
 1498 0 l 1,6,-1
 1323 101 l 1,7,-1
 1325 658 l 1,8,9
 1181 627 1181 627 1089 634 c 1,10,11
 1026 377 1026 377 755 375 c 1,12,13
 454 375 454 375 175 769 c 1,14,-1
 247 832 l 1,15,16
 318 711 318 711 437 623.5 c 128,-1,17
 556 536 556 536 665 536 c 0,18,19
 780 536 780 536 863 605 c 1,20,21
 958 682 958 682 958 815 c 0,22,23
 958 867 958 867 933 911 c 1,24,25
 900 972 900 972 849 972 c 0,26,27
 811 972 811 972 735.5 918.5 c 128,-1,28
 660 865 660 865 619 815 c 1,29,-1
 476 960 l 1,30,31
 591 1075 591 1075 748 1075 c 0,32,33
 891 1075 891 1075 993 990 c 1,34,35
 1081 913 1081 913 1113 794 c 1,36,37
 1273 811 1273 811 1326 839 c 1,38,-1
 1329 1336 l 1,0,-1
EndSplineSet
Validated: 33
EndChar

StartChar: l.tta
Encoding: 2335 2335 78
Width: 1161
GlyphClass: 2
Flags: W
LayerCount: 2
Fore
SplineSet
1248 1336 m 1,0,-1
 944 1336 l 1,1,2
 952 1095 952 1095 952 1004 c 0,3,4
 952 903 952 903 932 867.5 c 128,-1,5
 912 832 912 832 857 815 c 0,6,7
 753 783 753 783 496 734 c 1,8,9
 329 701 329 701 329 533 c 0,10,11
 329 427 329 427 412.5 346.5 c 128,-1,12
 496 266 496 266 602 266 c 0,13,14
 794 266 794 266 1113 416 c 1,15,-1
 1187 260 l 1,16,17
 952 123 952 123 714 123 c 0,18,19
 501 123 501 123 338 282 c 128,-1,20
 175 441 175 441 175 634 c 0,21,22
 175 818 175 818 370 875 c 0,23,24
 493 911 493 911 714 958 c 0,25,26
 752 966 752 966 766 1000.5 c 128,-1,27
 780 1035 780 1035 780 1149 c 0,28,29
 780 1267 780 1267 772 1336 c 1,30,-1
 0 1336 l 1,31,-1
 -87 1497 l 1,32,-1
 1161 1497 l 1,33,-1
 1248 1336 l 1,0,-1
EndSplineSet
Validated: 1
EndChar

StartChar: l.ttha
Encoding: 2336 2336 79
Width: 1313
GlyphClass: 2
Flags: W
LayerCount: 2
Fore
SplineSet
1400 1336 m 1,0,-1
 1053 1336 l 1,1,2
 1119 1243 1119 1243 1119 1113 c 0,3,4
 1119 993 1119 993 977 872 c 1,5,6
 1259 706 1259 706 1259 498 c 0,7,8
 1259 321 1259 321 1111 197.5 c 128,-1,9
 963 74 963 74 783 74 c 0,10,11
 556 74 556 74 364 245 c 128,-1,12
 172 416 172 416 172 640 c 0,13,14
 172 955 172 955 752 955 c 0,15,16
 826 955 826 955 881 1001 c 0,17,18
 946 1056 946 1056 946 1155 c 0,19,20
 946 1256 946 1256 906 1336 c 1,21,-1
 0 1336 l 1,22,-1
 -87 1497 l 1,23,-1
 1313 1497 l 1,24,-1
 1400 1336 l 1,0,-1
1103 553 m 0,25,26
 1103 657 1103 657 1038.5 734.5 c 128,-1,27
 974 812 974 812 872 812 c 0,28,29
 675 812 675 812 522 760 c 0,30,31
 328 694 328 694 326 564 c 1,32,33
 326 400 326 400 438 307 c 1,34,35
 542 218 542 218 711 218 c 0,36,37
 854 218 854 218 978.5 315.5 c 128,-1,38
 1103 413 1103 413 1103 553 c 0,25,26
EndSplineSet
Validated: 1
EndChar

StartChar: l.dda
Encoding: 2337 2337 80
Width: 1496
GlyphClass: 2
Flags: W
LayerCount: 2
Fore
SplineSet
1583 1336 m 1,0,-1
 1204 1336 l 1,1,-1
 1204 1032 l 2,2,3
 1204 972 1204 972 1146 972 c 2,4,-1
 711 972 l 2,5,6
 571 972 571 972 571 846 c 0,7,8
 571 742 571 742 607 708 c 0,9,10
 633 683 633 683 697 682 c 0,11,12
 719 682 719 682 869.5 706.5 c 128,-1,13
 1020 731 1020 731 1067 731 c 0,14,15
 1155 731 1155 731 1228 659 c 0,16,17
 1376 511 1376 511 1376 391 c 0,18,19
 1376 245 1376 245 1264 151 c 128,-1,20
 1152 57 1152 57 992 57 c 0,21,22
 549 57 549 57 169 599 c 1,23,-1
 249 659 l 1,24,25
 430 396 430 396 593 301 c 1,26,27
 731 218 731 218 938 218 c 0,28,29
 1078 218 1078 218 1167 298 c 1,30,31
 1247 367 1247 367 1247 456 c 0,32,33
 1247 571 1247 571 1167 571 c 0,34,35
 1107 571 1107 571 949 546.5 c 128,-1,36
 791 522 791 522 768 522 c 0,37,38
 676 522 676 522 613 571 c 0,39,40
 567 606 567 606 501 697 c 1,41,42
 416 818 416 818 416 917 c 0,43,44
 416 1000 416 1000 476 1066.5 c 128,-1,45
 536 1133 536 1133 631 1133 c 2,46,-1
 1032 1133 l 1,47,-1
 1032 1336 l 1,48,-1
 0 1336 l 1,49,-1
 -87 1497 l 1,50,-1
 1496 1497 l 1,51,-1
 1583 1336 l 1,0,-1
EndSplineSet
Validated: 1
EndChar

StartChar: l.ddha
Encoding: 2338 2338 81
Width: 1325
GlyphClass: 2
Flags: W
LayerCount: 2
Fore
SplineSet
1412 1336 m 1,0,-1
 1084 1336 l 1,1,-1
 1084 1007 l 2,2,3
 1084 949 1084 949 1026 949 c 0,4,5
 881 949 881 949 588 941 c 1,6,7
 328 932 328 932 326 622 c 1,8,9
 326 463 326 463 433 353 c 1,10,11
 531 255 531 255 665 238 c 1,12,13
 608 333 608 333 608 468 c 0,14,15
 608 766 608 766 903 766 c 0,16,17
 1012 766 1012 766 1100 682 c 0,18,19
 1218 570 1218 570 1218 372 c 0,20,21
 1218 227 1218 227 1095 137 c 0,22,23
 986 57 986 57 832 57 c 0,24,25
 662 57 662 57 462 213 c 1,26,27
 172 437 172 437 172 771 c 0,28,29
 172 1070 172 1070 514 1098 c 0,30,31
 651 1109 651 1109 794 1110 c 1,32,-1
 911 1110 l 1,33,-1
 911 1336 l 1,34,-1
 0 1336 l 1,35,-1
 -87 1497 l 1,36,-1
 1325 1497 l 1,37,-1
 1412 1336 l 1,0,-1
1119 454 m 0,38,39
 1119 517 1119 517 1067 561 c 128,-1,40
 1015 605 1015 605 941 605 c 0,41,42
 853 605 853 605 794.5 533.5 c 128,-1,43
 736 462 736 462 736 330 c 0,44,45
 736 295 736 295 742 227 c 1,46,47
 777 218 777 218 791 218 c 0,48,49
 920 218 920 218 1019.5 288 c 128,-1,50
 1119 358 1119 358 1119 454 c 0,38,39
EndSplineSet
Validated: 1
EndChar

StartChar: l.nna
Encoding: 2339 2339 82
Width: 1589
GlyphClass: 2
Flags: W
LayerCount: 2
Fore
SplineSet
1676 1336 m 1,0,-1
 1457 1336 l 1,1,-1
 1457 0 l 1,2,-1
 1282 101 l 1,3,-1
 1288 1336 l 1,4,-1
 952 1336 l 1,5,-1
 952 694 l 2,6,7
 952 594 952 594 868.5 526.5 c 128,-1,8
 785 459 785 459 671 459 c 0,9,10
 567 459 567 459 421 574 c 1,11,12
 263 700 263 700 263 826 c 2,13,-1
 263 1336 l 1,14,-1
 0 1336 l 1,15,-1
 -87 1497 l 1,16,-1
 1589 1497 l 1,17,-1
 1676 1336 l 1,0,-1
780 797 m 2,18,-1
 780 1336 l 1,19,-1
 435 1336 l 1,20,-1
 435 736 l 2,21,22
 435 665 435 665 493 622 c 1,23,24
 539 584 539 584 585 585 c 1,25,26
 780 584 780 584 780 797 c 2,18,-1
EndSplineSet
Validated: 33
EndChar

StartChar: l.ta
Encoding: 2340 2340 83
Width: 1185
GlyphClass: 2
Flags: W
LayerCount: 2
Fore
SplineSet
1272 1336 m 1,0,-1
 1058 1336 l 1,1,-1
 1058 0 l 1,2,-1
 881 101 l 1,3,-1
 892 909 l 1,4,-1
 585 909 l 2,5,6
 328 909 328 909 326 676 c 1,7,8
 326 484 326 484 637 115 c 1,9,-1
 545 41 l 1,10,11
 172 505 172 505 172 774 c 0,12,13
 172 923 172 923 276 1004 c 1,14,15
 358 1070 358 1070 476 1070 c 2,16,-1
 886 1070 l 1,17,-1
 886 1336 l 1,18,-1
 0 1336 l 1,19,-1
 -87 1497 l 1,20,-1
 1185 1497 l 1,21,-1
 1272 1336 l 1,0,-1
EndSplineSet
Validated: 1
EndChar

StartChar: l.tha
Encoding: 2341 2341 84
Width: 1426
GlyphClass: 2
Flags: W
LayerCount: 2
Fore
SplineSet
1513 1336 m 1,0,-1
 1294 1336 l 1,1,-1
 1294 0 l 1,2,-1
 1119 101 l 1,3,-1
 1127 545 l 1,4,5
 1064 482 1064 482 960.5 433 c 128,-1,6
 857 384 857 384 771 384 c 0,7,8
 522 384 522 384 330 568 c 0,9,10
 190 703 190 703 189 728 c 0,11,12
 189 745 189 745 315 794 c 0,13,14
 455 848 455 848 528 909 c 1,15,16
 172 1015 172 1015 172 1224 c 0,17,18
 172 1324 172 1324 241 1417 c 1,19,20
 321 1520 321 1520 444 1519 c 0,21,22
 550 1519 550 1519 679 1439 c 1,23,24
 854 1333 854 1333 854 1152 c 0,25,26
 854 886 854 886 451 682 c 1,27,28
 473 510 473 510 662 511 c 0,29,30
 777 511 777 511 917 596 c 1,31,32
 1040 673 1040 673 1121 777 c 1,33,-1
 1121 1336 l 1,34,-1
 952 1336 l 1,35,-1
 865 1497 l 1,36,-1
 1426 1497 l 1,37,-1
 1513 1336 l 1,0,-1
682 1193 m 0,38,39
 682 1288 682 1288 640.5 1340.5 c 128,-1,40
 599 1393 599 1393 539 1393 c 0,41,42
 470 1393 470 1393 415.5 1340.5 c 128,-1,43
 361 1288 361 1288 361 1218 c 0,44,45
 361 1133 361 1133 431 1068.5 c 128,-1,46
 501 1004 501 1004 602 977 c 1,47,48
 682 1047 682 1047 682 1193 c 0,38,39
EndSplineSet
Validated: 33
EndChar

StartChar: l.da
Encoding: 2342 2342 85
Width: 1190
GlyphClass: 2
Flags: W
LayerCount: 2
Fore
SplineSet
1277 1336 m 1,0,-1
 1037 1336 l 1,1,-1
 1037 1007 l 2,2,3
 1037 958 1037 958 980 958 c 0,4,5
 487 958 487 958 419 900 c 1,6,7
 326 826 326 826 326 694 c 0,8,9
 326 566 326 566 436.5 463.5 c 128,-1,10
 547 361 547 361 706 361 c 0,11,12
 771 361 771 361 805 375 c 1,13,14
 739 468 739 468 739 531 c 0,15,16
 739 610 739 610 820 610 c 0,17,18
 869 610 869 610 963 556 c 0,19,20
 1075 493 1075 493 1075 424 c 0,21,22
 1075 309 1075 309 987 266 c 1,23,24
 1050 134 1050 134 1190 -106 c 1,25,-1
 1092 -161 l 1,26,27
 969 71 969 71 897 221 c 1,28,29
 851 202 851 202 755 200 c 1,30,31
 571 200 571 200 381 375 c 0,32,33
 171 567 171 567 172 809 c 0,34,35
 172 958 172 958 270 1029 c 1,36,37
 388 1117 388 1117 665 1119 c 1,38,-1
 865 1119 l 1,39,-1
 865 1336 l 1,40,-1
 0 1336 l 1,41,-1
 -87 1497 l 1,42,-1
 1190 1497 l 1,43,-1
 1277 1336 l 1,0,-1
EndSplineSet
Validated: 33
EndChar

StartChar: l.dha
Encoding: 2343 2343 86
Width: 1433
GlyphClass: 2
Flags: W
LayerCount: 2
Fore
SplineSet
1520 1336 m 1,0,-1
 1299 1336 l 1,1,-1
 1299 0 l 1,2,-1
 1121 101 l 1,3,-1
 1133 542 l 1,4,5
 944 364 944 364 757 364 c 0,6,7
 599 364 599 364 454 470 c 0,8,9
 295 585 295 585 295 731 c 0,10,11
 295 874 295 874 444 938 c 1,12,13
 295 1033 295 1033 244 1098 c 1,14,15
 172 1183 172 1183 172 1310 c 0,16,17
 172 1406 172 1406 239.5 1471.5 c 128,-1,18
 307 1537 307 1537 399 1537 c 0,19,20
 517 1537 517 1537 592.5 1466.5 c 128,-1,21
 668 1396 668 1396 668 1288 c 0,22,23
 668 1196 668 1196 606.5 1131.5 c 128,-1,24
 545 1067 545 1067 444 1053 c 1,25,26
 487 995 487 995 585 995 c 0,27,28
 599 995 599 995 651 998 c 128,-1,29
 703 1001 703 1001 736 1001 c 0,30,31
 819 1001 819 1001 843 993 c 1,32,33
 911 900 911 900 911 857 c 0,34,35
 911 825 911 825 862 826 c 0,36,37
 825 826 825 826 764 833 c 128,-1,38
 703 840 703 840 673 840 c 0,39,40
 451 840 451 840 451 645 c 0,41,42
 451 566 451 566 519 514 c 0,43,44
 580 468 580 468 657 468 c 0,45,46
 869 468 869 468 1127 745 c 1,47,-1
 1127 1336 l 1,48,-1
 911 1336 l 1,49,-1
 824 1497 l 1,50,-1
 1433 1497 l 1,51,-1
 1520 1336 l 1,0,-1
568 1273 m 0,52,53
 568 1324 568 1324 533 1358.5 c 128,-1,54
 498 1393 498 1393 451 1393 c 0,55,56
 393 1393 393 1393 359.5 1354.5 c 128,-1,57
 326 1316 326 1316 326 1267 c 0,58,59
 326 1175 326 1175 393 1110 c 1,60,61
 568 1124 568 1124 568 1273 c 0,52,53
EndSplineSet
Validated: 1
EndChar

StartChar: l.na
Encoding: 2344 2344 87
Width: 1196
GlyphClass: 2
Flags: W
LayerCount: 2
Fore
SplineSet
1283 1336 m 1,0,-1
 1064 1336 l 1,1,-1
 1064 0 l 1,2,-1
 889 101 l 1,3,-1
 895 797 l 1,4,-1
 514 797 l 2,5,6
 451 797 451 797 451 769 c 2,7,-1
 451 616 l 2,8,9
 451 556 451 556 399 556 c 0,10,11
 361 556 361 556 266.5 696.5 c 128,-1,12
 172 837 172 837 172 875 c 0,13,14
 172 921 172 921 212 939.5 c 128,-1,15
 252 958 252 958 367 958 c 2,16,-1
 895 958 l 1,17,-1
 895 1336 l 1,18,-1
 0 1336 l 1,19,-1
 -87 1497 l 1,20,-1
 1196 1497 l 1,21,-1
 1283 1336 l 1,0,-1
EndSplineSet
Validated: 1
EndChar

StartChar: l.nnna
Encoding: 2345 2345 88
Width: 1196
GlyphClass: 2
Flags: W
LayerCount: 2
Fore
SplineSet
1283 1336 m 1,0,-1
 1064 1336 l 1,1,-1
 1064 0 l 1,2,-1
 889 101 l 1,3,-1
 895 797 l 1,4,-1
 514 797 l 2,5,6
 451 797 451 797 451 769 c 2,7,-1
 451 616 l 2,8,9
 451 556 451 556 399 556 c 0,10,11
 361 556 361 556 266.5 696.5 c 128,-1,12
 172 837 172 837 172 875 c 0,13,14
 172 921 172 921 212 939.5 c 128,-1,15
 252 958 252 958 367 958 c 2,16,-1
 895 958 l 1,17,-1
 895 1336 l 1,18,-1
 0 1336 l 1,19,-1
 -87 1497 l 1,20,-1
 1196 1497 l 1,21,-1
 1283 1336 l 1,0,-1
578 164 m 1,22,-1
 412 -4 l 1,23,-1
 246 164 l 1,24,-1
 412 330 l 1,25,-1
 578 164 l 1,22,-1
EndSplineSet
Validated: 1
Ligature2: "'nukt' Nukta Forms in Devanagari lookup 0 subtable" l.na s.nukta
EndChar

StartChar: l.pa
Encoding: 2346 2346 89
Width: 1210
GlyphClass: 2
Flags: W
LayerCount: 2
Fore
SplineSet
1297 1336 m 1,0,-1
 1078 1336 l 1,1,-1
 1078 0 l 1,2,-1
 900 101 l 1,3,-1
 912 574 l 1,4,5
 794 511 794 511 674 511 c 0,6,7
 570 511 570 511 424 624 c 1,8,9
 266 750 266 750 266 878 c 2,10,-1
 266 1336 l 1,11,-1
 0 1336 l 1,12,-1
 -87 1497 l 1,13,-1
 1210 1497 l 1,14,-1
 1297 1336 l 1,0,-1
906 771 m 1,15,-1
 906 1336 l 1,16,-1
 438 1336 l 1,17,-1
 438 872 l 2,18,19
 438 654 438 654 591 654 c 0,20,21
 711 654 711 654 906 771 c 1,15,-1
EndSplineSet
Validated: 1
EndChar

StartChar: l.pha
Encoding: 2347 2347 90
Width: 1798
GlyphClass: 2
Flags: W
AnchorPoint: "Anchor-0" 862 1731 basechar 0
LayerCount: 2
Fore
SplineSet
1885 1336 m 1,0,-1
 1059 1336 l 1,1,-1
 1059 860 l 1,2,3
 1248 1012 1248 1012 1396 1012 c 0,4,5
 1500 1012 1500 1012 1595 911 c 1,6,7
 1712 783 1712 783 1712 568 c 0,8,9
 1712 416 1712 416 1560 181 c 1,10,-1
 1414 312 l 1,11,12
 1582 539 1582 539 1582 711 c 0,13,14
 1582 774 1582 774 1541 812.5 c 128,-1,15
 1500 851 1500 851 1439 851 c 0,16,17
 1385 851 1385 851 1264.5 791 c 128,-1,18
 1144 731 1144 731 1059 657 c 1,19,-1
 1059 0 l 1,20,-1
 881 101 l 1,21,-1
 892 574 l 1,22,23
 760 511 760 511 674 511 c 0,24,25
 570 511 570 511 424 624 c 1,26,27
 266 750 266 750 266 878 c 2,28,-1
 266 1336 l 1,29,-1
 0 1336 l 1,30,-1
 -87 1497 l 1,31,-1
 1798 1497 l 1,32,-1
 1885 1336 l 1,0,-1
886 771 m 1,33,-1
 886 1336 l 1,34,-1
 438 1336 l 1,35,-1
 438 872 l 2,36,37
 438 654 438 654 591 654 c 0,38,39
 734 654 734 654 886 771 c 1,33,-1
EndSplineSet
Validated: 1
EndChar

StartChar: l.ba
Encoding: 2348 2348 91
Width: 1359
GlyphClass: 2
Flags: W
LayerCount: 2
Fore
SplineSet
1446 1336 m 1,0,-1
 1228 1336 l 1,1,-1
 1228 0 l 1,2,-1
 1050 101 l 1,3,-1
 1061 553 l 1,4,-1
 1053 553 l 1,5,6
 904 361 904 361 659 361 c 0,7,8
 454 361 454 361 309 501 c 1,9,10
 172 630 172 630 172 788 c 0,11,12
 172 906 172 906 281 1004 c 0,13,14
 407 1116 407 1116 622 1116 c 0,15,16
 868 1116 868 1116 1050 860 c 1,17,-1
 1056 860 l 1,18,-1
 1056 1336 l 1,19,-1
 0 1336 l 1,20,-1
 -87 1497 l 1,21,-1
 1359 1497 l 1,22,-1
 1446 1336 l 1,0,-1
952 749 m 0,23,24
 952 869 952 869 878 935 c 0,25,26
 815 990 815 990 731 990 c 0,27,28
 638 990 638 990 553 960 c 1,29,-1
 809 561 l 1,30,31
 952 634 952 634 952 749 c 0,23,24
725 519 m 1,32,-1
 470 917 l 1,33,34
 421 892 421 892 378 832 c 1,35,36
 326 757 326 757 326 689 c 0,37,38
 326 489 326 489 559 487 c 0,39,40
 648 487 648 487 725 519 c 1,32,-1
EndSplineSet
Validated: 1
EndChar

StartChar: l.bha
Encoding: 2349 2349 92
Width: 1477
GlyphClass: 2
Flags: W
LayerCount: 2
Fore
SplineSet
1564 1336 m 1,0,-1
 1348 1336 l 1,1,-1
 1348 0 l 1,2,-1
 1170 101 l 1,3,-1
 1176 624 l 1,4,-1
 728 624 l 1,5,-1
 728 479 l 2,6,7
 728 430 728 430 676 430 c 0,8,9
 641 430 641 430 508 544.5 c 128,-1,10
 375 659 375 659 375 706 c 0,11,12
 375 769 375 769 430 769 c 2,13,-1
 556 769 l 1,14,-1
 564 932 l 1,15,16
 171 1047 171 1047 172 1278 c 0,17,18
 172 1373 172 1373 221 1439 c 0,19,20
 281 1519 281 1519 399 1519 c 0,21,22
 539 1519 539 1519 624 1422 c 1,23,24
 728 1308 728 1308 728 1081 c 2,25,-1
 728 769 l 1,26,-1
 1176 769 l 1,27,-1
 1176 1336 l 1,28,-1
 960 1336 l 1,29,-1
 875 1497 l 1,30,-1
 1477 1497 l 1,31,-1
 1564 1336 l 1,0,-1
585 1204 m 0,32,33
 585 1393 585 1393 465 1393 c 0,34,35
 410 1393 410 1393 377 1346 c 128,-1,36
 344 1299 344 1299 344 1242 c 0,37,38
 344 1162 344 1162 421 1100 c 1,39,40
 490 1043 490 1043 577 1035 c 1,41,42
 585 1121 585 1121 585 1204 c 0,32,33
EndSplineSet
Validated: 33
EndChar

StartChar: l.ma
Encoding: 2350 2350 93
Width: 1352
GlyphClass: 2
Flags: W
LayerCount: 2
Fore
SplineSet
1439 1336 m 1,0,-1
 1218 1336 l 1,1,-1
 1218 0 l 1,2,-1
 1040 101 l 1,3,-1
 1047 608 l 1,4,-1
 525 608 l 1,5,-1
 525 476 l 2,6,7
 525 405 525 405 468 405 c 0,8,9
 427 405 427 405 299.5 538 c 128,-1,10
 172 671 172 671 172 706 c 0,11,12
 172 769 172 769 227 769 c 2,13,-1
 353 769 l 1,14,-1
 353 1336 l 1,15,-1
 0 1336 l 1,16,-1
 -87 1497 l 1,17,-1
 1352 1497 l 1,18,-1
 1439 1336 l 1,0,-1
1047 769 m 1,19,-1
 1047 1336 l 1,20,-1
 525 1336 l 1,21,-1
 525 769 l 1,22,-1
 1047 769 l 1,19,-1
EndSplineSet
Validated: 1
EndChar

StartChar: l.ya
Encoding: 2351 2351 94
Width: 1324
GlyphClass: 2
Flags: W
LayerCount: 2
Fore
SplineSet
1411 1336 m 1,0,-1
 1193 1336 l 1,1,-1
 1193 0 l 1,2,-1
 1015 101 l 1,3,-1
 1026 577 l 1,4,5
 881 437 881 437 717 435 c 1,6,7
 295 435 295 435 172 906 c 1,8,9
 339 938 339 938 437.5 1002.5 c 128,-1,10
 536 1067 536 1067 536 1147 c 0,11,12
 536 1193 536 1193 456 1336 c 1,13,-1
 0 1336 l 1,14,-1
 -87 1497 l 1,15,-1
 1324 1497 l 1,16,-1
 1411 1336 l 1,0,-1
1021 780 m 1,17,-1
 1021 1336 l 1,18,-1
 588 1336 l 1,19,20
 692 1141 692 1141 692 1043 c 0,21,22
 692 882 692 882 370 777 c 1,23,24
 370 561 370 561 561 561 c 0,25,26
 757 561 757 561 1021 780 c 1,17,-1
EndSplineSet
Validated: 1
EndChar

StartChar: l.ra
Encoding: 2352 2352 95
Width: 895
GlyphClass: 2
Flags: W
LayerCount: 2
Fore
SplineSet
982 1336 m 1,0,-1
 640 1336 l 1,1,-1
 640 843 l 2,2,3
 640 783 640 783 608.5 722.5 c 128,-1,4
 577 662 577 662 539 640 c 1,5,6
 451 582 451 582 451 556 c 0,7,8
 451 539 451 539 911 71 c 1,9,-1
 834 -20 l 1,10,11
 493 333 493 333 298 571 c 1,12,13
 172 727 172 727 172 791 c 0,14,15
 172 826 172 826 198 857.5 c 128,-1,16
 224 889 224 889 252 889 c 0,17,18
 263 889 263 889 338 847 c 128,-1,19
 413 805 413 805 430 805 c 0,20,21
 468 805 468 805 468 1163 c 0,22,23
 468 1226 468 1226 456 1336 c 1,24,-1
 0 1336 l 1,25,-1
 -87 1497 l 1,26,-1
 895 1497 l 1,27,-1
 982 1336 l 1,0,-1
EndSplineSet
Validated: 1
EndChar

StartChar: l.rra
Encoding: 2353 2353 96
Width: 895
GlyphClass: 2
Flags: W
LayerCount: 2
Fore
SplineSet
332 -130 m 1,0,-1
 166 37 l 1,1,-1
 332 203 l 1,2,-1
 499 37 l 1,3,-1
 332 -130 l 1,0,-1
982 1336 m 1,4,-1
 640 1336 l 1,5,-1
 640 843 l 2,6,7
 640 783 640 783 608.5 722.5 c 128,-1,8
 577 662 577 662 539 640 c 1,9,10
 451 582 451 582 451 556 c 0,11,12
 451 539 451 539 911 71 c 1,13,-1
 834 -20 l 1,14,15
 493 333 493 333 298 571 c 1,16,17
 172 727 172 727 172 791 c 0,18,19
 172 826 172 826 198 857.5 c 128,-1,20
 224 889 224 889 252 889 c 0,21,22
 263 889 263 889 338 847 c 128,-1,23
 413 805 413 805 430 805 c 0,24,25
 468 805 468 805 468 1163 c 0,26,27
 468 1226 468 1226 456 1336 c 1,28,-1
 0 1336 l 1,29,-1
 -87 1497 l 1,30,-1
 895 1497 l 1,31,-1
 982 1336 l 1,4,-1
EndSplineSet
Validated: 1
EndChar

StartChar: l.la
Encoding: 2354 2354 97
Width: 1620
GlyphClass: 2
Flags: W
LayerCount: 2
Fore
SplineSet
1707 1336 m 1,0,-1
 1488 1336 l 1,1,-1
 1488 0 l 1,2,-1
 1310 101 l 1,3,-1
 1321 865 l 1,4,5
 1258 914 1258 914 1193 914 c 0,6,7
 1104 914 1104 914 1034 848 c 1,8,9
 957 777 957 777 854 580 c 1,10,-1
 722 673 l 1,11,12
 745 720 745 720 791 794 c 1,13,14
 753 851 753 851 687 900 c 128,-1,15
 621 949 621 949 574 949 c 0,16,17
 488 949 488 949 421 889 c 0,18,19
 341 818 341 818 341 692 c 0,20,21
 341 533 341 533 435 405 c 0,22,23
 556 241 556 241 859 66 c 1,24,-1
 788 -20 l 1,25,26
 169 382 169 382 169 766 c 0,27,28
 169 886 169 886 246 987 c 1,29,30
 334 1110 334 1110 484 1110 c 0,31,32
 610 1110 610 1110 682 1037 c 0,33,34
 764 955 764 955 834 872 c 1,35,36
 971 1058 971 1058 1113 1058 c 0,37,38
 1211 1058 1211 1058 1316 969 c 1,39,-1
 1316 1336 l 1,40,-1
 0 1336 l 1,41,-1
 -87 1497 l 1,42,-1
 1620 1497 l 1,43,-1
 1707 1336 l 1,0,-1
EndSplineSet
Validated: 1
EndChar

StartChar: l.lla
Encoding: 2355 2355 98
Width: 1729
GlyphClass: 2
Flags: W
LayerCount: 2
Fore
SplineSet
1816 1336 m 1,0,-1
 1488 1336 l 1,1,-1
 1488 969 l 1,2,3
 1560 920 1560 920 1612 832 c 0,4,5
 1675 725 1675 725 1675 602 c 0,6,7
 1675 441 1675 441 1550 312 c 128,-1,8
 1425 183 1425 183 1273 183 c 0,9,10
 1112 183 1112 183 933 378 c 1,11,12
 856 269 856 269 778 220.5 c 128,-1,13
 700 172 700 172 577 172 c 0,14,15
 431 172 431 172 310 290 c 0,16,17
 175 421 175 421 175 610 c 0,18,19
 175 777 175 777 287 897.5 c 128,-1,20
 399 1018 399 1018 567 1018 c 0,21,22
 682 1018 682 1018 760 974 c 1,23,24
 856 895 856 895 933 797 c 1,25,26
 1050 1035 1050 1035 1316 1032 c 1,27,-1
 1316 1336 l 1,28,-1
 0 1336 l 1,29,-1
 -87 1497 l 1,30,-1
 1729 1497 l 1,31,-1
 1816 1336 l 1,0,-1
1546 706 m 0,32,33
 1546 798 1546 798 1487 854.5 c 128,-1,34
 1428 911 1428 911 1333 911 c 0,35,36
 1136 911 1136 911 972 456 c 1,37,38
 1064 328 1064 328 1201 326 c 1,39,40
 1322 326 1322 326 1434 438 c 128,-1,41
 1546 550 1546 550 1546 706 c 0,32,33
895 714 m 1,42,43
 809 875 809 875 637 875 c 0,44,45
 508 875 508 875 406 763 c 128,-1,46
 304 651 304 651 304 522 c 0,47,48
 304 298 304 298 514 298 c 0,49,50
 629 298 629 298 700 370 c 1,51,52
 788 456 788 456 895 714 c 1,42,43
EndSplineSet
Validated: 33
EndChar

StartChar: l.llla
Encoding: 2356 2356 99
Width: 1729
GlyphClass: 2
Flags: W
LayerCount: 2
Fore
SplineSet
942 -200 m 1,0,-1
 776 -33 l 1,1,-1
 942 133 l 1,2,-1
 1109 -33 l 1,3,-1
 942 -200 l 1,0,-1
1816 1336 m 1,4,-1
 1488 1336 l 1,5,-1
 1488 969 l 1,6,7
 1560 920 1560 920 1612 832 c 0,8,9
 1675 725 1675 725 1675 602 c 0,10,11
 1675 441 1675 441 1550 312 c 128,-1,12
 1425 183 1425 183 1273 183 c 0,13,14
 1112 183 1112 183 933 378 c 1,15,16
 856 269 856 269 778 220.5 c 128,-1,17
 700 172 700 172 577 172 c 0,18,19
 431 172 431 172 310 290 c 0,20,21
 175 421 175 421 175 610 c 0,22,23
 175 777 175 777 287 897.5 c 128,-1,24
 399 1018 399 1018 567 1018 c 0,25,26
 682 1018 682 1018 760 974 c 1,27,28
 856 895 856 895 933 797 c 1,29,30
 1050 1035 1050 1035 1316 1032 c 1,31,-1
 1316 1336 l 1,32,-1
 0 1336 l 1,33,-1
 -87 1497 l 1,34,-1
 1729 1497 l 1,35,-1
 1816 1336 l 1,4,-1
1546 706 m 0,36,37
 1546 798 1546 798 1487 854.5 c 128,-1,38
 1428 911 1428 911 1333 911 c 0,39,40
 1136 911 1136 911 972 456 c 1,41,42
 1064 328 1064 328 1201 326 c 1,43,44
 1322 326 1322 326 1434 438 c 128,-1,45
 1546 550 1546 550 1546 706 c 0,36,37
895 714 m 1,46,47
 809 875 809 875 637 875 c 0,48,49
 508 875 508 875 406 763 c 128,-1,50
 304 651 304 651 304 522 c 0,51,52
 304 298 304 298 514 298 c 0,53,54
 629 298 629 298 700 370 c 1,55,56
 788 456 788 456 895 714 c 1,46,47
EndSplineSet
Validated: 33
Ligature2: "'nukt' Nukta Forms in Devanagari lookup 0 subtable" l.lla s.nukta
EndChar

StartChar: l.va
Encoding: 2357 2357 100
Width: 1341
GlyphClass: 2
Flags: W
LayerCount: 2
Fore
SplineSet
1428 1336 m 1,0,-1
 1207 1336 l 1,1,-1
 1207 0 l 1,2,-1
 1029 101 l 1,3,-1
 1040 559 l 1,4,5
 825 372 825 372 616 372 c 0,6,7
 470 372 470 372 330 490 c 0,8,9
 172 622 172 622 172 802 c 0,10,11
 172 937 172 937 260 1023 c 1,12,13
 367 1130 367 1130 574 1130 c 0,14,15
 743 1130 743 1130 832 1075 c 0,16,17
 911 1026 911 1026 1029 865 c 1,18,-1
 1035 865 l 1,19,-1
 1035 1336 l 1,20,-1
 0 1336 l 1,21,-1
 -87 1497 l 1,22,-1
 1341 1497 l 1,23,-1
 1428 1336 l 1,0,-1
1032 780 m 1,24,25
 829 969 829 969 631 969 c 0,26,27
 491 969 491 969 408.5 899 c 128,-1,28
 326 829 326 829 326 739 c 0,29,30
 326 498 326 498 553 498 c 0,31,32
 654 498 654 498 789.5 578.5 c 128,-1,33
 925 659 925 659 1032 780 c 1,24,25
EndSplineSet
Validated: 1
EndChar

StartChar: l.sha
Encoding: 2358 2358 101
Width: 1582
GlyphClass: 2
Flags: W
LayerCount: 2
Fore
SplineSet
1281 1336 m 1,0,-1
 837 1336 l 1,1,2
 972 1152 972 1152 972 1018 c 0,3,4
 972 648 972 648 556 441 c 1,5,-1
 886 28 l 1,6,-1
 772 -60 l 1,7,-1
 501 347 l 2,8,9
 459 410 459 410 354 422 c 0,10,11
 251 433 251 433 203 522 c 0,12,13
 175 574 175 574 175 634 c 0,14,15
 175 741 175 741 293 736 c 0,16,17
 336 734 336 734 450 580 c 1,18,19
 641 640 641 640 745 812 c 1,20,21
 255 941 255 941 255 1198 c 0,22,23
 255 1267 255 1267 304 1336 c 1,24,-1
 0 1336 l 1,25,-1
 -87 1497 l 1,26,-1
 1582 1497 l 1,27,-1
 1669 1336 l 1,28,-1
 1450 1336 l 1,29,-1
 1450 0 l 1,30,-1
 1275 101 l 1,31,-1
 1281 1336 l 1,0,-1
800 1050 m 0,32,33
 800 1203 800 1203 742 1291 c 1,34,35
 688 1371 688 1371 599 1371 c 0,36,37
 511 1371 511 1371 471 1288 c 0,38,39
 445 1233 445 1233 444 1170 c 1,40,41
 444 981 444 981 774 895 c 1,42,43
 800 979 800 979 800 1050 c 0,32,33
EndSplineSet
Validated: 33
EndChar

StartChar: l.ssa
Encoding: 2359 2359 102
Width: 1242
GlyphClass: 2
Flags: W
LayerCount: 2
Fore
SplineSet
1329 1336 m 1,0,-1
 1110 1336 l 1,1,-1
 1110 0 l 1,2,-1
 932 101 l 1,3,-1
 943 564 l 1,4,5
 777 438 777 438 634 438 c 0,6,7
 530 438 530 438 404 542 c 1,8,9
 262 657 262 657 260 799 c 1,10,-1
 260 1336 l 1,11,-1
 0 1336 l 1,12,-1
 -87 1497 l 1,13,-1
 1242 1497 l 1,14,-1
 1329 1336 l 1,0,-1
938 818 m 1,15,-1
 938 1336 l 1,16,-1
 416 1336 l 1,17,-1
 938 818 l 1,15,-1
897 739 m 1,18,-1
 432 1201 l 1,19,-1
 432 745 l 2,20,21
 432 564 432 564 556 564 c 0,22,23
 654 564 654 564 757 624 c 0,24,25
 843 673 843 673 897 739 c 1,18,-1
EndSplineSet
Validated: 1
EndChar

StartChar: l.sa
Encoding: 2360 2360 103
Width: 1497
GlyphClass: 2
Flags: W
LayerCount: 2
Fore
SplineSet
1584 1336 m 1,0,-1
 1365 1336 l 1,1,-1
 1365 0 l 1,2,-1
 1187 101 l 1,3,-1
 1198 640 l 1,4,5
 1050 588 1050 588 972 588 c 0,6,7
 780 588 780 588 634 742 c 1,8,9
 588 693 588 693 504 622 c 1,10,11
 419 578 419 578 419 556 c 0,12,13
 419 547 419 547 872 80 c 1,14,-1
 791 0 l 1,15,16
 413 421 413 421 307 556 c 1,17,18
 172 722 172 722 172 791 c 0,19,20
 172 826 172 826 198 857.5 c 128,-1,21
 224 889 224 889 252 889 c 0,22,23
 263 889 263 889 338 847 c 128,-1,24
 413 805 413 805 430 805 c 0,25,26
 468 805 468 805 468 1163 c 0,27,28
 468 1226 468 1226 456 1336 c 1,29,-1
 0 1336 l 1,30,-1
 -87 1497 l 1,31,-1
 1497 1497 l 1,32,-1
 1584 1336 l 1,0,-1
1193 854 m 1,33,-1
 1193 1336 l 1,34,-1
 640 1336 l 1,35,-1
 640 843 l 1,36,37
 801 748 801 748 917 749 c 1,38,39
 1056 748 1056 748 1193 854 c 1,33,-1
EndSplineSet
Validated: 33
EndChar

StartChar: l.ha
Encoding: 2361 2361 104
Width: 1214
GlyphClass: 2
Flags: W
LayerCount: 2
Fore
SplineSet
1301 1336 m 1,0,-1
 983 1336 l 1,1,-1
 983 1037 l 2,2,3
 983 980 983 980 930 980 c 2,4,-1
 427 980 l 2,5,6
 384 980 384 980 344 947 c 128,-1,7
 304 914 304 914 304 865 c 0,8,9
 304 780 304 780 399 714 c 1,10,11
 531 806 531 806 720 805 c 0,12,13
 837 805 837 805 963 700 c 1,14,15
 1098 585 1098 585 1098 465 c 0,16,17
 1098 273 1098 273 854 203 c 1,18,-1
 760 350 l 1,19,20
 944 385 944 385 944 519 c 0,21,22
 944 585 944 585 886.5 632 c 128,-1,23
 829 679 829 679 766 679 c 0,24,25
 618 679 618 679 510 568 c 0,26,27
 415 470 415 470 416 367 c 1,28,29
 416 258 416 258 562 134 c 1,30,31
 723 0 723 0 993 -88 c 1,32,-1
 972 -155 l 1,33,34
 674 -87 674 -87 473 55 c 1,35,36
 238 218 238 218 238 413 c 0,37,38
 238 550 238 550 336 648 c 1,39,40
 175 809 175 809 175 932 c 0,41,42
 175 1142 175 1142 394 1141 c 1,43,-1
 812 1141 l 1,44,-1
 812 1336 l 1,45,-1
 0 1336 l 1,46,-1
 -87 1497 l 1,47,-1
 1214 1497 l 1,48,-1
 1301 1336 l 1,0,-1
EndSplineSet
Validated: 33
EndChar

StartChar: uni093A
Encoding: 2362 2362 105
Width: 0
GlyphClass: 2
Flags: W
LayerCount: 2
Fore
SplineSet
-304 1460 m 1,0,-1
 -304 1899 l 1,1,-1
 -132 1899 l 1,2,-1
 -132 1480 l 1,3,-1
 -178 1480 l 1,4,-1
 -304 1460 l 1,0,-1
EndSplineSet
Validated: 1
EndChar

StartChar: uni093B
Encoding: 2363 2363 106
Width: 522
GlyphClass: 2
Flags: W
LayerCount: 2
Fore
SplineSet
221 1461 m 1,0,-1
 221 1899 l 1,1,-1
 393 1899 l 1,2,-1
 393 1480 l 1,3,-1
 347 1480 l 1,4,-1
 221 1461 l 1,0,-1
609 1336 m 1,5,-1
 390 1336 l 1,6,-1
 390 0 l 1,7,-1
 215 101 l 1,8,-1
 221 1336 l 1,9,-1
 0 1336 l 1,10,-1
 -87 1497 l 1,11,-1
 522 1497 l 1,12,-1
 609 1336 l 1,5,-1
EndSplineSet
Validated: 5
EndChar

StartChar: s.nukta
Encoding: 2364 2364 107
Width: 0
GlyphClass: 4
Flags: W
LayerCount: 2
Fore
SplineSet
-695 -240 m 1,0,-1
 -879 -424 l 1,1,-1
 -1065 -236 l 1,2,-1
 -881 -53 l 1,3,-1
 -695 -240 l 1,0,-1
EndSplineSet
Validated: 1
EndChar

StartChar: s.avagraha
Encoding: 2365 2365 108
Width: 1215
GlyphClass: 2
Flags: W
LayerCount: 2
Fore
SplineSet
1058 1336 m 1,0,-1
 591 1336 l 2,1,2
 511 1336 511 1336 511 1247 c 0,3,4
 511 1190 511 1190 739 987 c 0,5,6
 1029 729 1029 729 1029 528 c 0,7,8
 1029 391 1029 391 923 279 c 0,9,10
 808 158 808 158 651 158 c 0,11,12
 505 158 505 158 350 298 c 1,13,14
 232 402 232 402 175 511 c 1,15,-1
 249 564 l 1,16,17
 356 419 356 419 426 368.5 c 128,-1,18
 496 318 496 318 594 318 c 0,19,20
 682 318 682 318 763 386 c 0,21,22
 858 466 858 466 857 591 c 1,23,24
 857 739 857 739 643 941 c 0,25,26
 322 1242 322 1242 321 1324 c 0,27,28
 321 1382 321 1382 381 1439.5 c 128,-1,29
 441 1497 441 1497 525 1497 c 2,30,-1
 972 1497 l 1,31,-1
 1058 1336 l 1,0,-1
EndSplineSet
Validated: 33
EndChar

StartChar: vs.aa
Encoding: 2366 2366 109
Width: 522
GlyphClass: 4
Flags: W
AnchorPoint: "Anchor-0" 233 1731 basechar 0
LayerCount: 2
Fore
SplineSet
609 1336 m 1,0,-1
 390 1336 l 1,1,-1
 390 0 l 1,2,-1
 215 101 l 1,3,-1
 221 1336 l 1,4,-1
 0 1336 l 1,5,-1
 -87 1497 l 1,6,-1
 522 1497 l 1,7,-1
 609 1336 l 1,0,-1
EndSplineSet
Validated: 1
EndChar

StartChar: vs.i
Encoding: 2367 2367 110
Width: 623
GlyphClass: 4
Flags: W
LayerCount: 2
Fore
SplineSet
1228 1663 m 1,0,1
 902 1921 902 1921 659 1921 c 0,2,3
 525 1921 525 1921 434.5 1829 c 128,-1,4
 344 1737 344 1737 344 1634 c 0,5,6
 344 1546 344 1546 370 1497 c 1,7,-1
 623 1497 l 1,8,-1
 710 1336 l 1,9,-1
 438 1336 l 1,10,-1
 438 0 l 1,11,-1
 263 101 l 1,12,-1
 270 1336 l 1,13,-1
 0 1336 l 1,14,-1
 -87 1497 l 1,15,-1
 281 1497 l 1,16,17
 193 1617 193 1617 192 1729 c 0,18,19
 192 1838 192 1838 276 1935 c 1,20,21
 382 2064 382 2064 568 2065 c 0,22,23
 700 2065 700 2065 897 1973 c 0,24,25
 1086 1884 1086 1884 1228 1767 c 1,26,-1
 1228 1663 l 1,0,1
EndSplineSet
Validated: 1
EndChar

StartChar: vs.ii
Encoding: 2368 2368 111
Width: 619
GlyphClass: 4
Flags: W
LayerCount: 2
Fore
SplineSet
706 1336 m 1,0,-1
 438 1336 l 1,1,-1
 438 0 l 1,2,-1
 263 101 l 1,3,-1
 270 1336 l 1,4,-1
 0 1336 l 1,5,-1
 -87 1497 l 1,6,-1
 307 1497 l 1,7,8
 274 1726 274 1726 169 1844 c 0,9,10
 74 1950 74 1950 -52 1950 c 0,11,12
 -235 1950 -235 1950 -227 1677 c 1,13,-1
 -290 1655 l 1,14,15
 -307 1672 -307 1672 -331.5 1728 c 128,-1,16
 -356 1784 -356 1784 -356 1824 c 0,17,18
 -356 1956 -356 1956 -272.5 2033 c 128,-1,19
 -189 2110 -189 2110 -60 2110 c 0,20,21
 106 2110 106 2110 224 1961 c 1,22,23
 353 1800 353 1800 393 1497 c 1,24,-1
 619 1497 l 1,25,-1
 706 1336 l 1,0,-1
EndSplineSet
Validated: 33
EndChar

StartChar: vs.u
Encoding: 2369 2369 112
Width: 0
GlyphClass: 4
Flags: W
LayerCount: 2
Fore
SplineSet
118 -263 m 0,0,1
 118 -367 118 -367 41 -451 c 1,2,3
 -52 -546 -52 -546 -206 -545 c 1,4,5
 -561 -545 -561 -545 -993 -169 c 1,6,-1
 -938 -98 l 1,7,8
 -732 -279 -732 -279 -597 -340.5 c 128,-1,9
 -462 -402 -462 -402 -273 -402 c 0,10,11
 -164 -402 -164 -402 -83 -330 c 0,12,13
 -11 -265 -11 -265 -11 -195 c 0,14,15
 -11 -97 -11 -97 -143 -71 c 1,16,17
 -252 -192 -252 -192 -298 -192 c 0,18,19
 -321 -192 -321 -192 -375.5 -127.5 c 128,-1,20
 -430 -63 -430 -63 -430 -35 c 0,21,22
 -430 -15 -430 -15 -371 14 c 128,-1,23
 -312 43 -312 43 -241 43 c 0,24,25
 -98 43 -98 43 10 -48.5 c 128,-1,26
 118 -140 118 -140 118 -263 c 0,0,1
EndSplineSet
Validated: 33
EndChar

StartChar: vs.uu
Encoding: 2370 2370 113
Width: 0
GlyphClass: 4
Flags: W
LayerCount: 2
Fore
SplineSet
487 -547 m 1,0,-1
 421 -619 l 1,1,2
 109 -293 109 -293 3 -206 c 1,3,4
 -132 -99 -132 -99 -249 -101 c 1,5,6
 -309 -101 -309 -101 -361 -155.5 c 128,-1,7
 -413 -210 -413 -210 -413 -304 c 0,8,9
 -413 -419 -413 -419 -304 -419 c 256,10,11
 -195 -419 -195 -419 -69 -321 c 1,12,-1
 20 -462 l 1,13,14
 -112 -539 -112 -539 -244 -533 c 0,15,16
 -347 -528 -347 -528 -444.5 -430.5 c 128,-1,17
 -542 -333 -542 -333 -542 -238 c 0,18,19
 -542 -106 -542 -106 -454 -28 c 1,20,21
 -377 43 -377 43 -270 43 c 0,22,23
 -175 43 -175 43 -46 -59 c 128,-1,24
 83 -161 83 -161 487 -547 c 1,0,-1
EndSplineSet
Validated: 33
EndChar

StartChar: vs.vr
Encoding: 2371 2371 114
Width: 0
GlyphClass: 4
Flags: W
LayerCount: 2
Fore
SplineSet
8 -487 m 1,0,1
 -71 -522 -71 -522 -232 -522 c 0,2,3
 -424 -522 -424 -522 -545 -399 c 1,4,5
 -640 -304 -640 -304 -640 -213 c 0,6,7
 -640 -84 -640 -84 -531 -22 c 0,8,9
 -468 13 -468 13 -263 43 c 1,10,-1
 -104 -92 l 1,11,12
 -246 -104 -246 -104 -367 -140 c 0,13,14
 -510 -183 -510 -183 -511 -279 c 1,15,16
 -511 -379 -511 -379 -356 -378 c 0,17,18
 -232 -378 -232 -378 -95 -326 c 1,19,-1
 8 -487 l 1,0,1
EndSplineSet
Validated: 33
EndChar

StartChar: vs.vrr
Encoding: 2372 2372 115
Width: 0
GlyphClass: 4
Flags: W
LayerCount: 2
Fore
SplineSet
165 -762 m 1,0,1
 122 -787 122 -787 90 -799 c 0,2,3
 -6 -838 -6 -838 -99 -838 c 0,4,5
 -228 -838 -228 -838 -324 -775 c 1,6,7
 -441 -703 -441 -703 -441 -580 c 0,8,9
 -441 -523 -441 -523 -398 -463 c 1,10,11
 -386 -443 -386 -443 -355 -418 c 1,12,13
 -406 -398 -406 -398 -427 -381 c 0,14,15
 -505 -320 -505 -320 -504 -222 c 1,16,17
 -504 -85 -504 -85 -320 -33 c 1,18,19
 -261 -21 -261 -21 -138 -17 c 1,20,-1
 -102 -122 l 1,21,22
 -112 -107 -112 -107 -230 -134 c 1,23,24
 -353 -159 -353 -159 -353 -242 c 0,25,26
 -353 -291 -353 -291 -304 -332 c 0,27,28
 -292 -342 -292 -342 -252 -357 c 1,29,30
 -240 -349 -240 -349 -230 -349 c 1,31,32
 -160 -333 -160 -333 -115 -332 c 0,33,34
 -80 -332 -80 -332 -52 -334 c 0,35,36
 -21 -336 -21 -336 6 -345 c 1,37,-1
 57 -463 l 1,38,39
 24 -457 24 -457 12 -457 c 1,40,41
 -66 -445 -66 -445 -83 -443 c 1,42,43
 -161 -443 -161 -443 -218 -476 c 1,44,45
 -281 -507 -281 -507 -281 -582 c 0,46,47
 -281 -723 -281 -723 -103 -723 c 0,48,49
 -50 -723 -50 -723 26 -680 c 1,50,51
 51 -672 51 -672 94 -644 c 1,52,-1
 165 -762 l 1,0,1
-211 -145 m 2,53,54
 -211 -143 -211 -143 -212 -142 c 2,55,-1
 -211 -145 l 2,53,54
EndSplineSet
Validated: 41
EndChar

StartChar: vs.chandrae
Encoding: 2373 2373 116
Width: 0
GlyphClass: 4
Flags: W
AnchorPoint: "Anchor-0" -394 1731 mark 0
LayerCount: 2
Fore
SplineSet
117 1924 m 1,0,1
 74 1809 74 1809 -40 1727.5 c 128,-1,2
 -154 1646 -154 1646 -269 1646 c 0,3,4
 -415 1646 -415 1646 -548 1754 c 1,5,6
 -660 1847 -660 1847 -725 1984 c 1,7,-1
 -657 2019 l 1,8,9
 -504 1789 -504 1789 -332 1789 c 0,10,11
 -226 1789 -226 1789 -135 1880 c 1,12,13
 -69 1949 -69 1949 -31 2044 c 1,14,-1
 117 1924 l 1,0,1
EndSplineSet
Validated: 1
EndChar

StartChar: vs.short.e
Encoding: 2374 2374 117
Width: 0
GlyphClass: 4
Flags: W
AnchorPoint: "Anchor-0" -329 1731 mark 0
LayerCount: 2
Fore
SplineSet
-187 1448 m 1,0,-1
 -250 1448 l 1,1,-1
 -250 1590 l 2,2,3
 -250 1613 -250 1613 -272 1643 c 0,4,5
 -311 1698 -311 1698 -399 1714 c 1,6,7
 -509 1721 -509 1721 -618 1727 c 1,8,9
 -758 1736 -758 1736 -817 1792 c 0,10,11
 -887 1857 -887 1857 -886 2008 c 1,12,-1
 -886 2144 l 1,13,-1
 -812 2144 l 1,14,-1
 -812 2038 l 1,15,16
 -803 1886 -803 1886 -663 1886 c 0,17,18
 -494 1886 -494 1886 -413 1862 c 0,19,20
 -359 1846 -359 1846 -296 1797.5 c 128,-1,21
 -233 1749 -233 1749 -204 1665 c 0,22,23
 -187 1616 -187 1616 -187 1587 c 2,24,-1
 -187 1448 l 1,0,-1
EndSplineSet
Validated: 33
EndChar

StartChar: vs.e
Encoding: 2375 2375 118
Width: 0
GlyphClass: 4
Flags: W
AnchorPoint: "Anchor-0" -314 1731 mark 0
LayerCount: 2
Fore
SplineSet
-249 1448 m 1,0,1
 -256 1465 -256 1465 -268.5 1495.5 c 128,-1,2
 -281 1526 -281 1526 -295.5 1564 c 128,-1,3
 -310 1602 -310 1602 -327 1643.5 c 128,-1,4
 -344 1685 -344 1685 -360.5 1724 c 128,-1,5
 -377 1763 -377 1763 -392.5 1795.5 c 128,-1,6
 -408 1828 -408 1828 -421 1849 c 0,7,8
 -439 1877 -439 1877 -462 1900 c 128,-1,9
 -485 1923 -485 1923 -509 1939 c 128,-1,10
 -533 1955 -533 1955 -554 1964 c 128,-1,11
 -575 1973 -575 1973 -588 1973 c 0,12,13
 -609 1973 -609 1973 -617 1972.5 c 128,-1,14
 -625 1972 -625 1972 -629 1970.5 c 128,-1,15
 -633 1969 -633 1969 -638 1965.5 c 128,-1,16
 -643 1962 -643 1962 -659 1956 c 1,17,18
 -691 2011 -691 2011 -717 2055 c 0,19,20
 -728 2074 -728 2074 -738.5 2092.5 c 128,-1,21
 -749 2111 -749 2111 -757.5 2126 c 128,-1,22
 -766 2141 -766 2141 -771.5 2151 c 128,-1,23
 -777 2161 -777 2161 -777 2164 c 0,24,25
 -777 2169 -777 2169 -767.5 2172.5 c 128,-1,26
 -758 2176 -758 2176 -743.5 2178.5 c 128,-1,27
 -729 2181 -729 2181 -711 2182 c 128,-1,28
 -693 2183 -693 2183 -676 2183 c 0,29,30
 -654 2183 -654 2183 -623 2176 c 128,-1,31
 -592 2169 -592 2169 -559 2153 c 128,-1,32
 -526 2137 -526 2137 -493.5 2110.5 c 128,-1,33
 -461 2084 -461 2084 -435 2044 c 0,34,35
 -420 2021 -420 2021 -396.5 1972.5 c 128,-1,36
 -373 1924 -373 1924 -346.5 1865 c 128,-1,37
 -320 1806 -320 1806 -293 1742 c 128,-1,38
 -266 1678 -266 1678 -243.5 1622.5 c 128,-1,39
 -221 1567 -221 1567 -205.5 1526.5 c 128,-1,40
 -190 1486 -190 1486 -186 1474 c 1,41,-1
 -249 1448 l 1,0,1
EndSplineSet
Validated: 1
EndChar

StartChar: vs.ai
Encoding: 2376 2376 119
Width: 0
GlyphClass: 4
Flags: W
AnchorPoint: "Anchor-0" -489 1731 mark 0
LayerCount: 2
Fore
SplineSet
-143 1396 m 1,0,-1
 -279 1385 l 1,1,2
 -371 1485 -371 1485 -671 1680 c 1,3,4
 -753 1735 -753 1735 -783 1735 c 0,5,6
 -832 1735 -832 1735 -909 1691 c 1,7,8
 -937 1743 -937 1743 -980 1847 c 1,9,10
 -1018 1942 -1018 1942 -1018 1956 c 0,11,12
 -1018 1988 -1018 1988 -972 1987 c 1,13,14
 -874 1987 -874 1987 -739 1877 c 0,15,16
 -521 1700 -521 1700 -519 1700 c 1,17,18
 -358 1560 -358 1560 -252 1425 c 1,19,-1
 -218 1425 l 1,20,21
 -253 1523 -253 1523 -287 1617 c 1,22,23
 -347 1775 -347 1775 -384 1835 c 0,24,25
 -458 1953 -458 1953 -613 1953 c 1,26,27
 -641 2106 -641 2106 -645 2178 c 0,28,29
 -648 2222 -648 2222 -610 2222 c 0,30,31
 -507 2222 -507 2222 -399 2068 c 0,32,33
 -322 1959 -322 1959 -158 1431 c 1,34,-1
 -143 1396 l 1,0,-1
EndSplineSet
Validated: 1
EndChar

StartChar: vs.chandra
Encoding: 2377 2377 120
Width: 522
GlyphClass: 4
Flags: W
LayerCount: 2
Fore
SplineSet
717 1924 m 1,0,1
 674 1809 674 1809 560 1727.5 c 128,-1,2
 446 1646 446 1646 331 1646 c 0,3,4
 185 1646 185 1646 52 1754 c 1,5,6
 -60 1847 -60 1847 -125 1984 c 1,7,-1
 -57 2019 l 1,8,9
 96 1789 96 1789 268 1789 c 0,10,11
 374 1789 374 1789 465 1880 c 1,12,13
 531 1949 531 1949 569 2044 c 1,14,-1
 717 1924 l 1,0,1
609 1336 m 1,15,-1
 390 1336 l 1,16,-1
 390 0 l 1,17,-1
 215 101 l 1,18,-1
 221 1336 l 1,19,-1
 0 1336 l 1,20,-1
 -87 1497 l 1,21,-1
 522 1497 l 1,22,-1
 609 1336 l 1,15,-1
EndSplineSet
Validated: 1
Ligature2: "'psts' Post Base Substitutions in Devanagari lookup 10 subtable" vs.aa vs.chandrae
EndChar

StartChar: vs.short.o
Encoding: 2378 2378 121
Width: 522
GlyphClass: 4
Flags: W
LayerCount: 2
Fore
SplineSet
383 1448 m 1,0,-1
 320 1448 l 1,1,-1
 320 1590 l 2,2,3
 320 1613 320 1613 298 1643 c 0,4,5
 259 1698 259 1698 171 1714 c 1,6,7
 61 1721 61 1721 -48 1727 c 1,8,9
 -188 1736 -188 1736 -247 1792 c 0,10,11
 -317 1857 -317 1857 -316 2008 c 1,12,-1
 -316 2144 l 1,13,-1
 -242 2144 l 1,14,-1
 -242 2038 l 1,15,16
 -233 1886 -233 1886 -93 1886 c 0,17,18
 76 1886 76 1886 157 1862 c 0,19,20
 211 1846 211 1846 274 1797.5 c 128,-1,21
 337 1749 337 1749 366 1665 c 0,22,23
 383 1616 383 1616 383 1587 c 2,24,-1
 383 1448 l 1,0,-1
609 1336 m 1,25,-1
 390 1336 l 1,26,-1
 390 0 l 1,27,-1
 215 101 l 1,28,-1
 221 1336 l 1,29,-1
 0 1336 l 1,30,-1
 -87 1497 l 1,31,-1
 522 1497 l 1,32,-1
 609 1336 l 1,25,-1
EndSplineSet
Validated: 37
EndChar

StartChar: vs.o
Encoding: 2379 2379 122
Width: 622
GlyphClass: 4
Flags: W
LayerCount: 2
Fore
SplineSet
709 1336 m 1,0,-1
 441 1336 l 1,1,-1
 441 0 l 1,2,-1
 266 101 l 1,3,-1
 273 1336 l 1,4,-1
 0 1336 l 1,5,-1
 -87 1497 l 1,6,-1
 321 1497 l 1,7,8
 180 1688 180 1688 41 1827 c 0,9,10
 -42 1910 -42 1910 -123 1910 c 0,11,12
 -129 1910 -129 1910 -267 1869 c 1,13,14
 -284 1886 -284 1886 -337 1986.5 c 128,-1,15
 -390 2087 -390 2087 -390 2104 c 0,16,17
 -390 2145 -390 2145 -249 2145 c 0,18,19
 -112 2145 -112 2145 35 1978 c 1,20,21
 199 1772 199 1772 410 1497 c 1,22,-1
 622 1497 l 1,23,-1
 709 1336 l 1,0,-1
EndSplineSet
Validated: 1
EndChar

StartChar: vs.au
Encoding: 2380 2380 123
Width: 619
GlyphClass: 4
Flags: W
LayerCount: 2
Fore
SplineSet
706 1336 m 1,0,-1
 438 1336 l 1,1,-1
 438 0 l 1,2,-1
 263 101 l 1,3,-1
 270 1336 l 1,4,-1
 0 1336 l 1,5,-1
 -87 1497 l 1,6,-1
 200 1497 l 1,7,8
 132 1551 132 1551 -69 1680 c 0,9,10
 -154 1735 -154 1735 -181 1735 c 0,11,12
 -230 1735 -230 1735 -307 1691 c 1,13,14
 -335 1743 -335 1743 -378 1847 c 1,15,16
 -416 1942 -416 1942 -416 1956 c 0,17,18
 -416 1988 -416 1988 -370 1987 c 1,19,20
 -272 1987 -272 1987 -137 1877 c 0,21,22
 -42 1800 -42 1800 55 1723 c 1,23,24
 192 1609 192 1609 290 1497 c 1,25,-1
 358 1497 l 1,26,27
 270 1754 270 1754 218 1835 c 0,28,29
 141 1953 141 1953 -11 1953 c 1,30,31
 -39 2106 -39 2106 -43 2178 c 0,32,33
 -46 2222 -46 2222 -8 2222 c 0,34,35
 95 2222 95 2222 203 2068 c 1,36,37
 280 1956 280 1956 424 1497 c 1,38,-1
 619 1497 l 1,39,-1
 706 1336 l 1,0,-1
EndSplineSet
Validated: 1
EndChar

StartChar: vs.virama
Encoding: 2381 2381 124
Width: 0
GlyphClass: 4
Flags: W
LayerCount: 2
Fore
SplineSet
416 -547 m 1,0,-1
 367 -602 l 1,1,2
 175 -392 175 -392 14 -270 c 0,3,4
 -90 -190 -90 -190 -167 -189 c 1,5,6
 -267 -189 -267 -189 -312 -200 c 1,7,8
 -427 -66 -427 -66 -427 -22 c 0,9,10
 -427 0 -427 0 -321 0 c 0,11,12
 -148 0 -148 0 -11 -115 c 0,13,14
 98 -207 98 -207 244 -361 c 1,15,16
 330 -455 330 -455 416 -547 c 1,0,-1
EndSplineSet
Validated: 1
EndChar

StartChar: uni094E
Encoding: 2382 2382 125
Width: 709
GlyphClass: 2
Flags: W
LayerCount: 2
Fore
SplineSet
796 1336 m 1,0,-1
 389 1336 l 1,1,-1
 389 0 l 1,2,-1
 214 101 l 1,3,-1
 220 1336 l 1,4,-1
 220 1497 l 1,5,-1
 709 1497 l 1,6,-1
 796 1336 l 1,0,-1
EndSplineSet
Validated: 1
EndChar

StartChar: s.aw
Encoding: 2383 2383 126
Width: 522
GlyphClass: 2
Flags: W
LayerCount: 2
Fore
SplineSet
95 2324 m 1,0,-1
 139 2291 l 1,1,2
 83 2219 83 2219 87 2169 c 128,-1,3
 91 2119 91 2119 161 2067 c 1,4,5
 157 2070 157 2070 251 2007 c 2,6,-1
 345 1945 l 2,7,8
 463 1868 463 1868 492 1725 c 1,9,10
 520 1592 520 1592 431 1481 c 1,11,-1
 372 1404 l 1,12,-1
 327 1438 l 1,13,14
 409 1544 409 1544 404 1626 c 0,15,16
 397 1724 397 1724 294 1788 c 0,17,18
 285 1794 285 1794 212 1842 c 1,19,20
 153 1878 153 1878 120 1904 c 0,21,22
 27 1974 27 1974 8 2079 c 128,-1,23
 -11 2184 -11 2184 61 2277 c 1,24,-1
 95 2324 l 1,0,-1
-480 1956 m 1,25,-1
 -426 1959 l 1,26,27
 -423 1869 -423 1869 -386.5 1834 c 128,-1,28
 -350 1799 -350 1799 -264 1803 c 1,29,30
 -270 1802 -270 1802 -157 1816 c 2,31,-1
 -43 1830 l 2,32,33
 93 1846 93 1846 209 1756 c 0,34,35
 317 1671 317 1671 321 1530 c 2,36,-1
 324 1434 l 1,37,-1
 270 1432 l 1,38,39
 264 1566 264 1566 207 1624 c 0,40,41
 158 1675 158 1675 19 1676 c 0,42,43
 -2 1677 -2 1677 -81 1664 c 0,44,45
 -146 1654 -146 1654 -190 1652 c 0,46,47
 -305 1646 -305 1646 -388 1714 c 0,48,49
 -469 1781 -469 1781 -477 1898 c 1,50,-1
 -480 1956 l 1,25,-1
609 1336 m 1,51,-1
 390 1336 l 1,52,-1
 390 0 l 1,53,-1
 215 101 l 1,54,-1
 221 1336 l 1,55,-1
 0 1336 l 1,56,-1
 -87 1497 l 1,57,-1
 522 1497 l 1,58,-1
 609 1336 l 1,51,-1
EndSplineSet
Validated: 37
EndChar

StartChar: aum
Encoding: 2384 2384 127
Width: 2632
GlyphClass: 2
Flags: W
LayerCount: 2
Fore
SplineSet
1694 1838 m 1,0,-1
 1551 1697 l 1,1,-1
 1408 1838 l 1,2,-1
 1551 1978 l 1,3,-1
 1694 1838 l 1,0,-1
2068 1709 m 1,4,5
 2024 1567 2024 1567 1895.5 1457.5 c 128,-1,6
 1767 1348 1767 1348 1631 1348 c 0,7,8
 1371 1348 1371 1348 1095 1775 c 1,9,-1
 1170 1824 l 1,10,11
 1371 1509 1371 1509 1582 1508 c 1,12,13
 1803 1508 1803 1508 1932 1795 c 1,14,-1
 2068 1709 l 1,4,5
2463 794 m 0,15,16
 2463 633 2463 633 2374 535.5 c 128,-1,17
 2285 438 2285 438 2153 438 c 0,18,19
 1998 438 1998 438 1830 662 c 1,20,21
 1652 353 1652 353 1483 353 c 0,22,23
 1343 353 1343 353 1163 588 c 1,24,-1
 1152 588 l 1,25,26
 1166 433 1166 433 1064 330 c 1,27,28
 955 218 955 218 766 218 c 0,29,30
 424 218 424 218 169 769 c 1,31,-1
 246 815 l 1,32,33
 441 379 441 379 720 378 c 0,34,35
 843 378 843 378 920.5 462.5 c 128,-1,36
 998 547 998 547 998 659 c 0,37,38
 998 823 998 823 846 869 c 1,39,40
 624 784 624 784 599 783 c 0,41,42
 580 783 580 783 525 844.5 c 128,-1,43
 470 906 470 906 470 923 c 0,44,45
 470 972 470 972 519 972 c 0,46,47
 542 972 542 972 633.5 985 c 128,-1,48
 725 998 725 998 745 998 c 0,49,50
 785 998 785 998 837 1056 c 1,51,52
 903 1127 903 1127 903 1215 c 0,53,54
 903 1393 903 1393 731 1393 c 0,55,56
 648 1393 648 1393 527.5 1328.5 c 128,-1,57
 407 1264 407 1264 410 1264 c 1,58,59
 388 1264 388 1264 367 1299 c 0,60,61
 335 1354 335 1354 309 1420 c 1,62,63
 504 1520 504 1520 629 1519 c 1,64,65
 777 1519 777 1519 930 1376 c 0,66,67
 1058 1256 1058 1256 1058 1130 c 0,68,69
 1058 1070 1058 1070 1019 1009.5 c 128,-1,70
 980 949 980 949 923 923 c 1,71,72
 997 885 997 885 1278 585 c 1,73,74
 1347 514 1347 514 1411 514 c 0,75,76
 1572 514 1572 514 1743.5 846.5 c 128,-1,77
 1915 1179 1915 1179 2128 1179 c 0,78,79
 2248 1179 2248 1179 2351 1070 c 0,80,81
 2463 952 2463 952 2463 794 c 0,15,16
2334 878 m 0,82,83
 2334 946 2334 946 2297 999.5 c 128,-1,84
 2260 1053 2260 1053 2208 1053 c 0,85,86
 2110 1053 2110 1053 2040 986.5 c 128,-1,87
 1970 920 1970 920 1877 742 c 1,88,89
 1952 599 1952 599 2099 599 c 0,90,91
 2173 599 2173 599 2248 673 c 1,92,93
 2334 760 2334 760 2334 878 c 0,82,83
EndSplineSet
Validated: 33
EndChar

StartChar: vs.udatta
Encoding: 2385 2385 128
Width: 0
GlyphClass: 4
Flags: W
LayerCount: 2
Fore
SplineSet
-649 1481 m 1,0,-1
 -649 1949 l 1,1,-1
 -477 1949 l 1,2,-1
 -477 1500 l 1,3,-1
 -523 1500 l 1,4,-1
 -649 1481 l 1,0,-1
EndSplineSet
Validated: 1
EndChar

StartChar: vs.anudatta
Encoding: 2386 2386 129
Width: 0
GlyphClass: 4
Flags: W
LayerCount: 2
Fore
SplineSet
-175 -118 m 1,0,-1
 -74 -277 l 1,1,-1
 -854 -277 l 1,2,-1
 -954 -118 l 1,3,-1
 -175 -118 l 1,0,-1
EndSplineSet
Validated: 1
EndChar

StartChar: uni0953
Encoding: 2387 2387 130
Width: 0
GlyphClass: 4
Flags: W
LayerCount: 2
Fore
SplineSet
-749 1945 m 1,0,-1
 -482 1945 l 1,1,-1
 -326 1486 l 1,2,-1
 -456 1486 l 1,3,-1
 -749 1945 l 1,0,-1
EndSplineSet
Validated: 1
EndChar

StartChar: vs.acute.accent
Encoding: 2388 2388 131
Width: 0
GlyphClass: 4
Flags: W
LayerCount: 2
Fore
SplineSet
-326 1486 m 1,0,-1
 -456 1486 l 1,1,-1
 -300 1945 l 1,2,-1
 -33 1945 l 1,3,-1
 -326 1486 l 1,0,-1
EndSplineSet
Validated: 1
EndChar

StartChar: uni0955
Encoding: 2389 2389 132
Width: 0
GlyphClass: 2
Flags: W
LayerCount: 2
Fore
SplineSet
28 2174 m 1,0,1
 -15 2059 -15 2059 -129 1977.5 c 128,-1,2
 -243 1896 -243 1896 -358 1896 c 0,3,4
 -504 1896 -504 1896 -637 2004 c 1,5,6
 -749 2097 -749 2097 -814 2234 c 1,7,-1
 -746 2269 l 1,8,9
 -593 2039 -593 2039 -421 2039 c 0,10,11
 -315 2039 -315 2039 -224 2130 c 1,12,13
 -158 2199 -158 2199 -120 2294 c 1,14,-1
 28 2174 l 1,0,1
-14 1782 m 1,15,-1
 87 1623 l 1,16,-1
 -693 1623 l 1,17,-1
 -793 1782 l 1,18,-1
 -14 1782 l 1,15,-1
EndSplineSet
Validated: 1
EndChar

StartChar: uni0956
Encoding: 2390 2390 133
Width: 0
GlyphClass: 2
Flags: W
LayerCount: 2
Fore
SplineSet
-178 -80 m 1,0,1
 -358 -347 -358 -347 -606 -347 c 0,2,3
 -893 -347 -893 -347 -1034 -80 c 1,4,-1
 -912 -80 l 1,5,6
 -780 -216 -780 -216 -606 -215 c 0,7,8
 -420 -214 -420 -214 -300 -80 c 1,9,-1
 -178 -80 l 1,0,1
EndSplineSet
Validated: 33
EndChar

StartChar: uni0957
Encoding: 2391 2391 134
Width: 0
GlyphClass: 2
Flags: W
LayerCount: 2
Fore
SplineSet
-178 -350 m 1,0,1
 -358 -617 -358 -617 -606 -617 c 0,2,3
 -893 -617 -893 -617 -1034 -350 c 1,4,-1
 -912 -350 l 1,5,6
 -780 -486 -780 -486 -606 -485 c 0,7,8
 -420 -484 -420 -484 -300 -350 c 1,9,-1
 -178 -350 l 1,0,1
-178 -80 m 1,10,11
 -358 -347 -358 -347 -606 -347 c 0,12,13
 -893 -347 -893 -347 -1034 -80 c 1,14,-1
 -912 -80 l 1,15,16
 -780 -216 -780 -216 -606 -215 c 0,17,18
 -420 -214 -420 -214 -300 -80 c 1,19,-1
 -178 -80 l 1,10,11
EndSplineSet
Validated: 33
EndChar

StartChar: l.qa
Encoding: 2392 2392 135
Width: 1776
GlyphClass: 2
Flags: W
AnchorPoint: "Anchor-0" 884 1731 basechar 0
LayerCount: 2
Fore
SplineSet
372 -70 m 1,0,-1
 206 97 l 1,1,-1
 372 263 l 1,2,-1
 539 97 l 1,3,-1
 372 -70 l 1,0,-1
1863 1336 m 1,4,-1
 1061 1336 l 1,5,-1
 1061 843 l 1,6,7
 1222 972 1222 972 1330 972 c 0,8,9
 1433 972 1433 972 1529 872 c 1,10,11
 1646 743 1646 743 1646 528 c 0,12,13
 1646 375 1646 375 1494 140 c 1,14,-1
 1348 273 l 1,15,16
 1517 503 1517 503 1516 671 c 0,17,18
 1516 734 1516 734 1474.5 773 c 128,-1,19
 1433 812 1433 812 1373 812 c 0,20,21
 1261 812 1261 812 1061 640 c 1,22,-1
 1061 0 l 1,23,-1
 883 101 l 1,24,-1
 894 525 l 1,25,26
 694 399 694 399 579 399 c 0,27,28
 413 399 413 399 291 521 c 128,-1,29
 169 643 169 643 169 809 c 0,30,31
 169 897 169 897 229 980 c 1,32,33
 318 1098 318 1098 501 1098 c 0,34,35
 659 1098 659 1098 730.5 1036 c 128,-1,36
 802 974 802 974 883 862 c 1,37,-1
 889 862 l 1,38,-1
 889 1336 l 1,39,-1
 0 1336 l 1,40,-1
 -87 1497 l 1,41,-1
 1776 1497 l 1,42,-1
 1863 1336 l 1,4,-1
892 734 m 1,43,44
 809 846 809 846 732.5 892 c 128,-1,45
 656 938 656 938 536 938 c 0,46,47
 444 938 444 938 375 883 c 1,48,49
 298 818 298 818 298 714 c 0,50,51
 298 637 298 637 351 589.5 c 128,-1,52
 404 542 404 542 484 542 c 0,53,54
 640 542 640 542 892 734 c 1,43,44
EndSplineSet
Validated: 33
Ligature2: "'nukt' Nukta Forms in Devanagari lookup 0 subtable" l.ka s.nukta
EndChar

StartChar: l.khha
Encoding: 2393 2393 136
Width: 1826
GlyphClass: 2
Flags: W
LayerCount: 2
Fore
SplineSet
422 -200 m 1,0,-1
 256 -33 l 1,1,-1
 422 133 l 1,2,-1
 589 -33 l 1,3,-1
 422 -200 l 1,0,-1
1913 1336 m 1,4,-1
 1694 1336 l 1,5,-1
 1694 0 l 1,6,-1
 1522 101 l 1,7,-1
 1528 258 l 1,8,9
 1238 45 1238 45 996 46 c 1,10,11
 688 46 688 46 373 444 c 0,12,13
 278 564 278 564 219 692 c 0,14,15
 178 780 178 780 178 805 c 0,16,17
 178 825 178 825 201 853 c 128,-1,18
 224 881 224 881 238 881 c 0,19,20
 266 881 266 881 408 823 c 1,21,22
 451 889 451 889 450 1067 c 0,23,24
 450 1210 450 1210 439 1336 c 1,25,-1
 0 1336 l 1,26,-1
 -87 1497 l 1,27,-1
 1826 1497 l 1,28,-1
 1913 1336 l 1,4,-1
1522 444 m 1,29,-1
 1522 580 l 1,30,31
 1333 454 1333 454 1213 454 c 0,32,33
 1046 454 1046 454 924.5 575.5 c 128,-1,34
 803 697 803 697 803 862 c 0,35,36
 803 951 803 951 863 1035 c 1,37,38
 951 1152 951 1152 1136 1152 c 0,39,40
 1281 1152 1281 1152 1368 1089 c 1,41,42
 1428 1043 1428 1043 1517 917 c 1,43,-1
 1522 917 l 1,44,-1
 1522 1336 l 1,45,-1
 608 1336 l 1,46,47
 621 885 621 885 622 877 c 1,48,49
 621 686 621 686 422 539 c 1,50,51
 517 396 517 396 646 304 c 1,52,53
 798 189 798 189 952 189 c 0,54,55
 1101 189 1101 189 1270 279 c 1,56,57
 1353 321 1353 321 1522 444 c 1,29,-1
1525 785 m 1,58,59
 1442 900 1442 900 1366.5 946.5 c 128,-1,60
 1291 993 1291 993 1169 993 c 0,61,62
 1077 993 1077 993 1010 938 c 1,63,64
 933 872 933 872 933 769 c 0,65,66
 933 692 933 692 985.5 644 c 128,-1,67
 1038 596 1038 596 1119 596 c 0,68,69
 1270 596 1270 596 1525 785 c 1,58,59
EndSplineSet
Validated: 33
Ligature2: "'nukt' Nukta Forms in Devanagari lookup 0 subtable" l.kh s.nukta
EndChar

StartChar: l.ghha
Encoding: 2394 2394 137
Width: 1267
GlyphClass: 2
Flags: W
LayerCount: 2
Fore
SplineSet
462 -130 m 1,0,-1
 296 37 l 1,1,-1
 462 203 l 1,2,-1
 629 37 l 1,3,-1
 462 -130 l 1,0,-1
1354 1336 m 1,4,-1
 1135 1336 l 1,5,-1
 1135 0 l 1,6,-1
 960 101 l 1,7,-1
 966 1336 l 1,8,-1
 542 1336 l 1,9,-1
 542 610 l 2,10,11
 542 564 542 564 513 532.5 c 128,-1,12
 484 501 484 501 444 501 c 0,13,14
 409 501 409 501 276 643 c 1,15,16
 172 752 172 752 172 809 c 0,17,18
 172 832 172 832 189 852 c 128,-1,19
 206 872 206 872 221 872 c 2,20,-1
 353 872 l 2,21,22
 370 872 370 872 370 900 c 2,23,-1
 370 1336 l 1,24,-1
 0 1336 l 1,25,-1
 -87 1497 l 1,26,-1
 1267 1497 l 1,27,-1
 1354 1336 l 1,4,-1
EndSplineSet
Validated: 1
Ligature2: "'nukt' Nukta Forms in Devanagari lookup 0 subtable" l.ga s.nukta
EndChar

StartChar: l.za
Encoding: 2395 2395 138
Width: 1543
GlyphClass: 2
Flags: W
LayerCount: 2
Fore
SplineSet
852 -130 m 1,0,-1
 686 37 l 1,1,-1
 852 203 l 1,2,-1
 1019 37 l 1,3,-1
 852 -130 l 1,0,-1
1630 1336 m 1,4,-1
 1411 1336 l 1,5,-1
 1411 0 l 1,6,-1
 1233 101 l 1,7,-1
 1239 906 l 1,8,-1
 831 906 l 1,9,10
 943 794 943 794 987 728 c 1,11,12
 1041 640 1041 640 1040 545 c 1,13,14
 1040 435 1040 435 949 367 c 1,15,16
 872 307 872 307 780 307 c 0,17,18
 579 307 579 307 416 514 c 1,19,20
 309 645 309 645 169 946 c 1,21,-1
 263 987 l 1,22,23
 340 801 340 801 451 651 c 1,24,25
 502 580 502 580 582 529.5 c 128,-1,26
 662 479 662 479 722 479 c 0,27,28
 875 479 875 479 875 640 c 0,29,30
 875 818 875 818 547 1007 c 1,31,-1
 571 1067 l 1,32,-1
 1239 1067 l 1,33,-1
 1239 1336 l 1,34,-1
 0 1336 l 1,35,-1
 -87 1497 l 1,36,-1
 1543 1497 l 1,37,-1
 1630 1336 l 1,4,-1
EndSplineSet
Validated: 33
Ligature2: "'nukt' Nukta Forms in Devanagari lookup 0 subtable" l.ja s.nukta
EndChar

StartChar: l.dddha
Encoding: 2396 2396 139
Width: 1496
GlyphClass: 2
Flags: W
LayerCount: 2
Fore
SplineSet
942 -340 m 1,0,-1
 776 -173 l 1,1,-1
 942 -7 l 1,2,-1
 1109 -173 l 1,3,-1
 942 -340 l 1,0,-1
1583 1336 m 1,4,-1
 1204 1336 l 1,5,-1
 1204 1032 l 2,6,7
 1204 972 1204 972 1146 972 c 2,8,-1
 711 972 l 2,9,10
 571 972 571 972 571 846 c 0,11,12
 571 742 571 742 607 708 c 0,13,14
 633 683 633 683 697 682 c 0,15,16
 719 682 719 682 869.5 706.5 c 128,-1,17
 1020 731 1020 731 1067 731 c 0,18,19
 1155 731 1155 731 1228 659 c 0,20,21
 1376 511 1376 511 1376 391 c 0,22,23
 1376 245 1376 245 1264 151 c 128,-1,24
 1152 57 1152 57 992 57 c 0,25,26
 549 57 549 57 169 599 c 1,27,-1
 249 659 l 1,28,29
 430 396 430 396 593 301 c 1,30,31
 731 218 731 218 938 218 c 0,32,33
 1078 218 1078 218 1167 298 c 1,34,35
 1247 367 1247 367 1247 456 c 0,36,37
 1247 571 1247 571 1167 571 c 0,38,39
 1107 571 1107 571 949 546.5 c 128,-1,40
 791 522 791 522 768 522 c 0,41,42
 676 522 676 522 613 571 c 0,43,44
 567 606 567 606 501 697 c 1,45,46
 416 818 416 818 416 917 c 0,47,48
 416 1000 416 1000 476 1066.5 c 128,-1,49
 536 1133 536 1133 631 1133 c 2,50,-1
 1032 1133 l 1,51,-1
 1032 1336 l 1,52,-1
 0 1336 l 1,53,-1
 -87 1497 l 1,54,-1
 1496 1497 l 1,55,-1
 1583 1336 l 1,4,-1
EndSplineSet
Validated: 1
Ligature2: "'nukt' Nukta Forms in Devanagari lookup 0 subtable" l.dda s.nukta
EndChar

StartChar: l.dddhha
Encoding: 2397 2397 140
Width: 1325
GlyphClass: 2
Flags: W
LayerCount: 2
Fore
SplineSet
762 -340 m 1,0,-1
 596 -173 l 1,1,-1
 762 -7 l 1,2,-1
 929 -173 l 1,3,-1
 762 -340 l 1,0,-1
1412 1336 m 1,4,-1
 1084 1336 l 1,5,-1
 1084 1007 l 2,6,7
 1084 949 1084 949 1026 949 c 0,8,9
 881 949 881 949 588 941 c 1,10,11
 328 932 328 932 326 622 c 1,12,13
 326 463 326 463 433 353 c 1,14,15
 531 255 531 255 665 238 c 1,16,17
 608 333 608 333 608 468 c 0,18,19
 608 766 608 766 903 766 c 0,20,21
 1012 766 1012 766 1100 682 c 0,22,23
 1218 570 1218 570 1218 372 c 0,24,25
 1218 227 1218 227 1095 137 c 0,26,27
 986 57 986 57 832 57 c 0,28,29
 662 57 662 57 462 213 c 1,30,31
 172 437 172 437 172 771 c 0,32,33
 172 1070 172 1070 514 1098 c 0,34,35
 651 1109 651 1109 794 1110 c 1,36,-1
 911 1110 l 1,37,-1
 911 1336 l 1,38,-1
 0 1336 l 1,39,-1
 -87 1497 l 1,40,-1
 1325 1497 l 1,41,-1
 1412 1336 l 1,4,-1
1119 454 m 0,42,43
 1119 517 1119 517 1067 561 c 128,-1,44
 1015 605 1015 605 941 605 c 0,45,46
 853 605 853 605 794.5 533.5 c 128,-1,47
 736 462 736 462 736 330 c 0,48,49
 736 295 736 295 742 227 c 1,50,51
 777 218 777 218 791 218 c 0,52,53
 920 218 920 218 1019.5 288 c 128,-1,54
 1119 358 1119 358 1119 454 c 0,42,43
EndSplineSet
Validated: 1
Ligature2: "'nukt' Nukta Forms in Devanagari lookup 0 subtable" l.ddha s.nukta
EndChar

StartChar: l.fa
Encoding: 2398 2398 141
Width: 1798
GlyphClass: 2
Flags: W
AnchorPoint: "Anchor-0" 862 1731 basechar 0
LayerCount: 2
Fore
SplineSet
442 30 m 1,0,-1
 276 197 l 1,1,-1
 442 363 l 1,2,-1
 609 197 l 1,3,-1
 442 30 l 1,0,-1
1885 1336 m 1,4,-1
 1059 1336 l 1,5,-1
 1059 860 l 1,6,7
 1248 1012 1248 1012 1396 1012 c 0,8,9
 1500 1012 1500 1012 1595 911 c 1,10,11
 1712 783 1712 783 1712 568 c 0,12,13
 1712 416 1712 416 1560 181 c 1,14,-1
 1414 312 l 1,15,16
 1582 539 1582 539 1582 711 c 0,17,18
 1582 774 1582 774 1541 812.5 c 128,-1,19
 1500 851 1500 851 1439 851 c 0,20,21
 1385 851 1385 851 1264.5 791 c 128,-1,22
 1144 731 1144 731 1059 657 c 1,23,-1
 1059 0 l 1,24,-1
 881 101 l 1,25,-1
 892 574 l 1,26,27
 760 511 760 511 674 511 c 0,28,29
 570 511 570 511 424 624 c 1,30,31
 266 750 266 750 266 878 c 2,32,-1
 266 1336 l 1,33,-1
 0 1336 l 1,34,-1
 -87 1497 l 1,35,-1
 1798 1497 l 1,36,-1
 1885 1336 l 1,4,-1
886 771 m 1,37,-1
 886 1336 l 1,38,-1
 438 1336 l 1,39,-1
 438 872 l 2,40,41
 438 654 438 654 591 654 c 0,42,43
 734 654 734 654 886 771 c 1,37,-1
EndSplineSet
Validated: 1
Ligature2: "'nukt' Nukta Forms in Devanagari lookup 0 subtable" l.pha s.nukta
EndChar

StartChar: l.yya
Encoding: 2399 2399 142
Width: 1324
GlyphClass: 2
Flags: W
LayerCount: 2
Fore
SplineSet
612 -70 m 1,0,-1
 446 97 l 1,1,-1
 612 263 l 1,2,-1
 779 97 l 1,3,-1
 612 -70 l 1,0,-1
1411 1336 m 1,4,-1
 1193 1336 l 1,5,-1
 1193 0 l 1,6,-1
 1015 101 l 1,7,-1
 1026 577 l 1,8,9
 881 437 881 437 717 435 c 1,10,11
 295 435 295 435 172 906 c 1,12,13
 339 938 339 938 437.5 1002.5 c 128,-1,14
 536 1067 536 1067 536 1147 c 0,15,16
 536 1193 536 1193 456 1336 c 1,17,-1
 0 1336 l 1,18,-1
 -87 1497 l 1,19,-1
 1324 1497 l 1,20,-1
 1411 1336 l 1,4,-1
1021 780 m 1,21,-1
 1021 1336 l 1,22,-1
 588 1336 l 1,23,24
 692 1141 692 1141 692 1043 c 0,25,26
 692 882 692 882 370 777 c 1,27,28
 370 561 370 561 561 561 c 0,29,30
 757 561 757 561 1021 780 c 1,21,-1
EndSplineSet
Validated: 1
Ligature2: "'nukt' Nukta Forms in Devanagari lookup 0 subtable" l.ya s.nukta
EndChar

StartChar: l.vrr
Encoding: 2400 2400 143
Width: 1890
GlyphClass: 2
Flags: W
LayerCount: 2
Fore
SplineSet
1977 1336 m 1,0,-1
 1078 1336 l 1,1,-1
 1078 809 l 1,2,3
 1124 820 1124 820 1192.5 863 c 128,-1,4
 1261 906 1261 906 1285 935 c 1,5,-1
 1285 963 l 1,6,7
 1282 983 1282 983 1281 1004 c 1,8,9
 1281 1144 1281 1144 1338 1144 c 0,10,11
 1387 1144 1387 1144 1493.5 1085 c 128,-1,12
 1600 1026 1600 1026 1600 987 c 0,13,14
 1600 941 1600 941 1425 843 c 1,15,-1
 1628 580 l 1,16,17
 1322 468 1322 468 1322 344 c 0,18,19
 1322 262 1322 262 1439 260 c 1,20,21
 1499 260 1499 260 1571 318 c 1,22,-1
 1715 175 l 1,23,24
 1455 41 1455 41 1453 -74 c 1,25,26
 1453 -209 1453 -209 1589 -210 c 0,27,28
 1677 -210 1677 -210 1792 -137 c 1,29,-1
 1884 -252 l 1,30,31
 1707 -347 1707 -347 1639 -347 c 0,32,33
 1516 -347 1516 -347 1399 -284 c 0,34,35
 1267 -213 1267 -213 1267 -115 c 0,36,37
 1267 25 1267 25 1313 88 c 1,38,39
 1330 113 1330 113 1385 146 c 1,40,41
 1221 206 1221 206 1179 266 c 1,42,43
 1151 301 1151 301 1149 386 c 1,44,45
 1149 542 1149 542 1428 665 c 1,46,-1
 1310 783 l 1,47,48
 1236 722 1236 722 1078 722 c 1,49,-1
 1078 0 l 1,50,-1
 900 101 l 1,51,-1
 906 599 l 1,52,-1
 410 246 l 1,53,-1
 276 364 l 1,54,-1
 881 769 l 1,55,56
 640 935 640 935 536 935 c 0,57,58
 427 935 427 935 293 892 c 1,59,-1
 172 1050 l 1,60,61
 388 1096 388 1096 482 1095 c 1,62,63
 594 1095 594 1095 694 1023 c 1,64,65
 749 986 749 986 906 854 c 1,66,-1
 906 1336 l 1,67,-1
 0 1336 l 1,68,-1
 -87 1497 l 1,69,-1
 1890 1497 l 1,70,-1
 1977 1336 l 1,0,-1
EndSplineSet
Validated: 33
EndChar

StartChar: l.vll
Encoding: 2401 2401 144
Width: 1707
GlyphClass: 2
Flags: W
LayerCount: 2
Fore
SplineSet
1268 1084 m 1,0,1
 1366 1084 1366 1084 1456 1004 c 1,2,3
 1544 912 1544 912 1528 783 c 1,4,5
 1528 697 1528 697 1479 623 c 0,6,7
 1428 545 1428 545 1333 496 c 1,8,9
 1196 435 1196 435 1126 361 c 1,10,11
 1069 308 1069 308 1069 257 c 0,12,13
 1069 220 1069 220 1106 183 c 0,14,15
 1126 163 1126 163 1180 163 c 0,16,17
 1264 163 1264 163 1388 226 c 1,18,19
 1437 234 1437 234 1503 267 c 1,20,-1
 1571 132 l 1,21,22
 1534 122 1534 122 1505 111 c 1,23,24
 1358 70 1358 70 1261 -3 c 1,25,26
 1241 -15 1241 -15 1227 -46 c 1,27,28
 1209 -77 1209 -77 1208 -106 c 1,29,30
 1208 -151 1208 -151 1241 -175 c 1,31,32
 1278 -200 1278 -200 1376 -200 c 0,33,34
 1452 -200 1452 -200 1542 -147 c 1,35,36
 1577 -131 1577 -131 1618 -93 c 1,37,-1
 1675 -226 l 1,38,39
 1620 -265 1620 -265 1581 -290 c 0,40,41
 1501 -341 1501 -341 1419 -333 c 1,42,43
 1325 -341 1325 -341 1249 -294 c 1,44,45
 1155 -233 1155 -233 1118 -118 c 1,46,47
 1112 -95 1112 -95 1110 -56 c 1,48,49
 1110 -7 1110 -7 1126 46 c 1,50,51
 1138 58 1138 58 1147 87 c 1,52,53
 1129 95 1129 95 1114 99 c 1,54,55
 1028 144 1028 144 995 206 c 1,56,57
 966 269 966 269 967 320 c 1,58,59
 967 476 967 476 1190 595 c 1,60,61
 1313 658 1313 658 1368 724 c 1,62,63
 1425 785 1425 785 1425 837.5 c 128,-1,64
 1425 890 1425 890 1376 924 c 1,65,66
 1334 969 1334 969 1250 969 c 0,67,68
 1210 969 1210 969 1170.5 949.5 c 128,-1,69
 1131 930 1131 930 1085 880.5 c 128,-1,70
 1039 831 1039 831 983.5 746.5 c 128,-1,71
 928 662 928 662 857 533 c 1,72,-1
 711 613 l 1,73,74
 728 658 728 658 751 699.5 c 128,-1,75
 774 741 774 741 800 780 c 1,76,77
 782 812 782 812 755 842.5 c 128,-1,78
 728 873 728 873 697.5 896.5 c 128,-1,79
 667 920 667 920 636 934.5 c 128,-1,80
 605 949 605 949 580 949 c 0,81,82
 544 949 544 949 503.5 934.5 c 128,-1,83
 463 920 463 920 428 889 c 128,-1,84
 393 858 393 858 370 809.5 c 128,-1,85
 347 761 347 761 347 692 c 1,86,87
 349 637 349 637 367 575 c 128,-1,88
 385 513 385 513 422 445.5 c 128,-1,89
 459 378 459 378 517 305 c 128,-1,90
 575 232 575 232 657 155 c 1,91,-1
 562 74 l 1,92,93
 523 117 523 117 479 172 c 128,-1,94
 435 227 435 227 392 288.5 c 128,-1,95
 349 350 349 350 309.5 415 c 128,-1,96
 270 480 270 480 240.5 542.5 c 128,-1,97
 211 605 211 605 193 662 c 128,-1,98
 175 719 175 719 175 766 c 0,99,100
 175 799 175 799 183.5 837 c 128,-1,101
 192 875 192 875 208.5 913.5 c 128,-1,102
 225 952 225 952 251 987.5 c 128,-1,103
 277 1023 277 1023 312 1050 c 128,-1,104
 347 1077 347 1077 391.5 1093.5 c 128,-1,105
 436 1110 436 1110 490 1110 c 0,106,107
 518 1110 518 1110 547 1104 c 128,-1,108
 576 1098 576 1098 603 1088 c 128,-1,109
 630 1078 630 1078 652 1064 c 1,110,111
 675 1051 675 1051 688 1037 c 2,112,-1
 731 993 l 1,113,114
 751 974 751 974 769.5 954 c 128,-1,115
 788 934 788 934 807.5 911.5 c 128,-1,116
 827 889 827 889 851 860 c 1,117,118
 908 946 908 946 968 994 c 128,-1,119
 1028 1042 1028 1042 1078 1058 c 1,120,-1
 1078 1336 l 1,121,-1
 0 1336 l 1,122,-1
 -87 1497 l 1,123,-1
 1707 1497 l 1,124,-1
 1794 1336 l 1,125,-1
 1250 1336 l 1,126,-1
 1250 1070 l 1,127,-1
 1268 1084 l 1,0,1
EndSplineSet
Validated: 33
EndChar

StartChar: vs.vl
Encoding: 2402 2402 145
Width: 0
GlyphClass: 4
Flags: W
LayerCount: 2
Fore
SplineSet
-311 76 m 1,0,1
 -276 84 -276 84 -262 82 c 0,2,3
 -176 72 -176 72 -131 27 c 0,4,5
 -78 -26 -78 -26 -78 -100 c 0,6,7
 -78 -147 -78 -147 -115 -186 c 1,8,9
 -152 -223 -152 -223 -211 -252 c 1,10,11
 -305 -309 -305 -309 -336 -336 c 0,12,13
 -369 -365 -369 -365 -352 -391 c 1,14,15
 -346 -416 -346 -416 -328 -422 c 1,16,17
 -314 -440 -314 -440 -285 -453 c 1,18,19
 -236 -465 -236 -465 -164 -453 c 1,20,21
 -127 -443 -127 -443 -84 -414 c 1,22,-1
 -41 -500 l 1,23,24
 -70 -512 -70 -512 -90 -518 c 1,25,26
 -153 -543 -153 -543 -211 -543 c 0,27,28
 -257 -543 -257 -543 -299 -528 c 0,29,30
 -338 -514 -338 -514 -371 -481 c 1,31,32
 -432 -424 -432 -424 -434 -358 c 1,33,34
 -434 -315 -434 -315 -401 -276 c 1,35,36
 -374 -239 -374 -239 -311 -211 c 0,37,38
 -225 -174 -225 -174 -190 -137 c 1,39,40
 -151 -100 -151 -100 -152 -67 c 0,41,42
 -152 -34 -152 -34 -184 -14 c 1,43,44
 -213 2 -213 2 -266 2 c 0,45,46
 -309 2 -309 2 -350 -10 c 1,47,48
 -393 -24 -393 -24 -434 -61 c 1,49,50
 -500 -112 -500 -112 -549 -176 c 1,51,52
 -557 -190 -557 -190 -590 -219 c 1,53,-1
 -674 -162 l 1,54,55
 -654 -129 -654 -129 -637 -108 c 0,56,57
 -631 -100 -631 -100 -623 -104 c 1,58,59
 -648 -77 -648 -77 -666 -61 c 1,60,61
 -715 -22 -715 -22 -766 -4 c 1,62,63
 -791 8 -791 8 -803 10 c 1,64,65
 -817 4 -817 4 -844 2 c 1,66,67
 -938 -12 -938 -12 -934 -168 c 1,68,69
 -934 -262 -934 -262 -831 -358 c 1,70,71
 -772 -419 -772 -419 -664 -491 c 1,72,73
 -627 -511 -627 -511 -565 -547 c 1,74,-1
 -631 -588 l 1,75,76
 -666 -574 -666 -574 -702 -543 c 1,77,78
 -849 -451 -849 -451 -961 -328 c 1,79,80
 -1045 -240 -1045 -240 -1044 -121 c 0,81,82
 -1044 -31 -1044 -31 -987 31 c 1,83,84
 -928 88 -928 88 -823 88 c 0,85,86
 -731 88 -731 88 -643 23 c 0,87,88
 -616 3 -616 3 -580 -41 c 1,89,90
 -568 -31 -568 -31 -557 -22 c 1,91,92
 -526 9 -526 9 -504 25 c 1,93,94
 -475 39 -475 39 -442 53 c 1,95,96
 -432 59 -432 59 -348 76 c 1,97,-1
 -311 76 l 1,0,1
EndSplineSet
Validated: 33
EndChar

StartChar: vs.vll
Encoding: 2403 2403 146
Width: 0
GlyphClass: 4
Flags: W
LayerCount: 2
Fore
SplineSet
-381 100 m 1,0,1
 -361 102 -361 102 -350 100 c 1,2,3
 -264 108 -264 108 -176 38 c 1,4,5
 -110 -17 -110 -17 -123 -89 c 1,6,7
 -123 -138 -123 -138 -162 -181 c 1,8,9
 -199 -224 -199 -224 -266 -254 c 1,10,11
 -368 -289 -368 -289 -414 -330 c 1,12,13
 -455 -361 -455 -361 -455 -392 c 0,14,15
 -455 -415 -455 -415 -430 -433 c 0,16,17
 -414 -445 -414 -445 -377 -445 c 0,18,19
 -318 -445 -318 -445 -225 -408 c 1,20,21
 -192 -402 -192 -402 -141 -388 c 1,22,-1
 -90 -465 l 1,23,24
 -123 -471 -123 -471 -141 -476 c 1,25,26
 -252 -496 -252 -496 -319 -539 c 1,27,28
 -329 -547 -329 -547 -342 -568 c 1,29,30
 -360 -582 -360 -582 -360 -601 c 0,31,32
 -360 -628 -360 -628 -328 -642 c 1,33,34
 -305 -654 -305 -654 -238 -654 c 0,35,36
 -181 -654 -181 -654 -113 -625 c 1,37,38
 -93 -613 -93 -613 -61 -592 c 1,39,-1
 -20 -670 l 1,40,41
 -53 -693 -53 -693 -90 -707 c 1,42,43
 -147 -738 -147 -738 -205 -732 c 1,44,45
 -275 -738 -275 -738 -328 -707 c 1,46,47
 -398 -674 -398 -674 -422 -607 c 1,48,49
 -428 -595 -428 -595 -428 -570 c 256,50,51
 -428 -545 -428 -545 -414 -515 c 0,52,53
 -410 -505 -410 -505 -401 -490 c 1,54,55
 -415 -484 -415 -484 -426 -482 c 1,56,57
 -487 -455 -487 -455 -512 -418 c 1,58,59
 -530 -381 -530 -381 -528 -353 c 1,60,61
 -528 -265 -528 -265 -369 -195 c 0,62,63
 -285 -158 -285 -158 -240 -123 c 1,64,65
 -201 -86 -201 -86 -201 -56 c 0,66,67
 -201 -27 -201 -27 -233 -7 c 1,68,69
 -266 16 -266 16 -322 14 c 1,70,71
 -369 14 -369 14 -414 0 c 1,72,73
 -455 -14 -455 -14 -500 -48 c 1,74,75
 -574 -101 -574 -101 -623 -162 c 1,76,77
 -635 -180 -635 -180 -655 -211 c 1,78,-1
 -754 -152 l 1,79,80
 -738 -117 -738 -117 -717 -95 c 1,81,-1
 -713 -89 l 1,82,-1
 -741 -58 l 1,83,84
 -802 -15 -802 -15 -856 2 c 1,85,86
 -885 2 -885 2 -903 0 c 0,87,88
 -917 -2 -917 -2 -946 -15 c 0,89,90
 -1038 -54 -1038 -54 -1038 -152 c 1,91,92
 -1028 -250 -1028 -250 -918 -332 c 1,93,94
 -865 -389 -865 -389 -745 -465 c 1,95,96
 -704 -483 -704 -483 -643 -519 c 1,97,-1
 -709 -570 l 1,98,99
 -742 -541 -742 -541 -780 -527 c 1,100,101
 -948 -421 -948 -421 -1061 -312 c 1,102,103
 -1153 -220 -1153 -220 -1155 -109 c 1,104,105
 -1155 -19 -1155 -19 -1090 34 c 1,106,107
 -1031 93 -1031 93 -913 92 c 0,108,109
 -817 92 -817 92 -725 30 c 1,110,111
 -698 10 -698 10 -655 -31 c 1,112,113
 -643 -19 -643 -19 -635 -15 c 1,114,115
 -602 14 -602 14 -578 34 c 1,116,117
 -549 48 -549 48 -512 59 c 1,118,119
 -492 75 -492 75 -418 88 c 1,120,-1
 -381 100 l 1,0,1
EndSplineSet
Validated: 33
EndChar

StartChar: vs.danda
Encoding: 2404 2404 147
Width: 555
GlyphClass: 2
Flags: W
LayerCount: 2
Fore
SplineSet
553 -11 m 1,0,-1
 380 98 l 1,1,-1
 380 1494 l 1,2,-1
 553 1385 l 1,3,-1
 553 -11 l 1,0,-1
EndSplineSet
Validated: 1
EndChar

StartChar: vs.double.danda
Encoding: 2405 2405 148
Width: 1042
GlyphClass: 2
Flags: W
LayerCount: 2
Fore
SplineSet
1040 -11 m 1,0,-1
 868 98 l 1,1,-1
 868 1494 l 1,2,-1
 1040 1385 l 1,3,-1
 1040 -11 l 1,0,-1
553 -11 m 1,4,-1
 380 98 l 1,5,-1
 380 1494 l 1,6,-1
 553 1385 l 1,7,-1
 553 -11 l 1,4,-1
EndSplineSet
Validated: 1
EndChar

StartChar: l.zero
Encoding: 2406 2406 149
Width: 1271
GlyphClass: 2
Flags: W
LayerCount: 2
Fore
SplineSet
252 700 m 0,0,1
 252 790 252 790 294 878.5 c 128,-1,2
 336 967 336 967 401.5 1028.5 c 128,-1,3
 467 1090 467 1090 542.5 1126.5 c 128,-1,4
 618 1163 618 1163 688 1163 c 256,5,6
 758 1163 758 1163 827.5 1132.5 c 128,-1,7
 897 1102 897 1102 954.5 1049.5 c 128,-1,8
 1012 997 1012 997 1048.5 918.5 c 128,-1,9
 1085 840 1085 840 1085 750 c 0,10,11
 1085 697 1085 697 1063.5 633 c 128,-1,12
 1042 569 1042 569 1001.5 509 c 128,-1,13
 961 449 961 449 908.5 399.5 c 128,-1,14
 856 350 856 350 791.5 318.5 c 128,-1,15
 727 287 727 287 659 287 c 0,16,17
 577 287 577 287 503.5 316.5 c 128,-1,18
 430 346 430 346 373.5 399.5 c 128,-1,19
 317 453 317 453 284.5 530.5 c 128,-1,20
 252 608 252 608 252 700 c 0,0,1
932 676 m 0,21,22
 932 762 932 762 890 842 c 128,-1,23
 848 922 848 922 776.5 971 c 128,-1,24
 705 1020 705 1020 625 1020 c 0,25,26
 521 1020 521 1020 464.5 955.5 c 128,-1,27
 408 891 408 891 408 778 c 0,28,29
 408 672 408 672 456 592 c 128,-1,30
 504 512 504 512 584 471 c 128,-1,31
 664 430 664 430 760 430 c 0,32,33
 832 430 832 430 882 500 c 128,-1,34
 932 570 932 570 932 676 c 0,21,22
EndSplineSet
Validated: 1
EndChar

StartChar: l.one
Encoding: 2407 2407 150
Width: 1271
GlyphClass: 2
Flags: W
LayerCount: 2
Fore
SplineSet
797 -137 m 1,0,1
 822 -119 822 -119 843 -95.5 c 128,-1,2
 864 -72 864 -72 864 -51 c 0,3,4
 864 -45 864 -45 861 -37 c 128,-1,5
 858 -29 858 -29 851 -16.5 c 128,-1,6
 844 -4 844 -4 840 2 c 128,-1,7
 836 8 836 8 823.5 27.5 c 128,-1,8
 811 47 811 47 807 53 c 0,9,10
 766 114 766 114 589 280 c 128,-1,11
 412 446 412 446 319 520 c 1,12,13
 376 571 376 571 471.5 675.5 c 128,-1,14
 567 780 567 780 602 831 c 1,15,16
 448 911 448 911 357 1007.5 c 128,-1,17
 266 1104 266 1104 266 1190 c 0,18,19
 266 1266 266 1266 306 1337.5 c 128,-1,20
 346 1409 346 1409 413.5 1453 c 128,-1,21
 481 1497 481 1497 557 1497 c 0,22,23
 623 1497 623 1497 694.5 1456 c 128,-1,24
 766 1415 766 1415 817 1356.5 c 128,-1,25
 868 1298 868 1298 903 1234.5 c 128,-1,26
 938 1171 938 1171 938 1124 c 0,27,28
 938 1085 938 1085 932 1052.5 c 128,-1,29
 926 1020 926 1020 908.5 982 c 128,-1,30
 891 944 891 944 871.5 914.5 c 128,-1,31
 852 885 852 885 813 832.5 c 128,-1,32
 774 780 774 780 740.5 739 c 128,-1,33
 707 698 707 698 643.5 620.5 c 128,-1,34
 580 543 580 543 528 475 c 1,35,36
 622 397 622 397 764.5 266 c 128,-1,37
 907 135 907 135 967 70 c 1,38,39
 1053 -28 1053 -28 1053 -115 c 0,40,41
 1053 -197 1053 -197 987 -254 c 1,42,-1
 797 -137 l 1,0,1
651 903 m 1,43,44
 694 946 694 946 730 1035 c 128,-1,45
 766 1124 766 1124 766 1184 c 0,46,47
 766 1260 766 1260 725 1307 c 128,-1,48
 684 1354 684 1354 616 1354 c 0,49,50
 561 1354 561 1354 499.5 1287.5 c 128,-1,51
 438 1221 438 1221 438 1143 c 0,52,53
 438 1034 438 1034 651 903 c 1,43,44
EndSplineSet
Validated: 1
EndChar

StartChar: l.two
Encoding: 2408 2408 151
Width: 1251
GlyphClass: 2
Flags: W
LayerCount: 2
Fore
SplineSet
578 487 m 1,0,1
 441 487 441 487 384.5 537.5 c 128,-1,2
 328 588 328 588 328 694 c 0,3,4
 328 745 328 745 336.5 781 c 128,-1,5
 345 817 345 817 357 827 c 1,6,7
 377 850 377 850 396.5 856 c 128,-1,8
 416 862 416 862 445 864 c 0,9,10
 451 864 451 864 464.5 853 c 128,-1,11
 478 842 478 842 497.5 820.5 c 128,-1,12
 517 799 517 799 532 780.5 c 128,-1,13
 547 762 547 762 570.5 733.5 c 128,-1,14
 594 705 594 705 605 694 c 1,15,16
 761 725 761 725 851 839.5 c 128,-1,17
 941 954 941 954 941 1106 c 0,18,19
 941 1233 941 1233 877.5 1296.5 c 128,-1,20
 814 1360 814 1360 711 1360 c 0,21,22
 625 1360 625 1360 507.5 1330 c 128,-1,23
 390 1300 390 1300 291 1257 c 1,24,-1
 158 1413 l 1,25,26
 287 1468 287 1468 395.5 1494 c 128,-1,27
 504 1520 504 1520 644 1520 c 0,28,29
 695 1520 695 1520 754.5 1496.5 c 128,-1,30
 814 1473 814 1473 870 1426.5 c 128,-1,31
 926 1380 926 1380 971 1323 c 128,-1,32
 1016 1266 1016 1266 1043 1191 c 128,-1,33
 1070 1116 1070 1116 1070 1038 c 0,34,35
 1070 925 1070 925 1029 823 c 128,-1,36
 988 721 988 721 905 639 c 128,-1,37
 822 557 822 557 705 516 c 1,38,-1
 1092 -150 l 1,39,-1
 990 -213 l 1,40,-1
 578 487 l 1,0,1
EndSplineSet
Validated: 1
EndChar

StartChar: l.three
Encoding: 2409 2409 152
Width: 1271
GlyphClass: 2
Flags: W
LayerCount: 2
Fore
SplineSet
926 -233 m 1,0,-1
 702 100 l 2,1,2
 665 155 665 155 625.5 174 c 128,-1,3
 586 193 586 193 494 205 c 1,4,5
 420 213 420 213 386 263 c 128,-1,6
 352 313 352 313 352 389 c 0,7,8
 352 422 352 422 356 445.5 c 128,-1,9
 360 469 360 469 370.5 492.5 c 128,-1,10
 381 516 381 516 402.5 527.5 c 128,-1,11
 424 539 424 539 455 539 c 0,12,13
 478 539 478 539 524.5 491.5 c 128,-1,14
 571 444 571 444 631 365 c 1,15,16
 783 371 783 371 867.5 443.5 c 128,-1,17
 952 516 952 516 952 631 c 0,18,19
 952 680 952 680 925.5 731 c 128,-1,20
 899 782 899 782 855 815 c 128,-1,21
 811 848 811 848 768 848 c 0,22,23
 762 848 762 848 715 839.5 c 128,-1,24
 668 831 668 831 597 821 c 128,-1,25
 526 811 526 811 455 811 c 0,26,27
 404 811 404 811 378 824.5 c 128,-1,28
 352 838 352 838 332 874 c 1,29,30
 299 937 299 937 299 967 c 0,31,32
 299 1000 299 1000 418 999 c 0,33,34
 463 999 463 999 561 990 c 128,-1,35
 659 981 659 981 666 981 c 0,36,37
 678 981 678 981 698.5 988 c 128,-1,38
 719 995 719 995 743.5 1013.5 c 128,-1,39
 768 1032 768 1032 791.5 1055.5 c 128,-1,40
 815 1079 815 1079 830.5 1115 c 128,-1,41
 846 1151 846 1151 846 1190 c 0,42,43
 846 1266 846 1266 791.5 1300.5 c 128,-1,44
 737 1335 737 1335 618 1335 c 0,45,46
 456 1335 456 1335 244 1325 c 1,47,-1
 152 1491 l 1,48,49
 250 1497 250 1497 522 1497 c 0,50,51
 645 1497 645 1497 721 1467.5 c 128,-1,52
 797 1438 797 1438 872 1364 c 0,53,54
 933 1303 933 1303 966 1232 c 128,-1,55
 999 1161 999 1161 999 1106 c 0,56,57
 999 1055 999 1055 963.5 990.5 c 128,-1,58
 928 926 928 926 881 895 c 1,59,60
 979 807 979 807 1026 753.5 c 128,-1,61
 1073 700 1073 700 1089.5 659 c 128,-1,62
 1106 618 1106 618 1106 567 c 0,63,64
 1106 479 1106 479 1058 400.5 c 128,-1,65
 1010 322 1010 322 930 268.5 c 128,-1,66
 850 215 850 215 754 197 c 1,67,-1
 1016 -160 l 1,68,-1
 926 -233 l 1,0,-1
EndSplineSet
Validated: 33
EndChar

StartChar: l.four
Encoding: 2410 2410 153
Width: 1326
GlyphClass: 2
Flags: W
LayerCount: 2
Fore
SplineSet
1300 1325 m 1,0,-1
 841 846 l 1,1,2
 1005 717 1005 717 1091 614.5 c 128,-1,3
 1177 512 1177 512 1177 453 c 0,4,5
 1177 340 1177 340 1069.5 256 c 128,-1,6
 962 172 962 172 800 172 c 0,7,8
 706 172 706 172 622 214 c 128,-1,9
 538 256 538 256 487 336 c 128,-1,10
 436 416 436 416 436 516 c 0,11,12
 436 596 436 596 483 686 c 128,-1,13
 530 776 530 776 646 885 c 1,14,15
 587 953 587 953 356.5 1132 c 128,-1,16
 126 1311 126 1311 26 1382 c 1,17,-1
 122 1468 l 1,18,-1
 710 954 l 1,19,-1
 1230 1503 l 1,20,-1
 1300 1325 l 1,0,-1
988 492 m 0,21,22
 988 543 988 543 927 624 c 128,-1,23
 866 705 866 705 775 774 c 1,24,25
 683 682 683 682 622.5 594 c 128,-1,26
 562 506 562 506 562 446 c 0,27,28
 562 383 562 383 617.5 341 c 128,-1,29
 673 299 673 299 739 299 c 0,30,31
 798 299 798 299 857.5 329.5 c 128,-1,32
 917 360 917 360 952.5 404.5 c 128,-1,33
 988 449 988 449 988 492 c 0,21,22
EndSplineSet
Validated: 1
EndChar

StartChar: l.five
Encoding: 2411 2411 154
Width: 1271
GlyphClass: 2
Flags: W
LayerCount: 2
Fore
SplineSet
360 1360 m 1,0,1
 305 1202 305 1202 264 1031 c 128,-1,2
 223 860 223 860 223 797 c 0,3,4
 223 695 223 695 300 628 c 128,-1,5
 377 561 377 561 483 561 c 0,6,7
 542 561 542 561 621 599 c 128,-1,8
 700 637 700 637 729 682 c 1,9,10
 717 717 717 717 700.5 781.5 c 128,-1,11
 684 846 684 846 684 866 c 0,12,13
 684 884 684 884 687 896.5 c 128,-1,14
 690 909 690 909 699.5 922.5 c 128,-1,15
 709 936 709 936 726 942 c 128,-1,16
 743 948 743 948 770 950 c 1,17,18
 797 950 797 950 843 916.5 c 128,-1,19
 889 883 889 883 927 839 c 128,-1,20
 965 795 965 795 963 770 c 1,21,22
 963 688 963 688 893 588 c 1,23,-1
 1217 -180 l 1,24,-1
 1098 -233 l 1,25,-1
 815 504 l 1,26,27
 756 459 756 459 686 430 c 128,-1,28
 616 401 616 401 559 401 c 0,29,30
 485 401 485 401 397 446.5 c 128,-1,31
 309 492 309 492 237.5 560.5 c 128,-1,32
 166 629 166 629 118 716 c 128,-1,33
 70 803 70 803 70 881 c 0,34,35
 70 963 70 963 100.5 1150 c 128,-1,36
 131 1337 131 1337 180 1497 c 1,37,-1
 360 1360 l 1,0,1
EndSplineSet
Validated: 33
EndChar

StartChar: l.six
Encoding: 2412 2412 155
Width: 1271
GlyphClass: 2
Flags: W
LayerCount: 2
Fore
SplineSet
913 1311 m 1,0,1
 753 1336 753 1336 651 1335 c 1,2,3
 547 1335 547 1335 477.5 1323 c 128,-1,4
 408 1311 408 1311 367 1286.5 c 128,-1,5
 326 1262 326 1262 309.5 1227 c 128,-1,6
 293 1192 293 1192 293 1143 c 0,7,8
 293 1104 293 1104 312.5 1066 c 128,-1,9
 332 1028 332 1028 360.5 1005.5 c 128,-1,10
 389 983 389 983 420 968.5 c 128,-1,11
 451 954 451 954 475 954 c 0,12,13
 500 954 500 954 588 970.5 c 128,-1,14
 676 987 676 987 766 987 c 0,15,16
 817 987 817 987 847 968.5 c 128,-1,17
 877 950 877 950 895 909 c 0,18,19
 924 839 924 839 924 819 c 256,20,21
 924 799 924 799 894 786.5 c 128,-1,22
 864 774 864 774 803 774 c 0,23,24
 795 774 795 774 689.5 785.5 c 128,-1,25
 584 797 584 797 553 797 c 0,26,27
 541 797 541 797 518.5 787.5 c 128,-1,28
 496 778 496 778 468 758.5 c 128,-1,29
 440 739 440 739 417.5 714.5 c 128,-1,30
 395 690 395 690 380 653 c 128,-1,31
 365 616 365 616 365 578 c 0,32,33
 365 531 365 531 386.5 484.5 c 128,-1,34
 408 438 408 438 444.5 401.5 c 128,-1,35
 481 365 481 365 537.5 343.5 c 128,-1,36
 594 322 594 322 655 322 c 0,37,38
 686 322 686 322 727 330 c 128,-1,39
 768 338 768 338 788 352 c 1,40,41
 778 368 778 368 766 428.5 c 128,-1,42
 754 489 754 489 754 508 c 0,43,44
 754 522 754 522 780.5 540.5 c 128,-1,45
 807 559 807 559 823 559 c 0,46,47
 843 559 843 559 900.5 529.5 c 128,-1,48
 958 500 958 500 1008.5 458 c 128,-1,49
 1059 416 1059 416 1057 387 c 1,50,51
 1057 289 1057 289 975 236 c 1,52,-1
 1182 -166 l 1,53,-1
 1083 -213 l 1,54,-1
 889 184 l 1,55,56
 864 178 864 178 819 178 c 0,57,58
 706 178 706 178 589.5 222 c 128,-1,59
 473 266 473 266 387 333.5 c 128,-1,60
 301 401 301 401 247 489.5 c 128,-1,61
 193 578 193 578 193 659 c 0,62,63
 193 720 193 720 231.5 791 c 128,-1,64
 270 862 270 862 324 895 c 1,65,66
 232 973 232 973 176.5 1064 c 128,-1,67
 121 1155 121 1155 121 1233 c 0,68,69
 121 1356 121 1356 233.5 1426.5 c 128,-1,70
 346 1497 346 1497 580 1497 c 0,71,72
 635 1497 635 1497 717 1487 c 128,-1,73
 799 1477 799 1477 838 1470 c 1,74,-1
 913 1311 l 1,0,1
EndSplineSet
Validated: 33
EndChar

StartChar: l.seven
Encoding: 2413 2413 156
Width: 1271
GlyphClass: 2
Flags: W
LayerCount: 2
Fore
SplineSet
106 1534 m 1,0,1
 153 950 153 950 314 656 c 128,-1,2
 475 362 475 362 745 360 c 1,3,4
 911 360 911 360 999 464.5 c 128,-1,5
 1087 569 1087 569 1098 762 c 1,6,7
 1037 705 1037 705 932 705 c 0,8,9
 920 705 920 705 895 709 c 128,-1,10
 870 713 870 713 834.5 724 c 128,-1,11
 799 735 799 735 762 753.5 c 128,-1,12
 725 772 725 772 688 804 c 128,-1,13
 651 836 651 836 622.5 874.5 c 128,-1,14
 594 913 594 913 575.5 972.5 c 128,-1,15
 557 1032 557 1032 557 1102 c 0,16,17
 557 1202 557 1202 624.5 1275 c 128,-1,18
 692 1348 692 1348 788 1348 c 0,19,20
 843 1348 843 1348 913 1317 c 128,-1,21
 983 1286 983 1286 1053.5 1226.5 c 128,-1,22
 1124 1167 1124 1167 1167 1096 c 0,23,24
 1202 1037 1202 1037 1214.5 962 c 128,-1,25
 1227 887 1227 887 1227 770 c 0,26,27
 1227 631 1227 631 1189 516 c 128,-1,28
 1151 401 1151 401 1085.5 326.5 c 128,-1,29
 1020 252 1020 252 935 212 c 128,-1,30
 850 172 850 172 754 172 c 0,31,32
 623 172 623 172 510 236.5 c 128,-1,33
 397 301 397 301 314 418 c 128,-1,34
 231 535 231 535 168.5 699.5 c 128,-1,35
 106 864 106 864 68.5 1065 c 128,-1,36
 31 1266 31 1266 14 1497 c 1,37,-1
 106 1534 l 1,0,1
877 809 m 0,38,39
 934 809 934 809 991.5 853 c 128,-1,40
 1049 897 1049 897 1077 961 c 1,41,42
 1063 1076 1063 1076 1017 1140 c 128,-1,43
 971 1204 971 1204 905 1204 c 0,44,45
 817 1204 817 1204 764 1147 c 128,-1,46
 711 1090 711 1090 711 997 c 0,47,48
 711 913 711 913 758 861 c 128,-1,49
 805 809 805 809 877 809 c 0,38,39
EndSplineSet
Validated: 1
EndChar

StartChar: l.eight
Encoding: 2414 2414 157
Width: 1271
GlyphClass: 2
Flags: W
LayerCount: 2
Fore
SplineSet
1010 1364 m 1,0,-1
 324 524 l 1,1,2
 271 452 271 452 274 401 c 0,3,4
 278 346 278 346 329.5 299 c 128,-1,5
 381 252 381 252 446.5 226.5 c 128,-1,6
 512 201 512 201 569 201 c 0,7,8
 678 201 678 201 796.5 275.5 c 128,-1,9
 915 350 915 350 1073 500 c 1,10,-1
 1192 367 l 1,11,12
 938 74 938 74 653 74 c 0,13,14
 549 74 549 74 449.5 110.5 c 128,-1,15
 350 147 350 147 279.5 202.5 c 128,-1,16
 209 258 209 258 166 328.5 c 128,-1,17
 123 399 123 399 121 465 c 0,18,19
 119 504 119 504 135.5 552 c 128,-1,20
 152 600 152 600 184 645 c 0,21,22
 374 903 374 903 930 1536 c 1,23,-1
 1010 1364 l 1,0,-1
EndSplineSet
Validated: 33
EndChar

StartChar: l.nine
Encoding: 2415 2415 158
Width: 1271
GlyphClass: 2
Flags: W
LayerCount: 2
Fore
SplineSet
827 -66 m 1,0,1
 913 0 913 0 941 28.5 c 128,-1,2
 969 57 969 57 969 82 c 0,3,4
 969 131 969 131 920.5 192.5 c 128,-1,5
 872 254 872 254 696 436 c 1,6,-1
 311 856 l 2,7,8
 258 915 258 915 225.5 959.5 c 128,-1,9
 193 1004 193 1004 178.5 1036.5 c 128,-1,10
 164 1069 164 1069 160 1090.5 c 128,-1,11
 156 1112 156 1112 156 1141 c 0,12,13
 156 1245 156 1245 211 1333 c 128,-1,14
 266 1421 266 1421 359.5 1470.5 c 128,-1,15
 453 1520 453 1520 561 1520 c 0,16,17
 633 1520 633 1520 705.5 1487 c 128,-1,18
 778 1454 778 1454 832.5 1403 c 128,-1,19
 887 1352 887 1352 920.5 1287.5 c 128,-1,20
 954 1223 954 1223 954 1159 c 0,21,22
 954 1083 954 1083 914 1012.5 c 128,-1,23
 874 942 874 942 809.5 891 c 128,-1,24
 745 840 745 840 659 811 c 128,-1,25
 573 782 573 782 487 788 c 1,26,27
 567 692 567 692 983 274 c 1,28,29
 1141 118 1141 118 1141 33 c 0,30,31
 1141 -16 1141 -16 1097 -77.5 c 128,-1,32
 1053 -139 1053 -139 989 -193 c 1,33,-1
 827 -66 l 1,0,1
369 913 m 1,34,35
 461 909 461 909 539.5 932.5 c 128,-1,36
 618 956 618 956 670.5 1002.5 c 128,-1,37
 723 1049 723 1049 752.5 1110 c 128,-1,38
 782 1171 782 1171 782 1245 c 0,39,40
 782 1376 782 1376 639 1376 c 0,41,42
 602 1376 602 1376 561 1367 c 128,-1,43
 520 1358 520 1358 478 1334.5 c 128,-1,44
 436 1311 436 1311 403.5 1277 c 128,-1,45
 371 1243 371 1243 349.5 1189 c 128,-1,46
 328 1135 328 1135 328 1067 c 0,47,48
 328 989 328 989 369 913 c 1,34,35
EndSplineSet
Validated: 33
EndChar

StartChar: vs.abbr.sign
Encoding: 2416 2416 159
Width: 1167
GlyphClass: 2
Flags: W
LayerCount: 2
Fore
SplineSet
963 707 m 0,0,1
 963 553 963 553 844 442 c 1,2,3
 731 340 731 340 573 340 c 256,4,5
 415 340 415 340 299 442 c 0,6,7
 180 548 180 548 180 707 c 0,8,9
 180 865 180 865 299 971 c 1,10,11
 414 1075 414 1075 573 1075 c 0,12,13
 731 1075 731 1075 847 969 c 128,-1,14
 963 863 963 863 963 707 c 0,0,1
823 707 m 256,15,16
 823 805 823 805 749.5 873.5 c 128,-1,17
 676 942 676 942 573 942 c 0,18,19
 471 942 471 942 398.5 875.5 c 128,-1,20
 326 809 326 809 326 707 c 256,21,22
 326 605 326 605 398.5 538 c 128,-1,23
 471 471 471 471 573 471 c 0,24,25
 673 471 673 471 748 540 c 128,-1,26
 823 609 823 609 823 707 c 256,15,16
EndSplineSet
Validated: 1
EndChar

StartChar: uni0971
Encoding: 2417 2417 160
Width: 157
GlyphClass: 2
Flags: W
LayerCount: 2
Fore
SplineSet
5 1327 m 1,0,-1
 139 1459 l 1,1,-1
 274 1322 l 1,2,-1
 144 1193 l 1,3,-1
 5 1327 l 1,0,-1
EndSplineSet
Validated: 1
EndChar

StartChar: l.chandra.a
Encoding: 2418 2418 161
Width: 1749
GlyphClass: 2
Flags: W
LayerCount: 2
Fore
SplineSet
1927 1924 m 1,0,1
 1884 1809 1884 1809 1770 1727.5 c 128,-1,2
 1656 1646 1656 1646 1541 1646 c 0,3,4
 1395 1646 1395 1646 1262 1754 c 1,5,6
 1150 1847 1150 1847 1085 1984 c 1,7,-1
 1153 2019 l 1,8,9
 1306 1789 1306 1789 1478 1789 c 0,10,11
 1584 1789 1584 1789 1675 1880 c 1,12,13
 1741 1949 1741 1949 1779 2044 c 1,14,-1
 1927 1924 l 1,0,1
1836 1336 m 1,15,-1
 1617 1336 l 1,16,-1
 1617 0 l 1,17,-1
 1439 101 l 1,18,-1
 1450 662 l 1,19,20
 1376 630 1376 630 1264 631 c 1,21,22
 1149 631 1149 631 1035 714 c 1,23,-1
 1029 708 l 1,24,25
 1072 643 1072 643 1072 561 c 0,26,27
 1072 403 1072 403 963 310.5 c 128,-1,28
 854 218 854 218 685 218 c 0,29,30
 343 218 343 218 88 769 c 1,31,-1
 167 815 l 1,32,33
 361 379 361 379 640 378 c 0,34,35
 763 378 763 378 840 462.5 c 128,-1,36
 917 547 917 547 917 659 c 0,37,38
 917 823 917 823 766 869 c 1,39,40
 545 784 545 784 519 783 c 0,41,42
 500 783 500 783 445.5 844.5 c 128,-1,43
 391 906 391 906 391 923 c 0,44,45
 391 972 391 972 438 972 c 0,46,47
 461 972 461 972 553 985 c 128,-1,48
 645 998 645 998 665 998 c 0,49,50
 706 998 706 998 757 1056 c 1,51,52
 823 1127 823 1127 823 1215 c 0,53,54
 823 1393 823 1393 651 1393 c 0,55,56
 568 1393 568 1393 447 1328.5 c 128,-1,57
 326 1264 326 1264 330 1264 c 1,58,59
 308 1264 308 1264 287 1299 c 0,60,61
 255 1354 255 1354 230 1420 c 1,62,63
 424 1520 424 1520 547 1519 c 1,64,65
 696 1519 696 1519 848 1376 c 0,66,67
 977 1256 977 1256 977 1130 c 0,68,69
 977 1070 977 1070 938.5 1009.5 c 128,-1,70
 900 949 900 949 843 923 c 1,71,72
 1035 774 1035 774 1204 774 c 0,73,74
 1253 774 1253 774 1337.5 808.5 c 128,-1,75
 1422 843 1422 843 1445 875 c 1,76,-1
 1445 1336 l 1,77,-1
 1098 1336 l 1,78,-1
 1011 1497 l 1,79,-1
 1749 1497 l 1,80,-1
 1836 1336 l 1,15,-1
EndSplineSet
Validated: 33
EndChar

StartChar: uni0973
Encoding: 2419 2419 162
Width: 1740
GlyphClass: 2
Flags: W
LayerCount: 2
Fore
SplineSet
1455 1497 m 1,0,-1
 1455 1813 l 1,1,-1
 1607 1902 l 1,2,-1
 1607 1497 l 1,3,-1
 1570 1497 l 1,4,-1
 1455 1497 l 1,0,-1
1827 1336 m 1,5,-1
 1607 1336 l 1,6,-1
 1607 8 l 1,7,-1
 1449 98 l 1,8,-1
 1460 662 l 1,9,-1
 1446 662 l 1,10,11
 1370 630 1370 630 1264 631 c 1,12,13
 1156 631 1156 631 1041 714 c 1,14,-1
 1028 714 l 1,15,-1
 1022 708 l 1,16,-1
 1021 708 l 1,17,18
 1062 648 1062 648 1062 561 c 0,19,20
 1062 398 1062 398 957 310 c 0,21,22
 847 218 847 218 685 218 c 0,23,24
 353 218 353 218 96 771 c 1,25,-1
 161 809 l 1,26,27
 351 380 351 380 640 378 c 0,28,29
 770 378 770 378 847 462 c 1,30,31
 927 551 927 551 927 659 c 0,32,33
 927 821 927 821 769 869 c 1,34,-1
 762 869 l 1,35,36
 650 826 650 826 589.5 805 c 128,-1,37
 529 784 529 784 518 783 c 0,38,39
 507 783 507 783 452 844 c 0,40,41
 401 901 401 901 401 923 c 0,42,43
 401 972 401 972 438 972 c 0,44,45
 450 972 450 972 479 975 c 128,-1,46
 508 978 508 978 554 985 c 256,47,48
 600 992 600 992 628 995 c 128,-1,49
 656 998 656 998 665 998 c 0,50,51
 713 998 713 998 764 1056 c 1,52,53
 833 1131 833 1131 833 1215 c 0,54,55
 833 1393 833 1393 651 1393 c 0,56,57
 564 1393 564 1393 442 1328 c 0,58,59
 324 1265 324 1265 329 1264 c 1,60,61
 316 1264 316 1264 296 1299 c 0,62,63
 280 1328 280 1328 265.5 1358 c 128,-1,64
 251 1388 251 1388 238 1422 c 1,65,66
 429 1520 429 1520 547 1519 c 0,67,68
 616 1519 616 1519 691.5 1481.5 c 128,-1,69
 767 1444 767 1444 841 1376 c 1,70,71
 897 1320 897 1320 932 1255.5 c 128,-1,72
 967 1191 967 1191 967 1130 c 0,73,74
 967 1067 967 1067 930 1009 c 0,75,76
 890 945 890 945 839 923 c 1,77,-1
 837 923 l 1,78,79
 1030 774 1030 774 1204 774 c 0,80,81
 1258 774 1258 774 1341 808 c 1,82,83
 1431 843 1431 843 1453 875 c 1,84,-1
 1455 875 l 1,85,-1
 1455 1336 l 1,86,-1
 1107 1336 l 1,87,-1
 1020 1497 l 1,88,-1
 1740 1497 l 1,89,-1
 1827 1336 l 1,5,-1
EndSplineSet
Validated: 37
EndChar

StartChar: uni0974
Encoding: 2420 2420 163
Width: 2308
GlyphClass: 2
Flags: W
LayerCount: 2
Fore
SplineSet
2015 1497 m 1,0,-1
 2015 1813 l 1,1,-1
 2167 1902 l 1,2,-1
 2167 1497 l 1,3,-1
 2130 1497 l 1,4,-1
 2015 1497 l 1,0,-1
2386 1336 m 1,5,-1
 2166 1336 l 1,6,-1
 2166 9 l 1,7,-1
 2011 98 l 1,8,-1
 2017 1336 l 1,9,-1
 1844 1336 l 1,10,-1
 1757 1497 l 1,11,-1
 2299 1497 l 1,12,-1
 2386 1336 l 1,5,-1
1826 1336 m 1,13,-1
 1607 1336 l 1,14,-1
 1607 8 l 1,15,-1
 1449 98 l 1,16,-1
 1460 662 l 1,17,-1
 1446 662 l 1,18,19
 1370 630 1370 630 1264 631 c 1,20,21
 1156 631 1156 631 1041 714 c 1,22,-1
 1028 714 l 1,23,-1
 1022 708 l 1,24,-1
 1021 708 l 1,25,26
 1062 648 1062 648 1062 561 c 0,27,28
 1062 398 1062 398 957 310 c 0,29,30
 847 218 847 218 685 218 c 0,31,32
 353 218 353 218 96 771 c 1,33,-1
 161 809 l 1,34,35
 351 380 351 380 640 378 c 0,36,37
 770 378 770 378 847 462 c 1,38,39
 927 551 927 551 927 659 c 0,40,41
 927 821 927 821 769 869 c 1,42,-1
 762 869 l 1,43,44
 650 826 650 826 589.5 805 c 128,-1,45
 529 784 529 784 518 783 c 0,46,47
 507 783 507 783 452 844 c 0,48,49
 401 901 401 901 401 923 c 0,50,51
 401 972 401 972 438 972 c 0,52,53
 450 972 450 972 479 975 c 128,-1,54
 508 978 508 978 554 985 c 256,55,56
 600 992 600 992 628 995 c 128,-1,57
 656 998 656 998 665 998 c 0,58,59
 713 998 713 998 764 1056 c 1,60,61
 833 1131 833 1131 833 1215 c 0,62,63
 833 1393 833 1393 651 1393 c 0,64,65
 564 1393 564 1393 442 1328 c 0,66,67
 324 1265 324 1265 329 1264 c 1,68,69
 316 1264 316 1264 296 1299 c 0,70,71
 280 1328 280 1328 265.5 1358 c 128,-1,72
 251 1388 251 1388 238 1422 c 1,73,74
 429 1520 429 1520 547 1519 c 0,75,76
 616 1519 616 1519 691.5 1481.5 c 128,-1,77
 767 1444 767 1444 841 1376 c 1,78,79
 897 1320 897 1320 932 1255.5 c 128,-1,80
 967 1191 967 1191 967 1130 c 0,81,82
 967 1067 967 1067 930 1009 c 0,83,84
 890 945 890 945 839 923 c 1,85,-1
 837 923 l 1,86,87
 1030 774 1030 774 1204 774 c 0,88,89
 1258 774 1258 774 1341 808 c 1,90,91
 1431 843 1431 843 1453 875 c 1,92,-1
 1455 875 l 1,93,-1
 1455 1336 l 1,94,-1
 1107 1336 l 1,95,-1
 1020 1497 l 1,96,-1
 1739 1497 l 1,97,-1
 1826 1336 l 1,13,-1
EndSplineSet
Validated: 37
EndChar

StartChar: l.aw
Encoding: 2421 2421 164
Width: 2308
GlyphClass: 2
Flags: W
LayerCount: 2
Fore
SplineSet
1881 2324 m 1,0,-1
 1925 2291 l 1,1,2
 1869 2219 1869 2219 1873 2169 c 128,-1,3
 1877 2119 1877 2119 1947 2067 c 1,4,5
 1943 2070 1943 2070 2037 2007 c 2,6,-1
 2131 1945 l 2,7,8
 2249 1868 2249 1868 2278 1725 c 1,9,10
 2306 1592 2306 1592 2217 1481 c 1,11,-1
 2158 1404 l 1,12,-1
 2113 1438 l 1,13,14
 2195 1544 2195 1544 2190 1626 c 0,15,16
 2183 1724 2183 1724 2080 1788 c 0,17,18
 2071 1794 2071 1794 1998 1842 c 1,19,20
 1939 1878 1939 1878 1906 1904 c 0,21,22
 1813 1974 1813 1974 1794 2079 c 128,-1,23
 1775 2184 1775 2184 1847 2277 c 1,24,-1
 1881 2324 l 1,0,-1
1306 1956 m 1,25,-1
 1360 1959 l 1,26,27
 1363 1869 1363 1869 1399.5 1834 c 128,-1,28
 1436 1799 1436 1799 1522 1803 c 1,29,30
 1516 1802 1516 1802 1629 1816 c 2,31,-1
 1743 1830 l 2,32,33
 1879 1846 1879 1846 1995 1756 c 0,34,35
 2103 1671 2103 1671 2107 1530 c 2,36,-1
 2110 1434 l 1,37,-1
 2056 1432 l 1,38,39
 2050 1566 2050 1566 1993 1624 c 0,40,41
 1944 1675 1944 1675 1805 1676 c 0,42,43
 1784 1677 1784 1677 1705 1664 c 0,44,45
 1640 1654 1640 1654 1596 1652 c 0,46,47
 1481 1646 1481 1646 1398 1714 c 0,48,49
 1317 1781 1317 1781 1309 1898 c 1,50,-1
 1306 1956 l 1,25,-1
2395 1336 m 1,51,-1
 2176 1336 l 1,52,-1
 2176 0 l 1,53,-1
 2001 101 l 1,54,-1
 2007 1336 l 1,55,-1
 1835 1336 l 1,56,-1
 1748 1497 l 1,57,-1
 2308 1497 l 1,58,-1
 2395 1336 l 1,51,-1
1835 1336 m 1,59,-1
 1617 1336 l 1,60,-1
 1617 0 l 1,61,-1
 1439 101 l 1,62,-1
 1450 662 l 1,63,64
 1376 630 1376 630 1264 631 c 1,65,66
 1149 631 1149 631 1035 714 c 1,67,-1
 1029 708 l 1,68,69
 1072 643 1072 643 1072 561 c 0,70,71
 1072 403 1072 403 963 310.5 c 128,-1,72
 854 218 854 218 685 218 c 0,73,74
 343 218 343 218 88 769 c 1,75,-1
 167 815 l 1,76,77
 361 379 361 379 640 378 c 0,78,79
 763 378 763 378 840 462.5 c 128,-1,80
 917 547 917 547 917 659 c 0,81,82
 917 823 917 823 766 869 c 1,83,84
 545 784 545 784 519 783 c 0,85,86
 500 783 500 783 445.5 844.5 c 128,-1,87
 391 906 391 906 391 923 c 0,88,89
 391 972 391 972 438 972 c 0,90,91
 461 972 461 972 553 985 c 128,-1,92
 645 998 645 998 665 998 c 0,93,94
 706 998 706 998 757 1056 c 1,95,96
 823 1127 823 1127 823 1215 c 0,97,98
 823 1393 823 1393 651 1393 c 0,99,100
 568 1393 568 1393 447 1328.5 c 128,-1,101
 326 1264 326 1264 330 1264 c 1,102,103
 308 1264 308 1264 287 1299 c 0,104,105
 255 1354 255 1354 230 1420 c 1,106,107
 424 1520 424 1520 547 1519 c 1,108,109
 696 1519 696 1519 848 1376 c 0,110,111
 977 1256 977 1256 977 1130 c 0,112,113
 977 1070 977 1070 938.5 1009.5 c 128,-1,114
 900 949 900 949 843 923 c 1,115,116
 1035 774 1035 774 1204 774 c 0,117,118
 1253 774 1253 774 1337.5 808.5 c 128,-1,119
 1422 843 1422 843 1445 875 c 1,120,-1
 1445 1336 l 1,121,-1
 1098 1336 l 1,122,-1
 1011 1497 l 1,123,-1
 1748 1497 l 1,124,-1
 1835 1336 l 1,59,-1
EndSplineSet
Validated: 37
EndChar

StartChar: l.ue
Encoding: 2422 2422 165
Width: 1748
GlyphClass: 2
Flags: W
LayerCount: 2
Fore
SplineSet
1582 -80 m 1,0,1
 1402 -347 1402 -347 1154 -347 c 0,2,3
 867 -347 867 -347 726 -80 c 1,4,-1
 848 -80 l 1,5,6
 980 -216 980 -216 1154 -215 c 0,7,8
 1340 -214 1340 -214 1460 -80 c 1,9,-1
 1582 -80 l 1,0,1
1835 1336 m 1,10,-1
 1617 1336 l 1,11,-1
 1617 0 l 1,12,-1
 1439 101 l 1,13,-1
 1450 662 l 1,14,15
 1376 630 1376 630 1264 631 c 1,16,17
 1149 631 1149 631 1035 714 c 1,18,-1
 1029 708 l 1,19,20
 1072 643 1072 643 1072 561 c 0,21,22
 1072 403 1072 403 963 310.5 c 128,-1,23
 854 218 854 218 685 218 c 0,24,25
 343 218 343 218 88 769 c 1,26,-1
 167 815 l 1,27,28
 361 379 361 379 640 378 c 0,29,30
 763 378 763 378 840 462.5 c 128,-1,31
 917 547 917 547 917 659 c 0,32,33
 917 823 917 823 766 869 c 1,34,35
 545 784 545 784 519 783 c 0,36,37
 500 783 500 783 445.5 844.5 c 128,-1,38
 391 906 391 906 391 923 c 0,39,40
 391 972 391 972 438 972 c 0,41,42
 461 972 461 972 553 985 c 128,-1,43
 645 998 645 998 665 998 c 0,44,45
 706 998 706 998 757 1056 c 1,46,47
 823 1127 823 1127 823 1215 c 0,48,49
 823 1393 823 1393 651 1393 c 0,50,51
 568 1393 568 1393 447 1328.5 c 128,-1,52
 326 1264 326 1264 330 1264 c 1,53,54
 308 1264 308 1264 287 1299 c 0,55,56
 255 1354 255 1354 230 1420 c 1,57,58
 424 1520 424 1520 547 1519 c 1,59,60
 696 1519 696 1519 848 1376 c 0,61,62
 977 1256 977 1256 977 1130 c 0,63,64
 977 1070 977 1070 938.5 1009.5 c 128,-1,65
 900 949 900 949 843 923 c 1,66,67
 1035 774 1035 774 1204 774 c 0,68,69
 1253 774 1253 774 1337.5 808.5 c 128,-1,70
 1422 843 1422 843 1445 875 c 1,71,-1
 1445 1336 l 1,72,-1
 1098 1336 l 1,73,-1
 1011 1497 l 1,74,-1
 1748 1497 l 1,75,-1
 1835 1336 l 1,10,-1
EndSplineSet
Validated: 33
EndChar

StartChar: l.uue
Encoding: 2423 2423 166
Width: 1748
GlyphClass: 2
Flags: W
LayerCount: 2
Fore
SplineSet
1572 -350 m 1,0,1
 1392 -617 1392 -617 1144 -617 c 0,2,3
 857 -617 857 -617 716 -350 c 1,4,-1
 838 -350 l 1,5,6
 970 -486 970 -486 1144 -485 c 0,7,8
 1330 -484 1330 -484 1450 -350 c 1,9,-1
 1572 -350 l 1,0,1
1572 -80 m 1,10,11
 1392 -347 1392 -347 1144 -347 c 0,12,13
 857 -347 857 -347 716 -80 c 1,14,-1
 838 -80 l 1,15,16
 970 -216 970 -216 1144 -215 c 0,17,18
 1330 -214 1330 -214 1450 -80 c 1,19,-1
 1572 -80 l 1,10,11
1835 1336 m 1,20,-1
 1617 1336 l 1,21,-1
 1617 0 l 1,22,-1
 1439 101 l 1,23,-1
 1450 662 l 1,24,25
 1376 630 1376 630 1264 631 c 1,26,27
 1149 631 1149 631 1035 714 c 1,28,-1
 1029 708 l 1,29,30
 1072 643 1072 643 1072 561 c 0,31,32
 1072 403 1072 403 963 310.5 c 128,-1,33
 854 218 854 218 685 218 c 0,34,35
 343 218 343 218 88 769 c 1,36,-1
 167 815 l 1,37,38
 361 379 361 379 640 378 c 0,39,40
 763 378 763 378 840 462.5 c 128,-1,41
 917 547 917 547 917 659 c 0,42,43
 917 823 917 823 766 869 c 1,44,45
 545 784 545 784 519 783 c 0,46,47
 500 783 500 783 445.5 844.5 c 128,-1,48
 391 906 391 906 391 923 c 0,49,50
 391 972 391 972 438 972 c 0,51,52
 461 972 461 972 553 985 c 128,-1,53
 645 998 645 998 665 998 c 0,54,55
 706 998 706 998 757 1056 c 1,56,57
 823 1127 823 1127 823 1215 c 0,58,59
 823 1393 823 1393 651 1393 c 0,60,61
 568 1393 568 1393 447 1328.5 c 128,-1,62
 326 1264 326 1264 330 1264 c 1,63,64
 308 1264 308 1264 287 1299 c 0,65,66
 255 1354 255 1354 230 1420 c 1,67,68
 424 1520 424 1520 547 1519 c 1,69,70
 696 1519 696 1519 848 1376 c 0,71,72
 977 1256 977 1256 977 1130 c 0,73,74
 977 1070 977 1070 938.5 1009.5 c 128,-1,75
 900 949 900 949 843 923 c 1,76,77
 1035 774 1035 774 1204 774 c 0,78,79
 1253 774 1253 774 1337.5 808.5 c 128,-1,80
 1422 843 1422 843 1445 875 c 1,81,-1
 1445 1336 l 1,82,-1
 1098 1336 l 1,83,-1
 1011 1497 l 1,84,-1
 1748 1497 l 1,85,-1
 1835 1336 l 1,20,-1
EndSplineSet
Validated: 33
EndChar

StartChar: dev.jzha
Encoding: 2425 2425 167
Width: 1543
GlyphClass: 2
Flags: W
LayerCount: 2
Fore
SplineSet
1100 138 m 1,0,-1
 973 9 l 1,1,-1
 846 138 l 1,2,-1
 973 263 l 1,3,-1
 1100 138 l 1,0,-1
846 -85 m 1,4,-1
 718 -214 l 1,5,-1
 591 -85 l 1,6,-1
 718 40 l 1,7,-1
 846 -85 l 1,4,-1
591 138 m 1,8,-1
 464 9 l 1,9,-1
 337 138 l 1,10,-1
 464 263 l 1,11,-1
 591 138 l 1,8,-1
1630 1336 m 1,12,-1
 1411 1336 l 1,13,-1
 1411 0 l 1,14,-1
 1233 101 l 1,15,-1
 1239 906 l 1,16,-1
 831 906 l 1,17,18
 943 794 943 794 987 728 c 1,19,20
 1041 640 1041 640 1040 545 c 1,21,22
 1040 435 1040 435 949 367 c 1,23,24
 872 307 872 307 780 307 c 0,25,26
 579 307 579 307 416 514 c 1,27,28
 309 645 309 645 169 946 c 1,29,-1
 263 987 l 1,30,31
 340 801 340 801 451 651 c 1,32,33
 502 580 502 580 582 529.5 c 128,-1,34
 662 479 662 479 722 479 c 0,35,36
 875 479 875 479 875 640 c 0,37,38
 875 818 875 818 547 1007 c 1,39,-1
 571 1067 l 1,40,-1
 1239 1067 l 1,41,-1
 1239 1336 l 1,42,-1
 0 1336 l 1,43,-1
 -87 1497 l 1,44,-1
 1543 1497 l 1,45,-1
 1630 1336 l 1,12,-1
EndSplineSet
Validated: 33
EndChar

StartChar: l.jjya
Encoding: 2426 2426 168
Width: 1324
GlyphClass: 2
Flags: W
LayerCount: 2
Fore
SplineSet
666 1114 m 1,0,-1
 1169 584 l 1,1,-1
 1122 479 l 1,2,-1
 666 963 l 1,3,-1
 666 1114 l 1,0,-1
1411 1336 m 1,4,-1
 1193 1336 l 1,5,-1
 1193 0 l 1,6,-1
 1015 101 l 1,7,-1
 1026 577 l 1,8,9
 881 437 881 437 717 435 c 1,10,11
 295 435 295 435 172 906 c 1,12,13
 339 938 339 938 437.5 1002.5 c 128,-1,14
 536 1067 536 1067 536 1147 c 0,15,16
 536 1193 536 1193 456 1336 c 1,17,-1
 0 1336 l 1,18,-1
 -87 1497 l 1,19,-1
 1324 1497 l 1,20,-1
 1411 1336 l 1,4,-1
1021 780 m 1,21,-1
 1021 1336 l 1,22,-1
 588 1336 l 1,23,24
 692 1141 692 1141 692 1043 c 0,25,26
 692 882 692 882 370 777 c 1,27,28
 370 561 370 561 561 561 c 0,29,30
 757 561 757 561 1021 780 c 1,21,-1
EndSplineSet
Validated: 5
EndChar

StartChar: uni097B
Encoding: 2427 2427 169
Width: 1267
GlyphClass: 2
Flags: W
LayerCount: 2
Fore
SplineSet
1135 -50 m 1,0,-1
 235 -51 l 1,1,-1
 84 102 l 1,2,-1
 960 101 l 1,3,-1
 1135 -50 l 1,0,-1
1354 1336 m 1,4,-1
 1135 1336 l 1,5,-1
 1135 -50 l 1,6,-1
 960 101 l 1,7,-1
 966 1336 l 1,8,-1
 542 1336 l 1,9,-1
 542 610 l 2,10,11
 542 564 542 564 513 532.5 c 128,-1,12
 484 501 484 501 444 501 c 0,13,14
 409 501 409 501 276 643 c 1,15,16
 172 752 172 752 172 809 c 0,17,18
 172 832 172 832 189 852 c 128,-1,19
 206 872 206 872 221 872 c 2,20,-1
 353 872 l 2,21,22
 370 872 370 872 370 900 c 2,23,-1
 370 1336 l 1,24,-1
 0 1336 l 1,25,-1
 -87 1497 l 1,26,-1
 1267 1497 l 1,27,-1
 1354 1336 l 1,4,-1
EndSplineSet
Validated: 5
EndChar

StartChar: uni097C
Encoding: 2428 2428 170
Width: 1543
GlyphClass: 2
Flags: W
LayerCount: 2
Fore
SplineSet
1411 -50 m 1,0,-1
 508 -51 l 1,1,-1
 357 102 l 1,2,-1
 1233 101 l 1,3,-1
 1411 -50 l 1,0,-1
1630 1336 m 1,4,-1
 1411 1336 l 1,5,-1
 1411 -50 l 1,6,-1
 1233 101 l 1,7,-1
 1239 906 l 1,8,-1
 831 906 l 1,9,10
 943 794 943 794 987 728 c 1,11,12
 1041 640 1041 640 1040 545 c 1,13,14
 1040 435 1040 435 949 367 c 1,15,16
 872 307 872 307 780 307 c 0,17,18
 579 307 579 307 416 514 c 1,19,20
 309 645 309 645 169 946 c 1,21,-1
 263 987 l 1,22,23
 340 801 340 801 451 651 c 1,24,25
 502 580 502 580 582 529.5 c 128,-1,26
 662 479 662 479 722 479 c 0,27,28
 875 479 875 479 875 640 c 0,29,30
 875 818 875 818 547 1007 c 1,31,-1
 571 1067 l 1,32,-1
 1239 1067 l 1,33,-1
 1239 1336 l 1,34,-1
 0 1336 l 1,35,-1
 -87 1497 l 1,36,-1
 1543 1497 l 1,37,-1
 1630 1336 l 1,4,-1
EndSplineSet
Validated: 37
EndChar

StartChar: uni097D
Encoding: 2429 2429 171
Width: 1187
GlyphClass: 2
Flags: W
LayerCount: 2
Fore
SplineSet
1090 958 m 0,0,1
 1090 612 1090 612 535 612 c 1,2,-1
 535 -96 l 1,3,-1
 490 -41 l 1,4,-1
 350 122 l 1,5,-1
 346 770 l 1,6,7
 643 770 643 770 746 797 c 0,8,9
 982 857 982 857 982 1068 c 0,10,11
 982 1188 982 1188 898 1260 c 128,-1,12
 814 1332 814 1332 691 1332 c 0,13,14
 545 1332 545 1332 194 1159 c 1,15,-1
 82 1308 l 1,16,17
 350 1459 350 1459 574 1459 c 0,18,19
 775 1459 775 1459 932.5 1309 c 128,-1,20
 1090 1159 1090 1159 1090 958 c 0,0,1
EndSplineSet
Validated: 1
EndChar

StartChar: uni097E
Encoding: 2430 2430 172
Width: 1496
GlyphClass: 2
Flags: W
LayerCount: 2
Fore
SplineSet
1414 -250 m 1,0,-1
 511 -251 l 1,1,-1
 360 -98 l 1,2,-1
 1236 -99 l 1,3,-1
 1414 -250 l 1,0,-1
1583 1336 m 1,4,-1
 1204 1336 l 1,5,-1
 1204 1032 l 2,6,7
 1204 972 1204 972 1146 972 c 2,8,-1
 711 972 l 2,9,10
 571 972 571 972 571 846 c 0,11,12
 571 742 571 742 607 708 c 0,13,14
 633 683 633 683 697 682 c 0,15,16
 719 682 719 682 869.5 706.5 c 128,-1,17
 1020 731 1020 731 1067 731 c 0,18,19
 1155 731 1155 731 1228 659 c 0,20,21
 1376 511 1376 511 1376 391 c 0,22,23
 1376 245 1376 245 1264 151 c 128,-1,24
 1152 57 1152 57 992 57 c 0,25,26
 549 57 549 57 169 599 c 1,27,-1
 249 659 l 1,28,29
 430 396 430 396 593 301 c 1,30,31
 731 218 731 218 938 218 c 0,32,33
 1078 218 1078 218 1167 298 c 1,34,35
 1247 367 1247 367 1247 456 c 0,36,37
 1247 571 1247 571 1167 571 c 0,38,39
 1107 571 1107 571 949 546.5 c 128,-1,40
 791 522 791 522 768 522 c 0,41,42
 676 522 676 522 613 571 c 0,43,44
 567 606 567 606 501 697 c 1,45,46
 416 818 416 818 416 917 c 0,47,48
 416 1000 416 1000 476 1066.5 c 128,-1,49
 536 1133 536 1133 631 1133 c 2,50,-1
 1032 1133 l 1,51,-1
 1032 1336 l 1,52,-1
 0 1336 l 1,53,-1
 -87 1497 l 1,54,-1
 1496 1497 l 1,55,-1
 1583 1336 l 1,4,-1
EndSplineSet
Validated: 1
EndChar

StartChar: NameMe.363
Encoding: 2431 2431 173
Width: 1364
GlyphClass: 2
Flags: W
LayerCount: 2
Fore
SplineSet
1237 -52 m 1,0,-1
 331 -52 l 1,1,-1
 180 101 l 1,2,-1
 1056 101 l 1,3,-1
 1237 -52 l 1,0,-1
1451 1336 m 1,4,-1
 1234 1336 l 1,5,-1
 1237 -52 l 1,6,-1
 1056 101 l 1,7,-1
 1067 553 l 1,8,-1
 1059 553 l 1,9,10
 910 361 910 361 665 361 c 0,11,12
 460 361 460 361 315 501 c 1,13,14
 178 630 178 630 178 788 c 0,15,16
 178 906 178 906 287 1004 c 0,17,18
 413 1116 413 1116 628 1116 c 0,19,20
 874 1116 874 1116 1056 860 c 1,21,-1
 1062 860 l 1,22,-1
 1062 1336 l 1,23,-1
 0 1336 l 1,24,-1
 -87 1497 l 1,25,-1
 1364 1497 l 1,26,-1
 1451 1336 l 1,4,-1
958 749 m 0,27,28
 958 869 958 869 884 935 c 0,29,30
 821 990 821 990 737 990 c 0,31,32
 644 990 644 990 559 960 c 1,33,-1
 815 561 l 1,34,35
 958 634 958 634 958 749 c 0,27,28
731 519 m 1,36,-1
 476 917 l 1,37,38
 427 892 427 892 384 832 c 1,39,40
 332 757 332 757 332 689 c 0,41,42
 332 489 332 489 565 487 c 0,43,44
 654 487 654 487 731 519 c 1,36,-1
EndSplineSet
Validated: 5
EndChar

StartChar: zeronojoin
Encoding: 8204 8204 174
Width: 0
GlyphClass: 2
Flags: W
LayerCount: 2
Fore
SplineSet
59 -972 m 1,0,-1
 -53 -972 l 1,1,-1
 -53 1772 l 1,2,-1
 59 1772 l 1,3,-1
 59 -972 l 1,0,-1
EndSplineSet
Validated: 1
EndChar

StartChar: zerojoin
Encoding: 8205 8205 175
Width: 0
GlyphClass: 2
Flags: W
LayerCount: 2
Fore
SplineSet
302 1262 m 1,0,-1
 211 1179 l 1,1,-1
 64 1323 l 1,2,-1
 64 -873 l 1,3,-1
 -48 -871 l 1,4,-1
 -48 1339 l 1,5,-1
 -211 1179 l 1,6,-1
 -302 1262 l 1,7,-1
 -88 1473 l 1,8,-1
 -302 1687 l 1,9,-1
 -216 1772 l 1,10,-1
 0 1559 l 1,11,-1
 216 1772 l 1,12,-1
 302 1687 l 1,13,-1
 88 1473 l 1,14,-1
 302 1262 l 1,0,-1
EndSplineSet
Validated: 1
EndChar

StartChar: endash
Encoding: 8211 8211 176
Width: 1272
GlyphClass: 2
Flags: W
LayerCount: 2
Fore
SplineSet
1113 689 m 1,0,-1
 178 689 l 1,1,-1
 178 791 l 1,2,-1
 1113 791 l 1,3,-1
 1113 689 l 1,0,-1
EndSplineSet
Validated: 1
EndChar

StartChar: emdash
Encoding: 8212 8212 177
Width: 1754
GlyphClass: 2
Flags: W
LayerCount: 2
Fore
SplineSet
1627 754 m 1,0,-1
 116 754 l 1,1,-1
 116 879 l 1,2,-1
 1627 879 l 1,3,-1
 1627 754 l 1,0,-1
EndSplineSet
Validated: 1
EndChar

StartChar: quoteleft
Encoding: 8216 8216 178
Width: 694
GlyphClass: 2
Flags: W
LayerCount: 2
Fore
SplineSet
344 1478 m 1,0,-1
 202 1201 l 1,1,-1
 59 1336 l 2,2,3
 0 1392 0 1392 0 1439 c 0,4,5
 0 1532 0 1532 202 2008 c 1,6,-1
 291 1898 l 1,7,8
 218 1669 218 1669 218 1624 c 0,9,10
 218 1576 218 1576 255 1548 c 2,11,-1
 344 1478 l 1,0,-1
EndSplineSet
Validated: 1
EndChar

StartChar: quoteright
Encoding: 8217 8217 179
Width: 694
GlyphClass: 2
Flags: W
LayerCount: 2
Fore
SplineSet
694 1733 m 0,0,1
 694 1641 694 1641 492 1165 c 1,2,-1
 403 1274 l 1,3,4
 476 1504 476 1504 476 1548 c 0,5,6
 476 1596 476 1596 439 1624 c 2,7,-1
 350 1694 l 1,8,-1
 492 1971 l 1,9,-1
 635 1837 l 2,10,11
 694 1781 694 1781 694 1733 c 0,0,1
EndSplineSet
Validated: 1
EndChar

StartChar: quotedblleft
Encoding: 8220 8220 180
Width: 1184
GlyphClass: 2
Flags: W
LayerCount: 2
Fore
SplineSet
834 1478 m 1,0,-1
 692 1201 l 1,1,-1
 549 1336 l 2,2,3
 490 1392 490 1392 490 1439 c 0,4,5
 490 1532 490 1532 692 2008 c 1,6,-1
 781 1898 l 1,7,8
 708 1669 708 1669 708 1624 c 0,9,10
 708 1576 708 1576 745 1548 c 2,11,-1
 834 1478 l 1,0,-1
344 1478 m 1,12,-1
 202 1201 l 1,13,-1
 59 1336 l 2,14,15
 0 1392 0 1392 0 1439 c 0,16,17
 0 1532 0 1532 202 2008 c 1,18,-1
 291 1898 l 1,19,20
 218 1669 218 1669 218 1624 c 0,21,22
 218 1576 218 1576 255 1548 c 2,23,-1
 344 1478 l 1,12,-1
EndSplineSet
Validated: 1
EndChar

StartChar: quotedblright
Encoding: 8221 8221 181
Width: 1094
GlyphClass: 2
Flags: W
LayerCount: 2
Fore
SplineSet
694 1733 m 0,0,1
 694 1641 694 1641 492 1165 c 1,2,-1
 403 1274 l 1,3,4
 476 1504 476 1504 476 1548 c 0,5,6
 476 1596 476 1596 439 1624 c 2,7,-1
 350 1694 l 1,8,-1
 492 1971 l 1,9,-1
 635 1837 l 2,10,11
 694 1781 694 1781 694 1733 c 0,0,1
1094 1733 m 0,12,13
 1094 1641 1094 1641 892 1165 c 1,14,-1
 803 1274 l 1,15,16
 876 1504 876 1504 876 1548 c 0,17,18
 876 1596 876 1596 839 1624 c 2,19,-1
 750 1694 l 1,20,-1
 892 1971 l 1,21,-1
 1035 1837 l 2,22,23
 1094 1781 1094 1781 1094 1733 c 0,12,13
EndSplineSet
Validated: 1
EndChar

StartChar: uni2022
Encoding: 8226 8226 182
Width: 668
GlyphClass: 2
Flags: W
LayerCount: 2
Fore
SplineSet
475 806 m 256,0,1
 475 752 475 752 438 714.5 c 128,-1,2
 401 677 401 677 347 677 c 256,3,4
 293 677 293 677 255.5 714.5 c 128,-1,5
 218 752 218 752 218 806 c 256,6,7
 218 860 218 860 255.5 897.5 c 128,-1,8
 293 935 293 935 347 935 c 256,9,10
 401 935 401 935 438 897.5 c 128,-1,11
 475 860 475 860 475 806 c 256,0,1
EndSplineSet
Validated: 1
EndChar

StartChar: ellipsis
Encoding: 8230 8230 183
Width: 1264
GlyphClass: 2
Flags: W
LayerCount: 2
Fore
SplineSet
1143 125 m 0,0,1
 1145 76 1145 76 1114 39 c 128,-1,2
 1083 2 1083 2 1036 0 c 0,3,4
 992 -2 992 -2 957.5 34.5 c 128,-1,5
 923 71 923 71 921 122 c 0,6,7
 919 172 919 172 951.5 207 c 128,-1,8
 984 242 984 242 1030 244 c 0,9,10
 1077 246 1077 246 1109 212.5 c 128,-1,11
 1141 179 1141 179 1143 125 c 0,0,1
757 125 m 0,12,13
 759 76 759 76 728 39 c 128,-1,14
 697 2 697 2 650 0 c 0,15,16
 606 -2 606 -2 571.5 34.5 c 128,-1,17
 537 71 537 71 535 122 c 0,18,19
 533 172 533 172 565.5 207 c 128,-1,20
 598 242 598 242 644 244 c 0,21,22
 691 246 691 246 723 212.5 c 128,-1,23
 755 179 755 179 757 125 c 0,12,13
371 125 m 0,24,25
 373 76 373 76 342 39 c 128,-1,26
 311 2 311 2 264 0 c 0,27,28
 219 -2 219 -2 184.5 34.5 c 128,-1,29
 150 71 150 71 148 122 c 0,30,31
 146 172 146 172 179 207 c 128,-1,32
 212 242 212 242 258 244 c 0,33,34
 305 246 305 246 337 212.5 c 128,-1,35
 369 179 369 179 371 125 c 0,24,25
EndSplineSet
Validated: 33
EndChar

StartChar: circledash
Encoding: 9676 9676 184
Width: 1766
GlyphClass: 2
Flags: W
LayerCount: 2
Fore
SplineSet
1585 749 m 1,0,-1
 1468 723 l 1,1,2
 1432 958 1432 958 1253 1094 c 1,3,-1
 1326 1180 l 1,4,5
 1550 1019 1550 1019 1585 749 c 1,0,-1
1171 1270 m 1,6,-1
 1132 1163 l 1,7,8
 1023 1207 1023 1207 908 1207 c 0,9,10
 796 1207 796 1207 706 1163 c 1,11,-1
 672 1270 l 1,12,13
 798 1325 798 1325 926 1325 c 0,14,15
 1055 1325 1055 1325 1171 1270 c 1,6,-1
1580 560 m 1,16,17
 1535 293 1535 293 1331 133 c 1,18,-1
 1253 215 l 1,19,20
 1447 367 1447 367 1468 586 c 1,21,-1
 1580 560 l 1,16,17
590 1094 m 1,22,23
 507 1034 507 1034 449 937 c 0,24,25
 388 835 388 835 375 728 c 1,26,-1
 263 749 l 1,27,28
 312 1029 312 1029 517 1180 c 1,29,-1
 590 1094 l 1,22,23
1171 43 m 1,30,31
 1056 -7 1056 -7 929 -7 c 0,32,33
 801 -7 801 -7 672 43 c 1,34,-1
 715 146 l 1,35,36
 806 106 806 106 919 106 c 0,37,38
 1031 106 1031 106 1137 146 c 1,39,-1
 1171 43 l 1,30,31
581 224 m 1,40,-1
 517 142 l 1,41,42
 303 296 303 296 263 560 c 1,43,-1
 379 581 l 1,44,45
 418 341 418 341 581 224 c 1,40,-1
EndSplineSet
Validated: 1
EndChar

StartChar: l.ksha
Encoding: 65540 -1 186
Width: 1548
GlyphClass: 2
Flags: W
LayerCount: 2
Fore
SplineSet
1635 1336 m 1,0,-1
 1416 1336 l 1,1,-1
 1416 0 l 1,2,-1
 1241 101 l 1,3,-1
 1244 746 l 1,4,5
 1141 711 1141 711 1023 711 c 0,6,7
 808 711 808 711 616 872 c 1,8,9
 452 777 452 777 396 711 c 1,10,11
 344 657 344 657 344 585 c 0,12,13
 344 470 344 470 424 410 c 0,14,15
 482 367 482 367 556 367 c 0,16,17
 638 367 638 367 697 391 c 1,18,19
 637 473 637 473 637 536 c 0,20,21
 637 602 637 602 720 602 c 0,22,23
 788 602 788 602 871.5 540.5 c 128,-1,24
 955 479 955 479 955 444 c 0,25,26
 955 370 955 370 862 290 c 1,27,-1
 1092 -55 l 1,28,-1
 990 -118 l 1,29,-1
 791 252 l 1,30,31
 750 238 750 238 685 241 c 0,32,33
 545 249 545 249 396 342 c 1,34,35
 287 407 287 407 224 507 c 1,36,37
 172 595 172 595 172 671 c 0,38,39
 172 788 172 788 447 946 c 1,40,41
 183 1078 183 1078 183 1259 c 0,42,43
 183 1371 183 1371 275 1445 c 128,-1,44
 367 1519 367 1519 479 1519 c 0,45,46
 580 1519 580 1519 708 1422 c 0,47,48
 857 1308 857 1308 857 1176 c 0,49,50
 857 1050 857 1050 689 917 c 1,51,52
 757 854 757 854 862 854 c 0,53,54
 1044 854 1044 854 1245 912 c 1,55,-1
 1247 1336 l 1,56,-1
 1026 1336 l 1,57,-1
 940 1497 l 1,58,-1
 1548 1497 l 1,59,-1
 1635 1336 l 1,0,-1
703 1218 m 0,60,61
 703 1393 703 1393 568 1393 c 0,62,63
 489 1393 489 1393 422.5 1342 c 128,-1,64
 356 1291 356 1291 356 1207 c 0,65,66
 356 1058 356 1058 522 1001 c 1,67,68
 703 1106 703 1106 703 1218 c 0,60,61
EndSplineSet
Validated: 33
Ligature2: "'akhn' Akhand in Devanagari lookup 1 subtable" l.ka vs.virama l.ssa
EndChar

StartChar: l.gya
Encoding: 65541 -1 187
Width: 1403
GlyphClass: 2
Flags: W
LayerCount: 2
Fore
SplineSet
1490 1336 m 1,0,-1
 1271 1336 l 1,1,-1
 1271 0 l 1,2,-1
 1096 101 l 1,3,-1
 1099 791 l 1,4,-1
 487 791 l 1,5,-1
 487 785 l 1,6,7
 823 613 823 613 823 447 c 0,8,9
 823 244 823 244 539 200 c 1,10,-1
 886 -118 l 1,11,-1
 802 -192 l 1,12,13
 587 43 587 43 444 143 c 1,14,15
 309 162 309 162 269.5 184 c 128,-1,16
 230 206 230 206 201 268 c 128,-1,17
 172 330 172 330 172 391 c 0,18,19
 172 413 172 413 202 443 c 128,-1,20
 232 473 232 473 281 473 c 0,21,22
 328 473 328 473 386 399 c 0,23,24
 438 333 438 333 451 287 c 1,25,26
 546 295 546 295 607 343 c 128,-1,27
 668 391 668 391 668 454 c 0,28,29
 668 552 668 552 539 657.5 c 128,-1,30
 410 763 410 763 189 834 c 1,31,-1
 210 935 l 1,32,-1
 1100 935 l 1,33,-1
 1102 1336 l 1,34,-1
 0 1336 l 1,35,-1
 -87 1497 l 1,36,-1
 1403 1497 l 1,37,-1
 1490 1336 l 1,0,-1
EndSplineSet
Validated: 1
Ligature2: "'akhn' Akhand in Devanagari lookup 1 subtable" l.ja vs.virama l.nya
EndChar

StartChar: l.r.virama
Encoding: 65542 -1 188
Width: 0
GlyphClass: 4
Flags: W
AnchorPoint: "Anchor-0" -314 1731 mark 0
LayerCount: 2
Fore
SplineSet
63 1887 m 1,0,-1
 8 1869 l 1,1,2
 -60 2012 -60 2012 -146 2013 c 0,3,4
 -206 2013 -206 2013 -248 1957 c 128,-1,5
 -290 1901 -290 1901 -290 1827 c 0,6,7
 -290 1709 -290 1709 -158 1420 c 1,8,-1
 -210 1399 l 1,9,10
 -420 1725 -420 1725 -419 1912 c 0,11,12
 -419 2010 -419 2010 -347.5 2083 c 128,-1,13
 -276 2156 -276 2156 -183 2156 c 0,14,15
 -8 2157 -8 2157 63 1887 c 1,0,-1
EndSplineSet
Validated: 33
Ligature2: "'rphf' Reph Form in Devanagari lookup 2 subtable" l.ra vs.virama
EndChar

StartChar: l.virama.r
Encoding: 65543 -1 189
Width: 0
GlyphClass: 4
Flags: W
LayerCount: 2
Fore
SplineSet
-35 -405 m 1,0,-1
 -115 -473 l 1,1,-1
 -333 -146 l 1,2,-1
 -662 -375 l 1,3,-1
 -785 -255 l 1,4,-1
 -347 43 l 1,5,-1
 -35 -405 l 1,0,-1
EndSplineSet
Validated: 1
Ligature2: "'blwf' Below Base Forms in Devanagari lookup 6 subtable" l.ra vs.virama
EndChar

StartChar: l.half.ka
Encoding: 65544 -1 190
Width: 1116
GlyphClass: 2
Flags: W
LayerCount: 2
Fore
SplineSet
1348 697 m 1,0,1
 1282 741 1282 741 1211 739 c 1,2,3
 1116 739 1116 739 984 645 c 1,4,-1
 984 0 l 1,5,-1
 806 101 l 1,6,-1
 818 525 l 1,7,8
 617 399 617 399 503 399 c 0,9,10
 336 399 336 399 214 521 c 128,-1,11
 92 643 92 643 92 809 c 0,12,13
 92 897 92 897 153 980 c 0,14,15
 241 1098 241 1098 424 1098 c 0,16,17
 570 1098 570 1098 657 1035 c 1,18,19
 717 988 717 988 806 862 c 1,20,-1
 812 862 l 1,21,-1
 812 1336 l 1,22,-1
 0 1336 l 1,23,-1
 -87 1497 l 1,24,-1
 1116 1497 l 1,25,-1
 1203 1336 l 1,26,-1
 984 1336 l 1,27,-1
 984 832 l 1,28,29
 1079 900 1079 900 1190 900 c 0,30,31
 1270 900 1270 900 1348 865 c 1,32,-1
 1348 697 l 1,0,1
815 734 m 1,33,34
 732 846 732 846 656 892 c 128,-1,35
 580 938 580 938 459 938 c 0,36,37
 367 938 367 938 298 883 c 1,38,39
 221 818 221 818 221 714 c 0,40,41
 221 637 221 637 274.5 589.5 c 128,-1,42
 328 542 328 542 407 542 c 0,43,44
 563 542 563 542 815 734 c 1,33,34
EndSplineSet
Validated: 33
Ligature2: "'half' Half Forms in Devanagari lookup 3 subtable" l.ka vs.virama
EndChar

StartChar: l.half.kha
Encoding: 65545 -1 191
Width: 1314
GlyphClass: 2
Flags: W
LayerCount: 2
Fore
SplineSet
1666 315 m 1,0,1
 1456 178 1456 178 1316 123 c 1,2,3
 1152 57 1152 57 984 57 c 0,4,5
 683 57 683 57 361 454 c 1,6,7
 266 568 266 568 210 692 c 1,8,9
 166 780 166 780 166 805 c 0,10,11
 166 825 166 825 189 853 c 128,-1,12
 212 881 212 881 226 881 c 0,13,14
 254 881 254 881 396 823 c 1,15,16
 439 889 439 889 438 1067 c 0,17,18
 438 1210 438 1210 427 1336 c 1,19,-1
 0 1336 l 1,20,-1
 -87 1497 l 1,21,-1
 1314 1497 l 1,22,-1
 1401 1336 l 1,23,-1
 596 1336 l 1,24,25
 609 885 609 885 610 877 c 1,26,27
 609 680 609 680 410 547 c 1,28,29
 571 350 571 350 701 275 c 128,-1,30
 831 200 831 200 1034 200 c 0,31,32
 1247 200 1247 200 1594 447 c 1,33,-1
 1666 315 l 1,0,1
1542 783 m 0,34,35
 1542 648 1542 648 1425 547 c 1,36,37
 1321 459 1321 459 1212 459 c 0,38,39
 1040 459 1040 459 909.5 575.5 c 128,-1,40
 779 692 779 692 779 851 c 0,41,42
 779 969 779 969 883 1055 c 128,-1,43
 987 1141 987 1141 1152 1141 c 0,44,45
 1295 1141 1295 1141 1418.5 1025 c 128,-1,46
 1542 909 1542 909 1542 783 c 0,34,35
1442 840 m 0,47,48
 1442 998 1442 998 1212 998 c 0,49,50
 1089 998 1089 998 998.5 919 c 128,-1,51
 908 840 908 840 908 760 c 0,52,53
 908 602 908 602 1115 602 c 0,54,55
 1244 602 1244 602 1343 675 c 128,-1,56
 1442 748 1442 748 1442 840 c 0,47,48
EndSplineSet
Validated: 33
Ligature2: "'half' Half Forms in Devanagari lookup 3 subtable" l.kh vs.virama
EndChar

StartChar: l.half.ga
Encoding: 65546 -1 192
Width: 771
GlyphClass: 2
Flags: W
LayerCount: 2
Fore
SplineSet
858 1336 m 1,0,-1
 542 1336 l 1,1,-1
 542 610 l 2,2,3
 542 564 542 564 513 532.5 c 128,-1,4
 484 501 484 501 444 501 c 0,5,6
 409 501 409 501 276 643 c 1,7,8
 172 752 172 752 172 809 c 0,9,10
 172 832 172 832 189 852 c 128,-1,11
 206 872 206 872 221 872 c 2,12,-1
 353 872 l 2,13,14
 370 872 370 872 370 900 c 2,15,-1
 370 1336 l 1,16,-1
 0 1336 l 1,17,-1
 -87 1497 l 1,18,-1
 771 1497 l 1,19,-1
 858 1336 l 1,0,-1
EndSplineSet
Validated: 1
Ligature2: "'half' Half Forms in Devanagari lookup 3 subtable" l.ga vs.virama
EndChar

StartChar: l.half.gha
Encoding: 65547 -1 193
Width: 898
GlyphClass: 2
Flags: W
LayerCount: 2
Fore
SplineSet
1124 624 m 1,0,1
 919 400 919 400 668 402 c 1,2,3
 528 402 528 402 390 509 c 128,-1,4
 252 616 252 616 252 755 c 0,5,6
 252 892 252 892 422 987 c 1,7,8
 175 1135 175 1135 175 1273 c 2,9,-1
 175 1336 l 1,10,-1
 0 1336 l 1,11,-1
 -87 1497 l 1,12,-1
 898 1497 l 1,13,-1
 985 1336 l 1,14,-1
 416 1336 l 1,15,16
 364 1289 364 1289 364 1201 c 0,17,18
 364 1106 364 1106 510 1015 c 1,19,20
 713 1023 713 1023 800 958 c 1,21,22
 851 823 851 823 851 820 c 0,23,24
 851 798 851 798 821 797 c 0,25,26
 804 797 804 797 714.5 820 c 128,-1,27
 625 843 625 843 605 843 c 0,28,29
 408 843 408 843 408 685 c 0,30,31
 408 610 408 610 453.5 557 c 128,-1,32
 499 504 499 504 571 504 c 0,33,34
 784 504 784 504 1124 823 c 1,35,-1
 1124 624 l 1,0,1
EndSplineSet
Validated: 33
Ligature2: "'half' Half Forms in Devanagari lookup 3 subtable" l.gha vs.virama
EndChar

StartChar: l.half.nga
Encoding: 65548 -1 194
Width: 1746
GlyphClass: 2
Flags: W
LayerCount: 2
Fore
SplineSet
1446 -547 m 1,0,-1
 1397 -602 l 1,1,2
 1205 -392 1205 -392 1044 -270 c 0,3,4
 940 -190 940 -190 863 -189 c 1,5,6
 763 -189 763 -189 718 -200 c 1,7,8
 603 -66 603 -66 603 -22 c 0,9,10
 603 0 603 0 709 0 c 0,11,12
 882 0 882 0 1019 -115 c 0,13,14
 1128 -207 1128 -207 1274 -361 c 1,15,16
 1360 -455 1360 -455 1446 -547 c 1,0,-1
1609 848 m 1,17,-1
 1439 682 l 1,18,-1
 1270 848 l 1,19,-1
 1439 1015 l 1,20,-1
 1609 848 l 1,17,-1
1833 1336 m 1,21,-1
 1152 1336 l 1,22,-1
 1152 1032 l 2,23,24
 1152 972 1152 972 1095 972 c 2,25,-1
 711 972 l 2,26,27
 571 972 571 972 571 846 c 0,28,29
 571 742 571 742 608 708 c 1,30,31
 633 683 633 683 697 682 c 0,32,33
 725 682 725 682 866 706.5 c 128,-1,34
 1007 731 1007 731 1032 731 c 0,35,36
 1120 731 1120 731 1193 659 c 0,37,38
 1341 511 1341 511 1341 391 c 0,39,40
 1341 245 1341 245 1230 151 c 128,-1,41
 1119 57 1119 57 958 57 c 0,42,43
 752 57 752 57 533 218 c 1,44,45
 336 361 336 361 169 599 c 1,46,-1
 249 659 l 1,47,48
 430 399 430 399 588 301 c 0,49,50
 720 218 720 218 903 218 c 0,51,52
 1043 218 1043 218 1133 298 c 0,53,54
 1212 367 1212 367 1212 456 c 0,55,56
 1212 571 1212 571 1133 571 c 0,57,58
 1092 571 1092 571 943 546.5 c 128,-1,59
 794 522 794 522 769 522 c 0,60,61
 676 522 676 522 613 571 c 0,62,63
 567 606 567 606 501 697 c 1,64,65
 416 818 416 818 416 917 c 0,66,67
 416 1000 416 1000 476 1066.5 c 128,-1,68
 536 1133 536 1133 631 1133 c 2,69,-1
 980 1133 l 1,70,-1
 980 1336 l 1,71,-1
 0 1336 l 1,72,-1
 -87 1497 l 1,73,-1
 1746 1497 l 1,74,-1
 1833 1336 l 1,21,-1
EndSplineSet
Validated: 1
Ligature2: "'half' Half Forms in Devanagari lookup 3 subtable" l.nga vs.virama
EndChar

StartChar: l.half.ca
Encoding: 65549 -1 195
Width: 1019
GlyphClass: 2
Flags: W
LayerCount: 2
Fore
SplineSet
1288 547 m 1,0,1
 1093 361 1093 361 909 361 c 0,2,3
 706 361 706 361 580 476 c 1,4,5
 468 580 468 580 468 711 c 0,6,7
 468 806 468 806 533 886 c 1,8,-1
 255 886 l 1,9,-1
 169 1047 l 1,10,-1
 1098 1047 l 1,11,-1
 1184 895 l 1,12,13
 1168 895 1168 895 1113 897 c 1,14,-1
 1023 897 l 2,15,16
 794 897 794 897 736 865 c 0,17,18
 690 840 690 840 656 777 c 128,-1,19
 622 714 622 714 622 645 c 0,20,21
 622 465 622 465 799 465 c 0,22,23
 928 465 928 465 1288 757 c 1,24,-1
 1288 547 l 1,0,1
1144 1336 m 1,25,-1
 0 1336 l 1,26,-1
 -87 1497 l 1,27,-1
 1058 1497 l 1,28,-1
 1144 1336 l 1,25,-1
EndSplineSet
Validated: 1
Ligature2: "'half' Half Forms in Devanagari lookup 3 subtable" l.ca vs.virama
EndChar

StartChar: l.half.cha
Encoding: 65550 -1 196
Width: 1562
GlyphClass: 2
Flags: W
LayerCount: 2
Fore
SplineSet
1446 -547 m 1,0,-1
 1397 -602 l 1,1,2
 1205 -392 1205 -392 1044 -270 c 0,3,4
 940 -190 940 -190 863 -189 c 1,5,6
 763 -189 763 -189 718 -200 c 1,7,8
 603 -66 603 -66 603 -22 c 0,9,10
 603 0 603 0 709 0 c 0,11,12
 882 0 882 0 1019 -115 c 0,13,14
 1128 -207 1128 -207 1274 -361 c 1,15,16
 1360 -455 1360 -455 1446 -547 c 1,0,-1
1649 1336 m 1,17,-1
 1310 1336 l 1,18,-1
 1310 1116 l 1,19,20
 1502 981 1502 981 1502 731 c 0,21,22
 1502 498 1502 498 1333 309 c 0,23,24
 1098 46 1098 46 797 46 c 0,25,26
 638 46 638 46 490 143 c 1,27,28
 318 252 318 252 318 405 c 0,29,30
 318 493 318 493 419 580 c 1,31,32
 172 738 172 738 172 860 c 0,33,34
 172 983 172 983 266 1056 c 1,35,36
 351 1119 351 1119 482 1119 c 0,37,38
 640 1119 640 1119 673 1074 c 128,-1,39
 706 1029 706 1029 745 927 c 1,40,41
 657 959 657 959 564 958 c 1,42,43
 326 958 326 958 326 802 c 0,44,45
 326 742 326 742 386.5 700.5 c 128,-1,46
 447 659 447 659 511 659 c 0,47,48
 517 659 517 659 566.5 672 c 128,-1,49
 616 685 616 685 662 685 c 0,50,51
 739 685 739 685 788 665 c 1,52,53
 860 539 860 539 860 522 c 256,54,55
 860 505 860 505 846 504 c 1,56,57
 848 504 848 504 800 514.5 c 128,-1,58
 752 525 752 525 706 525 c 0,59,60
 620 525 620 525 546.5 459 c 128,-1,61
 473 393 473 393 473 309 c 0,62,63
 473 238 473 238 547 200 c 1,64,65
 608 172 608 172 685 172 c 0,66,67
 816 172 816 172 983 246 c 0,68,69
 1175 332 1175 332 1247 456 c 1,70,71
 1144 531 1144 531 1040 605 c 1,72,73
 876 739 876 739 878 892 c 1,74,75
 878 995 878 995 941 1070 c 1,76,77
 1009 1155 1009 1155 1138 1173 c 1,78,-1
 1138 1336 l 1,79,-1
 0 1336 l 1,80,-1
 -87 1497 l 1,81,-1
 1562 1497 l 1,82,-1
 1649 1336 l 1,17,-1
1373 809 m 0,83,84
 1373 910 1373 910 1323 983 c 128,-1,85
 1273 1056 1273 1056 1201 1056 c 0,86,87
 1135 1056 1135 1056 1092.5 994 c 128,-1,88
 1050 932 1050 932 1050 848 c 0,89,90
 1050 643 1050 643 1294 533 c 1,91,92
 1373 657 1373 657 1373 809 c 0,83,84
EndSplineSet
Validated: 33
Ligature2: "'half' Half Forms in Devanagari lookup 3 subtable" l.cha vs.virama
EndChar

StartChar: l.half.ja
Encoding: 65551 -1 197
Width: 1108
GlyphClass: 2
Flags: W
LayerCount: 2
Fore
SplineSet
1239 977 m 1,0,-1
 1239 906 l 1,1,-1
 831 906 l 1,2,3
 943 794 943 794 987 728 c 1,4,5
 1041 640 1041 640 1040 545 c 1,6,7
 1040 435 1040 435 949 367 c 1,8,9
 872 307 872 307 780 307 c 0,10,11
 579 307 579 307 416 514 c 1,12,13
 309 645 309 645 169 946 c 1,14,-1
 263 987 l 1,15,16
 340 801 340 801 451 651 c 1,17,18
 502 580 502 580 582 529.5 c 128,-1,19
 662 479 662 479 722 479 c 0,20,21
 875 479 875 479 875 640 c 0,22,23
 875 818 875 818 547 1007 c 1,24,-1
 571 1067 l 1,25,-1
 1239 1067 l 1,26,-1
 1239 977 l 1,0,-1
1195 1336 m 1,27,-1
 0 1336 l 1,28,-1
 -87 1497 l 1,29,-1
 1108 1497 l 1,30,-1
 1195 1336 l 1,27,-1
EndSplineSet
Validated: 33
Ligature2: "'half' Half Forms in Devanagari lookup 3 subtable" l.ja vs.virama
EndChar

StartChar: l.half.jha
Encoding: 65552 -1 198
Width: 998
GlyphClass: 2
Flags: W
LayerCount: 2
Fore
SplineSet
1234 745 m 1,0,1
 1119 636 1119 636 966 637 c 0,2,3
 903 637 903 637 875 651 c 1,4,-1
 868 648 l 1,5,6
 942 545 942 545 944 473 c 1,7,8
 944 210 944 210 571 129 c 1,9,-1
 906 -221 l 1,10,-1
 823 -295 l 1,11,12
 542 69 542 69 465 101 c 1,13,14
 331 120 331 120 290 142 c 128,-1,15
 249 164 249 164 220.5 225.5 c 128,-1,16
 192 287 192 287 192 347 c 0,17,18
 192 370 192 370 222 400 c 128,-1,19
 252 430 252 430 301 430 c 0,20,21
 339 430 339 430 402 370 c 1,22,23
 457 315 457 315 479 273 c 1,24,25
 580 267 580 267 685 326 c 1,26,27
 814 400 814 400 815 525 c 0,28,29
 815 634 815 634 734 634 c 0,30,31
 706 634 706 634 618.5 605.5 c 128,-1,32
 531 577 531 577 487 577 c 0,33,34
 373 577 373 577 269 736 c 0,35,36
 174 882 174 882 175 1007 c 1,37,38
 175 1147 175 1147 339 1147 c 2,39,-1
 695 1147 l 1,40,-1
 695 1336 l 1,41,-1
 0 1336 l 1,42,-1
 -87 1497 l 1,43,-1
 998 1497 l 1,44,-1
 1085 1336 l 1,45,-1
 849 1336 l 1,46,-1
 849 1040 l 2,47,48
 849 1002 849 1002 794 1004 c 1,49,-1
 427 1004 l 2,50,51
 304 1004 304 1004 304 920 c 0,52,53
 304 846 304 846 346.5 783 c 128,-1,54
 389 720 389 720 450 720 c 0,55,56
 490 720 490 720 576 748.5 c 128,-1,57
 662 777 662 777 700 777 c 0,58,59
 772 777 772 777 802 739 c 1,60,61
 969 731 969 731 1234 932 c 1,62,-1
 1234 745 l 1,0,1
EndSplineSet
Validated: 33
Ligature2: "'half' Half Forms in Devanagari lookup 3 subtable" l.jha vs.virama
EndChar

StartChar: l.half.nya
Encoding: 65553 -1 199
Width: 1098
GlyphClass: 2
Flags: W
LayerCount: 2
Fore
SplineSet
1185 1336 m 1,0,-1
 0 1336 l 1,1,-1
 -87 1497 l 1,2,-1
 1098 1497 l 1,3,-1
 1185 1336 l 1,0,-1
1327 659 m 1,4,5
 1182 627 1182 627 1089 634 c 1,6,7
 1026 377 1026 377 755 375 c 1,8,9
 454 375 454 375 175 769 c 1,10,-1
 247 832 l 1,11,12
 318 711 318 711 437 623.5 c 128,-1,13
 556 536 556 536 665 536 c 0,14,15
 780 536 780 536 863 605 c 1,16,17
 958 682 958 682 958 815 c 0,18,19
 958 867 958 867 933 911 c 1,20,21
 900 972 900 972 849 972 c 0,22,23
 811 972 811 972 735.5 918.5 c 128,-1,24
 660 865 660 865 619 815 c 1,25,-1
 476 960 l 1,26,27
 591 1075 591 1075 748 1075 c 0,28,29
 891 1075 891 1075 993 990 c 1,30,31
 1081 913 1081 913 1113 794 c 1,32,33
 1274 811 1274 811 1327 840 c 1,34,-1
 1327 659 l 1,4,5
EndSplineSet
Validated: 33
Ligature2: "'half' Half Forms in Devanagari lookup 3 subtable" l.nya vs.virama
EndChar

StartChar: l.half.tta
Encoding: 65554 -1 200
Width: 1161
GlyphClass: 2
Flags: W
LayerCount: 2
Fore
SplineSet
1446 -547 m 1,0,-1
 1397 -602 l 1,1,2
 1205 -392 1205 -392 1044 -270 c 0,3,4
 940 -190 940 -190 863 -189 c 1,5,6
 763 -189 763 -189 718 -200 c 1,7,8
 603 -66 603 -66 603 -22 c 0,9,10
 603 0 603 0 709 0 c 0,11,12
 882 0 882 0 1019 -115 c 0,13,14
 1128 -207 1128 -207 1274 -361 c 1,15,16
 1360 -455 1360 -455 1446 -547 c 1,0,-1
1248 1336 m 1,17,-1
 944 1336 l 1,18,19
 952 1095 952 1095 952 1004 c 0,20,21
 952 903 952 903 932 867.5 c 128,-1,22
 912 832 912 832 857 815 c 0,23,24
 753 783 753 783 496 734 c 1,25,26
 329 701 329 701 329 533 c 0,27,28
 329 427 329 427 412.5 346.5 c 128,-1,29
 496 266 496 266 602 266 c 0,30,31
 794 266 794 266 1113 416 c 1,32,-1
 1187 260 l 1,33,34
 952 123 952 123 714 123 c 0,35,36
 501 123 501 123 338 282 c 128,-1,37
 175 441 175 441 175 634 c 0,38,39
 175 818 175 818 370 875 c 0,40,41
 493 911 493 911 714 958 c 0,42,43
 752 966 752 966 766 1000.5 c 128,-1,44
 780 1035 780 1035 780 1149 c 0,45,46
 780 1267 780 1267 772 1336 c 1,47,-1
 0 1336 l 1,48,-1
 -87 1497 l 1,49,-1
 1161 1497 l 1,50,-1
 1248 1336 l 1,17,-1
EndSplineSet
Validated: 1
Ligature2: "'half' Half Forms in Devanagari lookup 3 subtable" l.tta vs.virama
EndChar

StartChar: l.half.ttha
Encoding: 65555 -1 201
Width: 1313
GlyphClass: 2
Flags: W
LayerCount: 2
Fore
SplineSet
1446 -547 m 1,0,-1
 1397 -602 l 1,1,2
 1205 -392 1205 -392 1044 -270 c 0,3,4
 940 -190 940 -190 863 -189 c 1,5,6
 763 -189 763 -189 718 -200 c 1,7,8
 603 -66 603 -66 603 -22 c 0,9,10
 603 0 603 0 709 0 c 0,11,12
 882 0 882 0 1019 -115 c 0,13,14
 1128 -207 1128 -207 1274 -361 c 1,15,16
 1360 -455 1360 -455 1446 -547 c 1,0,-1
1400 1336 m 1,17,-1
 1053 1336 l 1,18,19
 1119 1243 1119 1243 1119 1113 c 0,20,21
 1119 993 1119 993 977 872 c 1,22,23
 1259 706 1259 706 1259 498 c 0,24,25
 1259 321 1259 321 1111 197.5 c 128,-1,26
 963 74 963 74 783 74 c 0,27,28
 556 74 556 74 364 245 c 128,-1,29
 172 416 172 416 172 640 c 0,30,31
 172 955 172 955 752 955 c 0,32,33
 826 955 826 955 881 1001 c 0,34,35
 946 1056 946 1056 946 1155 c 0,36,37
 946 1256 946 1256 906 1336 c 1,38,-1
 0 1336 l 1,39,-1
 -87 1497 l 1,40,-1
 1313 1497 l 1,41,-1
 1400 1336 l 1,17,-1
1103 553 m 0,42,43
 1103 657 1103 657 1038.5 734.5 c 128,-1,44
 974 812 974 812 872 812 c 0,45,46
 675 812 675 812 522 760 c 0,47,48
 328 694 328 694 326 564 c 1,49,50
 326 400 326 400 438 307 c 1,51,52
 542 218 542 218 711 218 c 0,53,54
 854 218 854 218 978.5 315.5 c 128,-1,55
 1103 413 1103 413 1103 553 c 0,42,43
EndSplineSet
Validated: 1
Ligature2: "'half' Half Forms in Devanagari lookup 3 subtable" l.ttha vs.virama
EndChar

StartChar: l.half.dda
Encoding: 65556 -1 202
Width: 1496
GlyphClass: 2
Flags: W
LayerCount: 2
Fore
SplineSet
1446 -547 m 1,0,-1
 1397 -602 l 1,1,2
 1205 -392 1205 -392 1044 -270 c 0,3,4
 940 -190 940 -190 863 -189 c 1,5,6
 763 -189 763 -189 718 -200 c 1,7,8
 603 -66 603 -66 603 -22 c 0,9,10
 603 0 603 0 709 0 c 0,11,12
 882 0 882 0 1019 -115 c 0,13,14
 1128 -207 1128 -207 1274 -361 c 1,15,16
 1360 -455 1360 -455 1446 -547 c 1,0,-1
1583 1336 m 1,17,-1
 1204 1336 l 1,18,-1
 1204 1032 l 2,19,20
 1204 972 1204 972 1146 972 c 2,21,-1
 711 972 l 2,22,23
 571 972 571 972 571 846 c 0,24,25
 571 742 571 742 607 708 c 0,26,27
 633 683 633 683 697 682 c 0,28,29
 719 682 719 682 869.5 706.5 c 128,-1,30
 1020 731 1020 731 1067 731 c 0,31,32
 1155 731 1155 731 1228 659 c 0,33,34
 1376 511 1376 511 1376 391 c 0,35,36
 1376 245 1376 245 1264 151 c 128,-1,37
 1152 57 1152 57 992 57 c 0,38,39
 549 57 549 57 169 599 c 1,40,-1
 249 659 l 1,41,42
 430 396 430 396 593 301 c 1,43,44
 731 218 731 218 938 218 c 0,45,46
 1078 218 1078 218 1167 298 c 1,47,48
 1247 367 1247 367 1247 456 c 0,49,50
 1247 571 1247 571 1167 571 c 0,51,52
 1107 571 1107 571 949 546.5 c 128,-1,53
 791 522 791 522 768 522 c 0,54,55
 676 522 676 522 613 571 c 0,56,57
 567 606 567 606 501 697 c 1,58,59
 416 818 416 818 416 917 c 0,60,61
 416 1000 416 1000 476 1066.5 c 128,-1,62
 536 1133 536 1133 631 1133 c 2,63,-1
 1032 1133 l 1,64,-1
 1032 1336 l 1,65,-1
 0 1336 l 1,66,-1
 -87 1497 l 1,67,-1
 1496 1497 l 1,68,-1
 1583 1336 l 1,17,-1
EndSplineSet
Validated: 1
Ligature2: "'half' Half Forms in Devanagari lookup 3 subtable" l.dda vs.virama
EndChar

